<?xml version="1.0" encoding="utf-8" standalone="no"?>
<!DOCTYPE svg PUBLIC "-//W3C//DTD SVG 1.1//EN"
  "http://www.w3.org/Graphics/SVG/1.1/DTD/svg11.dtd">
<svg xmlns:xlink="http://www.w3.org/1999/xlink" width="564.329375pt" height="348.414844pt" viewBox="0 0 564.329375 348.414844" xmlns="http://www.w3.org/2000/svg" version="1.1">
 <metadata>
  <rdf:RDF xmlns:dc="http://purl.org/dc/elements/1.1/" xmlns:cc="http://creativecommons.org/ns#" xmlns:rdf="http://www.w3.org/1999/02/22-rdf-syntax-ns#">
   <cc:Work>
    <dc:type rdf:resource="http://purl.org/dc/dcmitype/StillImage"/>
    <dc:date>2026-07-21T00:49:07.557236</dc:date>
    <dc:format>image/svg+xml</dc:format>
    <dc:creator>
     <cc:Agent>
      <dc:title>Matplotlib v3.9.2, https://matplotlib.org/</dc:title>
     </cc:Agent>
    </dc:creator>
   </cc:Work>
  </rdf:RDF>
 </metadata>
 <defs>
  <style type="text/css">*{stroke-linejoin: round; stroke-linecap: butt}</style>
 </defs>
 <g id="figure_1">
  <g id="patch_1">
   <path d="M 0 348.414844 
L 564.329375 348.414844 
L 564.329375 0 
L 0 0 
z
" style="fill: #ffffff"/>
  </g>
  <g id="axes_1">
   <g id="patch_2">
    <path d="M 46.964375 306.534375 
L 557.129375 306.534375 
L 557.129375 21.935625 
L 46.964375 21.935625 
z
" style="fill: #ffffff"/>
   </g>
   <g id="matplotlib.axis_1">
    <g id="xtick_1">
     <g id="text_1">
      <!-- 0 -->
      <g style="fill: #262626" transform="translate(67.095178 323.907969) scale(0.11 -0.11)">
       <defs>
        <path id="ArialMT-30" d="M 266 2259 
Q 266 3072 433 3567 
Q 600 4063 929 4331 
Q 1259 4600 1759 4600 
Q 2128 4600 2406 4451 
Q 2684 4303 2865 4023 
Q 3047 3744 3150 3342 
Q 3253 2941 3253 2259 
Q 3253 1453 3087 958 
Q 2922 463 2592 192 
Q 2263 -78 1759 -78 
Q 1097 -78 719 397 
Q 266 969 266 2259 
z
M 844 2259 
Q 844 1131 1108 757 
Q 1372 384 1759 384 
Q 2147 384 2411 759 
Q 2675 1134 2675 2259 
Q 2675 3391 2411 3762 
Q 2147 4134 1753 4134 
Q 1366 4134 1134 3806 
Q 844 3388 844 2259 
z
" transform="scale(0.015625)"/>
       </defs>
       <use xlink:href="#ArialMT-30"/>
      </g>
     </g>
    </g>
    <g id="xtick_2">
     <g id="text_2">
      <!-- 200 -->
      <g style="fill: #262626" transform="translate(151.649967 323.907969) scale(0.11 -0.11)">
       <defs>
        <path id="ArialMT-32" d="M 3222 541 
L 3222 0 
L 194 0 
Q 188 203 259 391 
Q 375 700 629 1000 
Q 884 1300 1366 1694 
Q 2113 2306 2375 2664 
Q 2638 3022 2638 3341 
Q 2638 3675 2398 3904 
Q 2159 4134 1775 4134 
Q 1369 4134 1125 3890 
Q 881 3647 878 3216 
L 300 3275 
Q 359 3922 746 4261 
Q 1134 4600 1788 4600 
Q 2447 4600 2831 4234 
Q 3216 3869 3216 3328 
Q 3216 3053 3103 2787 
Q 2991 2522 2730 2228 
Q 2469 1934 1863 1422 
Q 1356 997 1212 845 
Q 1069 694 975 541 
L 3222 541 
z
" transform="scale(0.015625)"/>
       </defs>
       <use xlink:href="#ArialMT-32"/>
       <use xlink:href="#ArialMT-30" x="55.615234"/>
       <use xlink:href="#ArialMT-30" x="111.230469"/>
      </g>
     </g>
    </g>
    <g id="xtick_3">
     <g id="text_3">
      <!-- 400 -->
      <g style="fill: #262626" transform="translate(242.321788 323.907969) scale(0.11 -0.11)">
       <defs>
        <path id="ArialMT-34" d="M 2069 0 
L 2069 1097 
L 81 1097 
L 81 1613 
L 2172 4581 
L 2631 4581 
L 2631 1613 
L 3250 1613 
L 3250 1097 
L 2631 1097 
L 2631 0 
L 2069 0 
z
M 2069 1613 
L 2069 3678 
L 634 1613 
L 2069 1613 
z
" transform="scale(0.015625)"/>
       </defs>
       <use xlink:href="#ArialMT-34"/>
       <use xlink:href="#ArialMT-30" x="55.615234"/>
       <use xlink:href="#ArialMT-30" x="111.230469"/>
      </g>
     </g>
    </g>
    <g id="xtick_4">
     <g id="text_4">
      <!-- 600 -->
      <g style="fill: #262626" transform="translate(332.993609 323.907969) scale(0.11 -0.11)">
       <defs>
        <path id="ArialMT-36" d="M 3184 3459 
L 2625 3416 
Q 2550 3747 2413 3897 
Q 2184 4138 1850 4138 
Q 1581 4138 1378 3988 
Q 1113 3794 959 3422 
Q 806 3050 800 2363 
Q 1003 2672 1297 2822 
Q 1591 2972 1913 2972 
Q 2475 2972 2870 2558 
Q 3266 2144 3266 1488 
Q 3266 1056 3080 686 
Q 2894 316 2569 119 
Q 2244 -78 1831 -78 
Q 1128 -78 684 439 
Q 241 956 241 2144 
Q 241 3472 731 4075 
Q 1159 4600 1884 4600 
Q 2425 4600 2770 4297 
Q 3116 3994 3184 3459 
z
M 888 1484 
Q 888 1194 1011 928 
Q 1134 663 1356 523 
Q 1578 384 1822 384 
Q 2178 384 2434 671 
Q 2691 959 2691 1453 
Q 2691 1928 2437 2201 
Q 2184 2475 1800 2475 
Q 1419 2475 1153 2201 
Q 888 1928 888 1484 
z
" transform="scale(0.015625)"/>
       </defs>
       <use xlink:href="#ArialMT-36"/>
       <use xlink:href="#ArialMT-30" x="55.615234"/>
       <use xlink:href="#ArialMT-30" x="111.230469"/>
      </g>
     </g>
    </g>
    <g id="xtick_5">
     <g id="text_5">
      <!-- 800 -->
      <g style="fill: #262626" transform="translate(423.66543 323.907969) scale(0.11 -0.11)">
       <defs>
        <path id="ArialMT-38" d="M 1131 2484 
Q 781 2613 612 2850 
Q 444 3088 444 3419 
Q 444 3919 803 4259 
Q 1163 4600 1759 4600 
Q 2359 4600 2725 4251 
Q 3091 3903 3091 3403 
Q 3091 3084 2923 2848 
Q 2756 2613 2416 2484 
Q 2838 2347 3058 2040 
Q 3278 1734 3278 1309 
Q 3278 722 2862 322 
Q 2447 -78 1769 -78 
Q 1091 -78 675 323 
Q 259 725 259 1325 
Q 259 1772 486 2073 
Q 713 2375 1131 2484 
z
M 1019 3438 
Q 1019 3113 1228 2906 
Q 1438 2700 1772 2700 
Q 2097 2700 2305 2904 
Q 2513 3109 2513 3406 
Q 2513 3716 2298 3927 
Q 2084 4138 1766 4138 
Q 1444 4138 1231 3931 
Q 1019 3725 1019 3438 
z
M 838 1322 
Q 838 1081 952 856 
Q 1066 631 1291 507 
Q 1516 384 1775 384 
Q 2178 384 2440 643 
Q 2703 903 2703 1303 
Q 2703 1709 2433 1975 
Q 2163 2241 1756 2241 
Q 1359 2241 1098 1978 
Q 838 1716 838 1322 
z
" transform="scale(0.015625)"/>
       </defs>
       <use xlink:href="#ArialMT-38"/>
       <use xlink:href="#ArialMT-30" x="55.615234"/>
       <use xlink:href="#ArialMT-30" x="111.230469"/>
      </g>
     </g>
    </g>
    <g id="xtick_6">
     <g id="text_6">
      <!-- 1000 -->
      <g style="fill: #262626" transform="translate(511.278735 323.907969) scale(0.11 -0.11)">
       <defs>
        <path id="ArialMT-31" d="M 2384 0 
L 1822 0 
L 1822 3584 
Q 1619 3391 1289 3197 
Q 959 3003 697 2906 
L 697 3450 
Q 1169 3672 1522 3987 
Q 1875 4303 2022 4600 
L 2384 4600 
L 2384 0 
z
" transform="scale(0.015625)"/>
       </defs>
       <use xlink:href="#ArialMT-31"/>
       <use xlink:href="#ArialMT-30" x="55.615234"/>
       <use xlink:href="#ArialMT-30" x="111.230469"/>
       <use xlink:href="#ArialMT-30" x="166.845703"/>
      </g>
     </g>
    </g>
    <g id="text_7">
     <!-- Canonical component -->
     <g style="fill: #262626" transform="translate(244.01375 338.829844) scale(0.12 -0.12)">
      <defs>
       <path id="ArialMT-43" d="M 3763 1606 
L 4369 1453 
Q 4178 706 3683 314 
Q 3188 -78 2472 -78 
Q 1731 -78 1267 223 
Q 803 525 561 1097 
Q 319 1669 319 2325 
Q 319 3041 592 3573 
Q 866 4106 1370 4382 
Q 1875 4659 2481 4659 
Q 3169 4659 3637 4309 
Q 4106 3959 4291 3325 
L 3694 3184 
Q 3534 3684 3231 3912 
Q 2928 4141 2469 4141 
Q 1941 4141 1586 3887 
Q 1231 3634 1087 3207 
Q 944 2781 944 2328 
Q 944 1744 1114 1308 
Q 1284 872 1643 656 
Q 2003 441 2422 441 
Q 2931 441 3284 734 
Q 3638 1028 3763 1606 
z
" transform="scale(0.015625)"/>
       <path id="ArialMT-61" d="M 2588 409 
Q 2275 144 1986 34 
Q 1697 -75 1366 -75 
Q 819 -75 525 192 
Q 231 459 231 875 
Q 231 1119 342 1320 
Q 453 1522 633 1644 
Q 813 1766 1038 1828 
Q 1203 1872 1538 1913 
Q 2219 1994 2541 2106 
Q 2544 2222 2544 2253 
Q 2544 2597 2384 2738 
Q 2169 2928 1744 2928 
Q 1347 2928 1158 2789 
Q 969 2650 878 2297 
L 328 2372 
Q 403 2725 575 2942 
Q 747 3159 1072 3276 
Q 1397 3394 1825 3394 
Q 2250 3394 2515 3294 
Q 2781 3194 2906 3042 
Q 3031 2891 3081 2659 
Q 3109 2516 3109 2141 
L 3109 1391 
Q 3109 606 3145 398 
Q 3181 191 3288 0 
L 2700 0 
Q 2613 175 2588 409 
z
M 2541 1666 
Q 2234 1541 1622 1453 
Q 1275 1403 1131 1340 
Q 988 1278 909 1158 
Q 831 1038 831 891 
Q 831 666 1001 516 
Q 1172 366 1500 366 
Q 1825 366 2078 508 
Q 2331 650 2450 897 
Q 2541 1088 2541 1459 
L 2541 1666 
z
" transform="scale(0.015625)"/>
       <path id="ArialMT-6e" d="M 422 0 
L 422 3319 
L 928 3319 
L 928 2847 
Q 1294 3394 1984 3394 
Q 2284 3394 2536 3286 
Q 2788 3178 2913 3003 
Q 3038 2828 3088 2588 
Q 3119 2431 3119 2041 
L 3119 0 
L 2556 0 
L 2556 2019 
Q 2556 2363 2490 2533 
Q 2425 2703 2258 2804 
Q 2091 2906 1866 2906 
Q 1506 2906 1245 2678 
Q 984 2450 984 1813 
L 984 0 
L 422 0 
z
" transform="scale(0.015625)"/>
       <path id="ArialMT-6f" d="M 213 1659 
Q 213 2581 725 3025 
Q 1153 3394 1769 3394 
Q 2453 3394 2887 2945 
Q 3322 2497 3322 1706 
Q 3322 1066 3130 698 
Q 2938 331 2570 128 
Q 2203 -75 1769 -75 
Q 1072 -75 642 372 
Q 213 819 213 1659 
z
M 791 1659 
Q 791 1022 1069 705 
Q 1347 388 1769 388 
Q 2188 388 2466 706 
Q 2744 1025 2744 1678 
Q 2744 2294 2464 2611 
Q 2184 2928 1769 2928 
Q 1347 2928 1069 2612 
Q 791 2297 791 1659 
z
" transform="scale(0.015625)"/>
       <path id="ArialMT-69" d="M 425 3934 
L 425 4581 
L 988 4581 
L 988 3934 
L 425 3934 
z
M 425 0 
L 425 3319 
L 988 3319 
L 988 0 
L 425 0 
z
" transform="scale(0.015625)"/>
       <path id="ArialMT-63" d="M 2588 1216 
L 3141 1144 
Q 3050 572 2676 248 
Q 2303 -75 1759 -75 
Q 1078 -75 664 370 
Q 250 816 250 1647 
Q 250 2184 428 2587 
Q 606 2991 970 3192 
Q 1334 3394 1763 3394 
Q 2303 3394 2647 3120 
Q 2991 2847 3088 2344 
L 2541 2259 
Q 2463 2594 2264 2762 
Q 2066 2931 1784 2931 
Q 1359 2931 1093 2626 
Q 828 2322 828 1663 
Q 828 994 1084 691 
Q 1341 388 1753 388 
Q 2084 388 2306 591 
Q 2528 794 2588 1216 
z
" transform="scale(0.015625)"/>
       <path id="ArialMT-6c" d="M 409 0 
L 409 4581 
L 972 4581 
L 972 0 
L 409 0 
z
" transform="scale(0.015625)"/>
       <path id="ArialMT-20" transform="scale(0.015625)"/>
       <path id="ArialMT-6d" d="M 422 0 
L 422 3319 
L 925 3319 
L 925 2853 
Q 1081 3097 1340 3245 
Q 1600 3394 1931 3394 
Q 2300 3394 2536 3241 
Q 2772 3088 2869 2813 
Q 3263 3394 3894 3394 
Q 4388 3394 4653 3120 
Q 4919 2847 4919 2278 
L 4919 0 
L 4359 0 
L 4359 2091 
Q 4359 2428 4304 2576 
Q 4250 2725 4106 2815 
Q 3963 2906 3769 2906 
Q 3419 2906 3187 2673 
Q 2956 2441 2956 1928 
L 2956 0 
L 2394 0 
L 2394 2156 
Q 2394 2531 2256 2718 
Q 2119 2906 1806 2906 
Q 1569 2906 1367 2781 
Q 1166 2656 1075 2415 
Q 984 2175 984 1722 
L 984 0 
L 422 0 
z
" transform="scale(0.015625)"/>
       <path id="ArialMT-70" d="M 422 -1272 
L 422 3319 
L 934 3319 
L 934 2888 
Q 1116 3141 1344 3267 
Q 1572 3394 1897 3394 
Q 2322 3394 2647 3175 
Q 2972 2956 3137 2557 
Q 3303 2159 3303 1684 
Q 3303 1175 3120 767 
Q 2938 359 2589 142 
Q 2241 -75 1856 -75 
Q 1575 -75 1351 44 
Q 1128 163 984 344 
L 984 -1272 
L 422 -1272 
z
M 931 1641 
Q 931 1000 1190 694 
Q 1450 388 1819 388 
Q 2194 388 2461 705 
Q 2728 1022 2728 1688 
Q 2728 2322 2467 2637 
Q 2206 2953 1844 2953 
Q 1484 2953 1207 2617 
Q 931 2281 931 1641 
z
" transform="scale(0.015625)"/>
       <path id="ArialMT-65" d="M 2694 1069 
L 3275 997 
Q 3138 488 2766 206 
Q 2394 -75 1816 -75 
Q 1088 -75 661 373 
Q 234 822 234 1631 
Q 234 2469 665 2931 
Q 1097 3394 1784 3394 
Q 2450 3394 2872 2941 
Q 3294 2488 3294 1666 
Q 3294 1616 3291 1516 
L 816 1516 
Q 847 969 1125 678 
Q 1403 388 1819 388 
Q 2128 388 2347 550 
Q 2566 713 2694 1069 
z
M 847 1978 
L 2700 1978 
Q 2663 2397 2488 2606 
Q 2219 2931 1791 2931 
Q 1403 2931 1139 2672 
Q 875 2413 847 1978 
z
" transform="scale(0.015625)"/>
       <path id="ArialMT-74" d="M 1650 503 
L 1731 6 
Q 1494 -44 1306 -44 
Q 1000 -44 831 53 
Q 663 150 594 308 
Q 525 466 525 972 
L 525 2881 
L 113 2881 
L 113 3319 
L 525 3319 
L 525 4141 
L 1084 4478 
L 1084 3319 
L 1650 3319 
L 1650 2881 
L 1084 2881 
L 1084 941 
Q 1084 700 1114 631 
Q 1144 563 1211 522 
Q 1278 481 1403 481 
Q 1497 481 1650 503 
z
" transform="scale(0.015625)"/>
      </defs>
      <use xlink:href="#ArialMT-43"/>
      <use xlink:href="#ArialMT-61" x="72.216797"/>
      <use xlink:href="#ArialMT-6e" x="127.832031"/>
      <use xlink:href="#ArialMT-6f" x="183.447266"/>
      <use xlink:href="#ArialMT-6e" x="239.0625"/>
      <use xlink:href="#ArialMT-69" x="294.677734"/>
      <use xlink:href="#ArialMT-63" x="316.894531"/>
      <use xlink:href="#ArialMT-61" x="366.894531"/>
      <use xlink:href="#ArialMT-6c" x="422.509766"/>
      <use xlink:href="#ArialMT-20" x="444.726562"/>
      <use xlink:href="#ArialMT-63" x="472.509766"/>
      <use xlink:href="#ArialMT-6f" x="522.509766"/>
      <use xlink:href="#ArialMT-6d" x="578.125"/>
      <use xlink:href="#ArialMT-70" x="661.425781"/>
      <use xlink:href="#ArialMT-6f" x="717.041016"/>
      <use xlink:href="#ArialMT-6e" x="772.65625"/>
      <use xlink:href="#ArialMT-65" x="828.271484"/>
      <use xlink:href="#ArialMT-6e" x="883.886719"/>
      <use xlink:href="#ArialMT-74" x="939.501953"/>
     </g>
    </g>
   </g>
   <g id="matplotlib.axis_2">
    <g id="ytick_1">
     <g id="text_8">
      <!-- 0.0 -->
      <g style="fill: #262626" transform="translate(22.174375 310.471172) scale(0.11 -0.11)">
       <defs>
        <path id="ArialMT-2e" d="M 581 0 
L 581 641 
L 1222 641 
L 1222 0 
L 581 0 
z
" transform="scale(0.015625)"/>
       </defs>
       <use xlink:href="#ArialMT-30"/>
       <use xlink:href="#ArialMT-2e" x="55.615234"/>
       <use xlink:href="#ArialMT-30" x="83.398438"/>
      </g>
     </g>
    </g>
    <g id="ytick_2">
     <g id="text_9">
      <!-- 0.2 -->
      <g style="fill: #262626" transform="translate(22.174375 254.667495) scale(0.11 -0.11)">
       <use xlink:href="#ArialMT-30"/>
       <use xlink:href="#ArialMT-2e" x="55.615234"/>
       <use xlink:href="#ArialMT-32" x="83.398438"/>
      </g>
     </g>
    </g>
    <g id="ytick_3">
     <g id="text_10">
      <!-- 0.4 -->
      <g style="fill: #262626" transform="translate(22.174375 198.863819) scale(0.11 -0.11)">
       <use xlink:href="#ArialMT-30"/>
       <use xlink:href="#ArialMT-2e" x="55.615234"/>
       <use xlink:href="#ArialMT-34" x="83.398438"/>
      </g>
     </g>
    </g>
    <g id="ytick_4">
     <g id="text_11">
      <!-- 0.6 -->
      <g style="fill: #262626" transform="translate(22.174375 143.060142) scale(0.11 -0.11)">
       <use xlink:href="#ArialMT-30"/>
       <use xlink:href="#ArialMT-2e" x="55.615234"/>
       <use xlink:href="#ArialMT-36" x="83.398438"/>
      </g>
     </g>
    </g>
    <g id="ytick_5">
     <g id="text_12">
      <!-- 0.8 -->
      <g style="fill: #262626" transform="translate(22.174375 87.256466) scale(0.11 -0.11)">
       <use xlink:href="#ArialMT-30"/>
       <use xlink:href="#ArialMT-2e" x="55.615234"/>
       <use xlink:href="#ArialMT-38" x="83.398438"/>
      </g>
     </g>
    </g>
    <g id="ytick_6">
     <g id="text_13">
      <!-- 1.0 -->
      <g style="fill: #262626" transform="translate(22.174375 31.45279) scale(0.11 -0.11)">
       <use xlink:href="#ArialMT-31"/>
       <use xlink:href="#ArialMT-2e" x="55.615234"/>
       <use xlink:href="#ArialMT-30" x="83.398438"/>
      </g>
     </g>
    </g>
    <g id="text_14">
     <!-- Correlation -->
     <g style="fill: #262626" transform="translate(15.789375 193.579688) rotate(-90) scale(0.12 -0.12)">
      <defs>
       <path id="ArialMT-72" d="M 416 0 
L 416 3319 
L 922 3319 
L 922 2816 
Q 1116 3169 1280 3281 
Q 1444 3394 1641 3394 
Q 1925 3394 2219 3213 
L 2025 2691 
Q 1819 2813 1613 2813 
Q 1428 2813 1281 2702 
Q 1134 2591 1072 2394 
Q 978 2094 978 1738 
L 978 0 
L 416 0 
z
" transform="scale(0.015625)"/>
      </defs>
      <use xlink:href="#ArialMT-43"/>
      <use xlink:href="#ArialMT-6f" x="72.216797"/>
      <use xlink:href="#ArialMT-72" x="127.832031"/>
      <use xlink:href="#ArialMT-72" x="161.132812"/>
      <use xlink:href="#ArialMT-65" x="194.433594"/>
      <use xlink:href="#ArialMT-6c" x="250.048828"/>
      <use xlink:href="#ArialMT-61" x="272.265625"/>
      <use xlink:href="#ArialMT-74" x="327.880859"/>
      <use xlink:href="#ArialMT-69" x="355.664062"/>
      <use xlink:href="#ArialMT-6f" x="377.880859"/>
      <use xlink:href="#ArialMT-6e" x="433.496094"/>
     </g>
    </g>
   </g>
   <g id="line2d_1">
    <path d="M 70.153693 27.606408 
L 71.96713 27.720508 
L 77.860798 28.083712 
L 78.767516 28.228087 
L 85.114544 28.711432 
L 91.008212 29.159296 
L 95.995162 29.397441 
L 97.355239 29.493676 
L 101.88883 29.723487 
L 105.515703 29.861679 
L 106.422422 29.941347 
L 114.129526 30.285426 
L 118.209758 30.434458 
L 121.836631 30.617075 
L 124.103427 30.732036 
L 213.868529 35.663027 
L 218.855479 36.035987 
L 230.189457 36.858559 
L 232.456252 37.026855 
L 234.269689 37.191552 
L 236.083125 37.269643 
L 237.443203 37.418195 
L 240.163357 37.617917 
L 241.976794 37.776632 
L 255.124208 38.92587 
L 256.937644 39.064455 
L 257.844362 39.146222 
L 265.098108 39.810125 
L 266.458185 39.946894 
L 268.271622 40.05746 
L 269.17834 40.177545 
L 270.538417 40.262922 
L 275.978727 40.794342 
L 283.685831 41.515121 
L 284.592549 41.655325 
L 287.766063 41.941958 
L 289.5795 42.157758 
L 294.56645 42.691996 
L 297.286604 43.043705 
L 299.5534 43.336939 
L 318.594482 45.549078 
L 319.501201 45.712267 
L 321.314637 45.959044 
L 323.581432 46.305176 
L 327.208305 46.837617 
L 327.661664 46.853974 
L 328.568383 47.045541 
L 330.381819 47.320246 
L 332.195255 47.466458 
L 334.008692 47.793739 
L 336.728846 48.270344 
L 338.088924 48.474809 
L 339.449001 48.694255 
L 340.355719 48.909324 
L 341.715797 49.068841 
L 343.529233 49.386956 
L 352.143056 50.743036 
L 352.596415 50.953859 
L 360.756879 52.435827 
L 361.210238 52.59474 
L 362.116956 52.661279 
L 372.997575 54.886883 
L 373.450934 54.94924 
L 373.904293 55.136696 
L 374.811011 55.285364 
L 376.171089 55.63039 
L 377.077807 55.734823 
L 377.984525 55.997959 
L 382.518116 57.121228 
L 382.971475 57.357289 
L 383.878193 57.539957 
L 386.598348 58.208414 
L 387.051707 58.231351 
L 387.958425 58.571626 
L 389.318503 58.842028 
L 390.225221 58.968079 
L 390.67858 59.345489 
L 392.492016 59.684628 
L 396.118889 61.054565 
L 396.572248 61.087995 
L 401.105839 62.67644 
L 401.559198 62.784903 
L 402.465917 63.287963 
L 402.919276 63.339618 
L 404.279353 63.937218 
L 405.63943 64.340834 
L 406.999508 64.92352 
L 407.452867 64.975225 
L 409.266303 66.100896 
L 409.719662 66.182364 
L 410.62638 66.570524 
L 411.533099 66.806377 
L 411.986458 66.977088 
L 412.439817 67.33852 
L 413.346535 67.559041 
L 414.706612 68.24265 
L 415.613331 68.595394 
L 416.06669 68.698924 
L 416.520049 69.021725 
L 417.426767 69.255358 
L 417.880126 69.531818 
L 418.333485 70.041058 
L 418.786844 70.161715 
L 419.240203 70.536621 
L 420.600281 70.891116 
L 421.05364 71.235715 
L 421.960358 71.693516 
L 422.867076 72.298335 
L 423.773794 72.562137 
L 424.227154 73.168539 
L 425.133872 73.339454 
L 426.493949 73.963786 
L 426.947308 74.302563 
L 427.400667 74.317701 
L 427.854026 74.608031 
L 428.307386 74.721824 
L 428.760745 75.057053 
L 429.667463 75.275162 
L 430.574181 75.754212 
L 431.02754 75.878132 
L 431.480899 76.67968 
L 431.934258 76.741504 
L 432.387617 77.267942 
L 434.201054 78.335239 
L 434.654413 78.394941 
L 435.561131 79.128732 
L 436.01449 79.319503 
L 436.921209 79.869185 
L 437.374568 80.072278 
L 437.827927 80.604944 
L 438.734645 81.12258 
L 439.188004 81.705593 
L 439.641363 81.809104 
L 440.094722 82.154587 
L 440.548081 82.221772 
L 441.00144 83.002783 
L 441.4548 83.307764 
L 441.908159 83.355408 
L 442.361518 83.791678 
L 442.814877 83.941 
L 443.721595 84.556447 
L 444.174954 84.974616 
L 444.628313 85.10488 
L 445.535031 85.53557 
L 445.988391 86.1547 
L 446.44175 86.277772 
L 446.895109 86.621111 
L 447.801827 87.79071 
L 448.255186 87.826891 
L 449.161904 88.494237 
L 449.615263 89.102575 
L 451.4287 90.660408 
L 451.882059 90.828348 
L 452.335418 91.742548 
L 453.242136 92.144587 
L 453.695495 92.751092 
L 454.148854 93.616695 
L 455.055573 93.830864 
L 455.508932 94.635402 
L 456.41565 95.19884 
L 456.869009 96.126745 
L 457.322368 96.298206 
L 457.775727 97.170164 
L 459.135805 98.246251 
L 459.589164 99.085019 
L 460.042523 99.405688 
L 460.495882 100.095376 
L 460.949241 100.272612 
L 461.4026 101.173345 
L 461.855959 102.325069 
L 462.309318 102.613595 
L 463.216037 103.914532 
L 464.122755 104.744784 
L 464.576114 105.024232 
L 465.029473 105.650601 
L 465.482832 106.775942 
L 466.38955 107.672937 
L 466.842909 108.805161 
L 467.749628 109.659234 
L 468.202987 110.364479 
L 468.656346 111.550967 
L 469.109705 111.605305 
L 470.016423 112.415673 
L 470.923141 113.585635 
L 471.82986 114.782289 
L 472.283219 115.206321 
L 472.736578 116.008507 
L 473.189937 117.127655 
L 474.550014 119.388036 
L 475.003373 119.760904 
L 475.456732 119.849678 
L 476.363451 121.912118 
L 476.81681 122.293525 
L 477.270169 123.957647 
L 478.176887 124.724542 
L 478.630246 125.698534 
L 479.083605 126.352457 
L 479.990323 128.597706 
L 481.350401 131.615986 
L 481.80376 133.571871 
L 482.257119 134.670458 
L 483.163837 135.877365 
L 483.617196 136.868546 
L 484.070555 137.373498 
L 485.430633 140.12564 
L 485.883992 141.213752 
L 486.337351 141.843343 
L 486.79071 143.620812 
L 487.697428 145.72085 
L 488.604146 147.332967 
L 489.510865 149.950819 
L 489.964224 150.326915 
L 490.417583 151.33079 
L 490.870942 152.710354 
L 491.324301 153.249912 
L 491.77766 154.93395 
L 492.231019 155.705362 
L 492.684378 156.783394 
L 493.137737 158.525558 
L 493.591097 162.113015 
L 494.044456 162.197596 
L 494.497815 164.376941 
L 494.951174 164.740244 
L 495.404533 166.012086 
L 496.311251 169.236081 
L 496.76461 169.86479 
L 497.671328 172.366931 
L 498.124688 172.834801 
L 498.578047 174.160747 
L 499.484765 179.490277 
L 499.938124 180.296915 
L 500.391483 181.907211 
L 500.844842 182.545847 
L 501.75156 186.731222 
L 502.20492 187.836922 
L 502.658279 189.48609 
L 503.111638 189.898122 
L 503.564997 192.672377 
L 504.018356 192.988393 
L 504.471715 195.425186 
L 504.925074 197.13101 
L 505.378433 198.149253 
L 506.285151 201.884286 
L 506.738511 203.151286 
L 507.19187 205.156331 
L 507.645229 206.024122 
L 508.551947 209.529808 
L 509.005306 210.20404 
L 509.458665 212.897273 
L 509.912024 214.418023 
L 510.818743 219.334276 
L 511.272102 222.824126 
L 511.725461 223.556817 
L 512.17882 223.97224 
L 512.632179 228.196865 
L 513.085538 228.74168 
L 513.538897 229.814019 
L 513.992256 230.0835 
L 514.445615 232.071864 
L 514.898974 235.674325 
L 515.352334 236.182456 
L 515.805693 237.302644 
L 516.259052 240.811943 
L 517.16577 242.176683 
L 517.619129 245.380592 
L 518.072488 245.750213 
L 518.525847 246.806875 
L 518.979206 250.450468 
L 519.432565 250.66106 
L 519.885925 252.408231 
L 520.339284 256.175418 
L 520.792643 256.671055 
L 521.246002 259.3128 
L 523.059438 266.159742 
L 523.966157 270.472717 
L 524.872875 272.166996 
L 525.326234 274.279374 
L 525.779593 275.268469 
L 526.232952 276.747303 
L 526.686311 280.295542 
L 527.13967 280.433114 
L 527.593029 283.035893 
L 528.046388 284.231092 
L 528.953107 288.824538 
L 529.406466 289.742986 
L 529.859825 291.737167 
L 530.766543 294.960997 
L 531.219902 295.400462 
L 532.57998 302.240405 
L 533.033339 302.350445 
L 533.486698 305.896379 
L 533.940057 306.289121 
L 533.940057 306.289121 
" clip-path="url(#p6ba9a58b5d)" style="fill: none; stroke: #4c72b0; stroke-width: 1.5; stroke-linecap: round"/>
   </g>
   <g id="patch_3">
    <path d="M 46.964375 306.534375 
L 46.964375 21.935625 
" style="fill: none; stroke: #262626; stroke-width: 1.25; stroke-linejoin: miter; stroke-linecap: square"/>
   </g>
   <g id="patch_4">
    <path d="M 557.129375 306.534375 
L 557.129375 21.935625 
" style="fill: none; stroke: #262626; stroke-width: 1.25; stroke-linejoin: miter; stroke-linecap: square"/>
   </g>
   <g id="patch_5">
    <path d="M 46.964375 306.534375 
L 557.129375 306.534375 
" style="fill: none; stroke: #262626; stroke-width: 1.25; stroke-linejoin: miter; stroke-linecap: square"/>
   </g>
   <g id="patch_6">
    <path d="M 46.964375 21.935625 
L 557.129375 21.935625 
" style="fill: none; stroke: #262626; stroke-width: 1.25; stroke-linejoin: miter; stroke-linecap: square"/>
   </g>
   <g id="text_15">
    <!-- Canonical-correlation spectra -->
    <g style="fill: #262626" transform="translate(224.014063 15.935625) scale(0.12 -0.12)">
     <defs>
      <path id="ArialMT-2d" d="M 203 1375 
L 203 1941 
L 1931 1941 
L 1931 1375 
L 203 1375 
z
" transform="scale(0.015625)"/>
      <path id="ArialMT-73" d="M 197 991 
L 753 1078 
Q 800 744 1014 566 
Q 1228 388 1613 388 
Q 2000 388 2187 545 
Q 2375 703 2375 916 
Q 2375 1106 2209 1216 
Q 2094 1291 1634 1406 
Q 1016 1563 777 1677 
Q 538 1791 414 1992 
Q 291 2194 291 2438 
Q 291 2659 392 2848 
Q 494 3038 669 3163 
Q 800 3259 1026 3326 
Q 1253 3394 1513 3394 
Q 1903 3394 2198 3281 
Q 2494 3169 2634 2976 
Q 2775 2784 2828 2463 
L 2278 2388 
Q 2241 2644 2061 2787 
Q 1881 2931 1553 2931 
Q 1166 2931 1000 2803 
Q 834 2675 834 2503 
Q 834 2394 903 2306 
Q 972 2216 1119 2156 
Q 1203 2125 1616 2013 
Q 2213 1853 2448 1751 
Q 2684 1650 2818 1456 
Q 2953 1263 2953 975 
Q 2953 694 2789 445 
Q 2625 197 2315 61 
Q 2006 -75 1616 -75 
Q 969 -75 630 194 
Q 291 463 197 991 
z
" transform="scale(0.015625)"/>
     </defs>
     <use xlink:href="#ArialMT-43"/>
     <use xlink:href="#ArialMT-61" x="72.216797"/>
     <use xlink:href="#ArialMT-6e" x="127.832031"/>
     <use xlink:href="#ArialMT-6f" x="183.447266"/>
     <use xlink:href="#ArialMT-6e" x="239.0625"/>
     <use xlink:href="#ArialMT-69" x="294.677734"/>
     <use xlink:href="#ArialMT-63" x="316.894531"/>
     <use xlink:href="#ArialMT-61" x="366.894531"/>
     <use xlink:href="#ArialMT-6c" x="422.509766"/>
     <use xlink:href="#ArialMT-2d" x="444.726562"/>
     <use xlink:href="#ArialMT-63" x="478.027344"/>
     <use xlink:href="#ArialMT-6f" x="528.027344"/>
     <use xlink:href="#ArialMT-72" x="583.642578"/>
     <use xlink:href="#ArialMT-72" x="616.943359"/>
     <use xlink:href="#ArialMT-65" x="650.244141"/>
     <use xlink:href="#ArialMT-6c" x="705.859375"/>
     <use xlink:href="#ArialMT-61" x="728.076172"/>
     <use xlink:href="#ArialMT-74" x="783.691406"/>
     <use xlink:href="#ArialMT-69" x="811.474609"/>
     <use xlink:href="#ArialMT-6f" x="833.691406"/>
     <use xlink:href="#ArialMT-6e" x="889.306641"/>
     <use xlink:href="#ArialMT-20" x="944.921875"/>
     <use xlink:href="#ArialMT-73" x="972.705078"/>
     <use xlink:href="#ArialMT-70" x="1022.705078"/>
     <use xlink:href="#ArialMT-65" x="1078.320312"/>
     <use xlink:href="#ArialMT-63" x="1133.935547"/>
     <use xlink:href="#ArialMT-74" x="1183.935547"/>
     <use xlink:href="#ArialMT-72" x="1211.71875"/>
     <use xlink:href="#ArialMT-61" x="1245.019531"/>
    </g>
   </g>
  </g>
 </g>
 <defs>
  <clipPath id="p6ba9a58b5d">
   <rect x="46.964375" y="21.935625" width="510.165" height="284.59875"/>
  </clipPath>
 </defs>
</svg>
