<?xml version="1.0" encoding="utf-8" standalone="no"?>
<!DOCTYPE svg PUBLIC "-//W3C//DTD SVG 1.1//EN"
  "http://www.w3.org/Graphics/SVG/1.1/DTD/svg11.dtd">
<svg xmlns:xlink="http://www.w3.org/1999/xlink" width="491.731562pt" height="347.997109pt" viewBox="0 0 491.731562 347.997109" xmlns="http://www.w3.org/2000/svg" version="1.1">
 <metadata>
  <rdf:RDF xmlns:dc="http://purl.org/dc/elements/1.1/" xmlns:cc="http://creativecommons.org/ns#" xmlns:rdf="http://www.w3.org/1999/02/22-rdf-syntax-ns#">
   <cc:Work>
    <dc:type rdf:resource="http://purl.org/dc/dcmitype/StillImage"/>
    <dc:date>2026-07-19T11:27:31.112669</dc:date>
    <dc:format>image/svg+xml</dc:format>
    <dc:creator>
     <cc:Agent>
      <dc:title>Matplotlib v3.11.1, https://matplotlib.org/</dc:title>
     </cc:Agent>
    </dc:creator>
   </cc:Work>
  </rdf:RDF>
 </metadata>
 <defs>
  <style type="text/css">*{stroke-linejoin: round; stroke-linecap: butt}</style>
 </defs>
 <g id="figure_1">
  <g id="patch_1">
   <path d="M 0 347.997109 
L 491.731562 347.997109 
L 491.731562 0 
L 0 0 
z
" style="fill: #ffffff"/>
  </g>
  <g id="axes_1">
   <g id="patch_2">
    <path d="M 50.194375 304.295312 
L 484.531563 304.295312 
L 484.531563 22.318125 
L 50.194375 22.318125 
z
" style="fill: #ffffff"/>
   </g>
   <g id="matplotlib.axis_1">
    <g id="xtick_1">
     <g id="text_1">
      <!-- matched -->
      <g style="fill: #262626" transform="translate(134.509063 322.153594) scale(0.11 -0.11)">
       <defs>
        <path id="DejaVuSans-50" d="M 3328 2828 
Q 3544 3216 3844 3400 
Q 4144 3584 4550 3584 
Q 5097 3584 5394 3201 
Q 5691 2819 5691 2113 
L 5691 0 
L 5113 0 
L 5113 2094 
Q 5113 2597 4934 2840 
Q 4756 3084 4391 3084 
Q 3944 3084 3684 2787 
Q 3425 2491 3425 1978 
L 3425 0 
L 2847 0 
L 2847 2094 
Q 2847 2600 2669 2842 
Q 2491 3084 2119 3084 
Q 1678 3084 1418 2786 
Q 1159 2488 1159 1978 
L 1159 0 
L 581 0 
L 581 3500 
L 1159 3500 
L 1159 2956 
Q 1356 3278 1631 3431 
Q 1906 3584 2284 3584 
Q 2666 3584 2933 3390 
Q 3200 3197 3328 2828 
z
" transform="scale(0.015625)"/>
        <path id="DejaVuSans-44" d="M 2194 1759 
Q 1497 1759 1228 1600 
Q 959 1441 959 1056 
Q 959 750 1161 570 
Q 1363 391 1709 391 
Q 2188 391 2477 730 
Q 2766 1069 2766 1631 
L 2766 1759 
L 2194 1759 
z
M 3341 1997 
L 3341 0 
L 2766 0 
L 2766 531 
Q 2569 213 2275 61 
Q 1981 -91 1556 -91 
Q 1019 -91 701 211 
Q 384 513 384 1019 
Q 384 1609 779 1909 
Q 1175 2209 1959 2209 
L 2766 2209 
L 2766 2266 
Q 2766 2663 2505 2880 
Q 2244 3097 1772 3097 
Q 1472 3097 1187 3025 
Q 903 2953 641 2809 
L 641 3341 
Q 956 3463 1253 3523 
Q 1550 3584 1831 3584 
Q 2591 3584 2966 3190 
Q 3341 2797 3341 1997 
z
" transform="scale(0.015625)"/>
        <path id="DejaVuSans-57" d="M 1172 4494 
L 1172 3500 
L 2356 3500 
L 2356 3053 
L 1172 3053 
L 1172 1153 
Q 1172 725 1289 603 
Q 1406 481 1766 481 
L 2356 481 
L 2356 0 
L 1766 0 
Q 1100 0 847 248 
Q 594 497 594 1153 
L 594 3053 
L 172 3053 
L 172 3500 
L 594 3500 
L 594 4494 
L 1172 4494 
z
" transform="scale(0.015625)"/>
        <path id="DejaVuSans-46" d="M 3122 3366 
L 3122 2828 
Q 2878 2963 2633 3030 
Q 2388 3097 2138 3097 
Q 1578 3097 1268 2742 
Q 959 2388 959 1747 
Q 959 1106 1268 751 
Q 1578 397 2138 397 
Q 2388 397 2633 464 
Q 2878 531 3122 666 
L 3122 134 
Q 2881 22 2623 -34 
Q 2366 -91 2075 -91 
Q 1284 -91 818 406 
Q 353 903 353 1747 
Q 353 2603 823 3093 
Q 1294 3584 2113 3584 
Q 2378 3584 2631 3529 
Q 2884 3475 3122 3366 
z
" transform="scale(0.015625)"/>
        <path id="DejaVuSans-4b" d="M 3513 2113 
L 3513 0 
L 2938 0 
L 2938 2094 
Q 2938 2591 2744 2837 
Q 2550 3084 2163 3084 
Q 1697 3084 1428 2787 
Q 1159 2491 1159 1978 
L 1159 0 
L 581 0 
L 581 4863 
L 1159 4863 
L 1159 2956 
Q 1366 3272 1645 3428 
Q 1925 3584 2291 3584 
Q 2894 3584 3203 3211 
Q 3513 2838 3513 2113 
z
" transform="scale(0.015625)"/>
        <path id="DejaVuSans-48" d="M 3597 1894 
L 3597 1613 
L 953 1613 
Q 991 1019 1311 708 
Q 1631 397 2203 397 
Q 2534 397 2845 478 
Q 3156 559 3463 722 
L 3463 178 
Q 3153 47 2828 -22 
Q 2503 -91 2169 -91 
Q 1331 -91 842 396 
Q 353 884 353 1716 
Q 353 2575 817 3079 
Q 1281 3584 2069 3584 
Q 2775 3584 3186 3129 
Q 3597 2675 3597 1894 
z
M 3022 2063 
Q 3016 2534 2758 2815 
Q 2500 3097 2075 3097 
Q 1594 3097 1305 2825 
Q 1016 2553 972 2059 
L 3022 2063 
z
" transform="scale(0.015625)"/>
        <path id="DejaVuSans-47" d="M 2906 2969 
L 2906 4863 
L 3481 4863 
L 3481 0 
L 2906 0 
L 2906 525 
Q 2725 213 2448 61 
Q 2172 -91 1784 -91 
Q 1150 -91 751 415 
Q 353 922 353 1747 
Q 353 2572 751 3078 
Q 1150 3584 1784 3584 
Q 2172 3584 2448 3432 
Q 2725 3281 2906 2969 
z
M 947 1747 
Q 947 1113 1208 752 
Q 1469 391 1925 391 
Q 2381 391 2643 752 
Q 2906 1113 2906 1747 
Q 2906 2381 2643 2742 
Q 2381 3103 1925 3103 
Q 1469 3103 1208 2742 
Q 947 2381 947 1747 
z
" transform="scale(0.015625)"/>
       </defs>
       <use xlink:href="#DejaVuSans-50"/>
       <use xlink:href="#DejaVuSans-44" transform="translate(97.40625 0)"/>
       <use xlink:href="#DejaVuSans-57" transform="translate(158.6875 0)"/>
       <use xlink:href="#DejaVuSans-46" transform="translate(197.890625 0)"/>
       <use xlink:href="#DejaVuSans-4b" transform="translate(252.875 0)"/>
       <use xlink:href="#DejaVuSans-48" transform="translate(316.25 0)"/>
       <use xlink:href="#DejaVuSans-47" transform="translate(377.78125 0)"/>
      </g>
     </g>
    </g>
    <g id="xtick_2">
     <g id="text_2">
      <!-- random -->
      <g style="fill: #262626" transform="translate(354.615859 322.153594) scale(0.11 -0.11)">
       <defs>
        <path id="DejaVuSans-55" d="M 2631 2963 
Q 2534 3019 2420 3045 
Q 2306 3072 2169 3072 
Q 1681 3072 1420 2755 
Q 1159 2438 1159 1844 
L 1159 0 
L 581 0 
L 581 3500 
L 1159 3500 
L 1159 2956 
Q 1341 3275 1631 3429 
Q 1922 3584 2338 3584 
Q 2397 3584 2469 3576 
Q 2541 3569 2628 3553 
L 2631 2963 
z
" transform="scale(0.015625)"/>
        <path id="DejaVuSans-51" d="M 3513 2113 
L 3513 0 
L 2938 0 
L 2938 2094 
Q 2938 2591 2744 2837 
Q 2550 3084 2163 3084 
Q 1697 3084 1428 2787 
Q 1159 2491 1159 1978 
L 1159 0 
L 581 0 
L 581 3500 
L 1159 3500 
L 1159 2956 
Q 1366 3272 1645 3428 
Q 1925 3584 2291 3584 
Q 2894 3584 3203 3211 
Q 3513 2838 3513 2113 
z
" transform="scale(0.015625)"/>
        <path id="DejaVuSans-52" d="M 1959 3097 
Q 1497 3097 1228 2736 
Q 959 2375 959 1747 
Q 959 1119 1226 758 
Q 1494 397 1959 397 
Q 2419 397 2687 759 
Q 2956 1122 2956 1747 
Q 2956 2369 2687 2733 
Q 2419 3097 1959 3097 
z
M 1959 3584 
Q 2709 3584 3137 3096 
Q 3566 2609 3566 1747 
Q 3566 888 3137 398 
Q 2709 -91 1959 -91 
Q 1206 -91 779 398 
Q 353 888 353 1747 
Q 353 2609 779 3096 
Q 1206 3584 1959 3584 
z
" transform="scale(0.015625)"/>
       </defs>
       <use xlink:href="#DejaVuSans-55"/>
       <use xlink:href="#DejaVuSans-44" transform="translate(41.109375 0)"/>
       <use xlink:href="#DejaVuSans-51" transform="translate(102.390625 0)"/>
       <use xlink:href="#DejaVuSans-47" transform="translate(165.765625 0)"/>
       <use xlink:href="#DejaVuSans-52" transform="translate(229.25 0)"/>
       <use xlink:href="#DejaVuSans-50" transform="translate(290.4375 0)"/>
      </g>
     </g>
    </g>
    <g id="text_3">
     <!-- pair_type -->
     <g style="fill: #262626" transform="translate(239.339219 337.914297) scale(0.12 -0.12)">
      <defs>
       <path id="DejaVuSans-53" d="M 1159 525 
L 1159 -1331 
L 581 -1331 
L 581 3500 
L 1159 3500 
L 1159 2969 
Q 1341 3281 1617 3432 
Q 1894 3584 2278 3584 
Q 2916 3584 3314 3078 
Q 3713 2572 3713 1747 
Q 3713 922 3314 415 
Q 2916 -91 2278 -91 
Q 1894 -91 1617 61 
Q 1341 213 1159 525 
z
M 3116 1747 
Q 3116 2381 2855 2742 
Q 2594 3103 2138 3103 
Q 1681 3103 1420 2742 
Q 1159 2381 1159 1747 
Q 1159 1113 1420 752 
Q 1681 391 2138 391 
Q 2594 391 2855 752 
Q 3116 1113 3116 1747 
z
" transform="scale(0.015625)"/>
       <path id="DejaVuSans-4c" d="M 603 3500 
L 1178 3500 
L 1178 0 
L 603 0 
L 603 3500 
z
M 603 4863 
L 1178 4863 
L 1178 4134 
L 603 4134 
L 603 4863 
z
" transform="scale(0.015625)"/>
       <path id="DejaVuSans-42" d="M 3263 -1063 
L 3263 -1509 
L -63 -1509 
L -63 -1063 
L 3263 -1063 
z
" transform="scale(0.015625)"/>
       <path id="DejaVuSans-5c" d="M 2059 -325 
Q 1816 -950 1584 -1140 
Q 1353 -1331 966 -1331 
L 506 -1331 
L 506 -850 
L 844 -850 
Q 1081 -850 1212 -737 
Q 1344 -625 1503 -206 
L 1606 56 
L 191 3500 
L 800 3500 
L 1894 763 
L 2988 3500 
L 3597 3500 
L 2059 -325 
z
" transform="scale(0.015625)"/>
      </defs>
      <use xlink:href="#DejaVuSans-53"/>
      <use xlink:href="#DejaVuSans-44" transform="translate(63.484375 0)"/>
      <use xlink:href="#DejaVuSans-4c" transform="translate(124.765625 0)"/>
      <use xlink:href="#DejaVuSans-55" transform="translate(152.546875 0)"/>
      <use xlink:href="#DejaVuSans-42" transform="translate(193.65625 0)"/>
      <use xlink:href="#DejaVuSans-57" transform="translate(243.65625 0)"/>
      <use xlink:href="#DejaVuSans-5c" transform="translate(282.859375 0)"/>
      <use xlink:href="#DejaVuSans-53" transform="translate(342.046875 0)"/>
      <use xlink:href="#DejaVuSans-48" transform="translate(405.53125 0)"/>
     </g>
    </g>
   </g>
   <g id="matplotlib.axis_2">
    <g id="ytick_1">
     <g id="line2d_1">
      <path d="M 50.194375 291.478168 
L 484.531563 291.478168 
" clip-path="url(#p27884f79e6)" style="fill: none; stroke: #cccccc; stroke-linecap: round"/>
     </g>
     <g id="text_4">
      <!-- 0.0 -->
      <g style="fill: #262626" transform="translate(23.200938 295.656879) scale(0.11 -0.11)">
       <defs>
        <path id="DejaVuSans-13" d="M 2034 4250 
Q 1547 4250 1301 3770 
Q 1056 3291 1056 2328 
Q 1056 1369 1301 889 
Q 1547 409 2034 409 
Q 2525 409 2770 889 
Q 3016 1369 3016 2328 
Q 3016 3291 2770 3770 
Q 2525 4250 2034 4250 
z
M 2034 4750 
Q 2819 4750 3233 4129 
Q 3647 3509 3647 2328 
Q 3647 1150 3233 529 
Q 2819 -91 2034 -91 
Q 1250 -91 836 529 
Q 422 1150 422 2328 
Q 422 3509 836 4129 
Q 1250 4750 2034 4750 
z
" transform="scale(0.015625)"/>
        <path id="DejaVuSans-11" d="M 684 794 
L 1344 794 
L 1344 0 
L 684 0 
L 684 794 
z
" transform="scale(0.015625)"/>
       </defs>
       <use xlink:href="#DejaVuSans-13"/>
       <use xlink:href="#DejaVuSans-11" transform="translate(63.625 0)"/>
       <use xlink:href="#DejaVuSans-13" transform="translate(95.40625 0)"/>
      </g>
     </g>
    </g>
    <g id="ytick_2">
     <g id="line2d_2">
      <path d="M 50.194375 240.152917 
L 484.531563 240.152917 
" clip-path="url(#p27884f79e6)" style="fill: none; stroke: #cccccc; stroke-linecap: round"/>
     </g>
     <g id="text_5">
      <!-- 0.2 -->
      <g style="fill: #262626" transform="translate(23.200938 244.331628) scale(0.11 -0.11)">
       <defs>
        <path id="DejaVuSans-15" d="M 1228 531 
L 3431 531 
L 3431 0 
L 469 0 
L 469 531 
Q 828 903 1448 1529 
Q 2069 2156 2228 2338 
Q 2531 2678 2651 2914 
Q 2772 3150 2772 3378 
Q 2772 3750 2511 3984 
Q 2250 4219 1831 4219 
Q 1534 4219 1204 4116 
Q 875 4013 500 3803 
L 500 4441 
Q 881 4594 1212 4672 
Q 1544 4750 1819 4750 
Q 2544 4750 2975 4387 
Q 3406 4025 3406 3419 
Q 3406 3131 3298 2873 
Q 3191 2616 2906 2266 
Q 2828 2175 2409 1742 
Q 1991 1309 1228 531 
z
" transform="scale(0.015625)"/>
       </defs>
       <use xlink:href="#DejaVuSans-13"/>
       <use xlink:href="#DejaVuSans-11" transform="translate(63.625 0)"/>
       <use xlink:href="#DejaVuSans-15" transform="translate(95.40625 0)"/>
      </g>
     </g>
    </g>
    <g id="ytick_3">
     <g id="line2d_3">
      <path d="M 50.194375 188.827666 
L 484.531563 188.827666 
" clip-path="url(#p27884f79e6)" style="fill: none; stroke: #cccccc; stroke-linecap: round"/>
     </g>
     <g id="text_6">
      <!-- 0.4 -->
      <g style="fill: #262626" transform="translate(23.200938 193.006377) scale(0.11 -0.11)">
       <defs>
        <path id="DejaVuSans-17" d="M 2419 4116 
L 825 1625 
L 2419 1625 
L 2419 4116 
z
M 2253 4666 
L 3047 4666 
L 3047 1625 
L 3713 1625 
L 3713 1100 
L 3047 1100 
L 3047 0 
L 2419 0 
L 2419 1100 
L 313 1100 
L 313 1709 
L 2253 4666 
z
" transform="scale(0.015625)"/>
       </defs>
       <use xlink:href="#DejaVuSans-13"/>
       <use xlink:href="#DejaVuSans-11" transform="translate(63.625 0)"/>
       <use xlink:href="#DejaVuSans-17" transform="translate(95.40625 0)"/>
      </g>
     </g>
    </g>
    <g id="ytick_4">
     <g id="line2d_4">
      <path d="M 50.194375 137.502415 
L 484.531563 137.502415 
" clip-path="url(#p27884f79e6)" style="fill: none; stroke: #cccccc; stroke-linecap: round"/>
     </g>
     <g id="text_7">
      <!-- 0.6 -->
      <g style="fill: #262626" transform="translate(23.200938 141.681126) scale(0.11 -0.11)">
       <defs>
        <path id="DejaVuSans-19" d="M 2113 2584 
Q 1688 2584 1439 2293 
Q 1191 2003 1191 1497 
Q 1191 994 1439 701 
Q 1688 409 2113 409 
Q 2538 409 2786 701 
Q 3034 994 3034 1497 
Q 3034 2003 2786 2293 
Q 2538 2584 2113 2584 
z
M 3366 4563 
L 3366 3988 
Q 3128 4100 2886 4159 
Q 2644 4219 2406 4219 
Q 1781 4219 1451 3797 
Q 1122 3375 1075 2522 
Q 1259 2794 1537 2939 
Q 1816 3084 2150 3084 
Q 2853 3084 3261 2657 
Q 3669 2231 3669 1497 
Q 3669 778 3244 343 
Q 2819 -91 2113 -91 
Q 1303 -91 875 529 
Q 447 1150 447 2328 
Q 447 3434 972 4092 
Q 1497 4750 2381 4750 
Q 2619 4750 2861 4703 
Q 3103 4656 3366 4563 
z
" transform="scale(0.015625)"/>
       </defs>
       <use xlink:href="#DejaVuSans-13"/>
       <use xlink:href="#DejaVuSans-11" transform="translate(63.625 0)"/>
       <use xlink:href="#DejaVuSans-19" transform="translate(95.40625 0)"/>
      </g>
     </g>
    </g>
    <g id="ytick_5">
     <g id="line2d_5">
      <path d="M 50.194375 86.177164 
L 484.531563 86.177164 
" clip-path="url(#p27884f79e6)" style="fill: none; stroke: #cccccc; stroke-linecap: round"/>
     </g>
     <g id="text_8">
      <!-- 0.8 -->
      <g style="fill: #262626" transform="translate(23.200938 90.355875) scale(0.11 -0.11)">
       <defs>
        <path id="DejaVuSans-1b" d="M 2034 2216 
Q 1584 2216 1326 1975 
Q 1069 1734 1069 1313 
Q 1069 891 1326 650 
Q 1584 409 2034 409 
Q 2484 409 2743 651 
Q 3003 894 3003 1313 
Q 3003 1734 2745 1975 
Q 2488 2216 2034 2216 
z
M 1403 2484 
Q 997 2584 770 2862 
Q 544 3141 544 3541 
Q 544 4100 942 4425 
Q 1341 4750 2034 4750 
Q 2731 4750 3128 4425 
Q 3525 4100 3525 3541 
Q 3525 3141 3298 2862 
Q 3072 2584 2669 2484 
Q 3125 2378 3379 2068 
Q 3634 1759 3634 1313 
Q 3634 634 3220 271 
Q 2806 -91 2034 -91 
Q 1263 -91 848 271 
Q 434 634 434 1313 
Q 434 1759 690 2068 
Q 947 2378 1403 2484 
z
M 1172 3481 
Q 1172 3119 1398 2916 
Q 1625 2713 2034 2713 
Q 2441 2713 2670 2916 
Q 2900 3119 2900 3481 
Q 2900 3844 2670 4047 
Q 2441 4250 2034 4250 
Q 1625 4250 1398 4047 
Q 1172 3844 1172 3481 
z
" transform="scale(0.015625)"/>
       </defs>
       <use xlink:href="#DejaVuSans-13"/>
       <use xlink:href="#DejaVuSans-11" transform="translate(63.625 0)"/>
       <use xlink:href="#DejaVuSans-1b" transform="translate(95.40625 0)"/>
      </g>
     </g>
    </g>
    <g id="ytick_6">
     <g id="line2d_6">
      <path d="M 50.194375 34.851914 
L 484.531563 34.851914 
" clip-path="url(#p27884f79e6)" style="fill: none; stroke: #cccccc; stroke-linecap: round"/>
     </g>
     <g id="text_9">
      <!-- 1.0 -->
      <g style="fill: #262626" transform="translate(23.200938 39.030625) scale(0.11 -0.11)">
       <defs>
        <path id="DejaVuSans-14" d="M 794 531 
L 1825 531 
L 1825 4091 
L 703 3866 
L 703 4441 
L 1819 4666 
L 2450 4666 
L 2450 531 
L 3481 531 
L 3481 0 
L 794 0 
L 794 531 
z
" transform="scale(0.015625)"/>
       </defs>
       <use xlink:href="#DejaVuSans-14"/>
       <use xlink:href="#DejaVuSans-11" transform="translate(63.625 0)"/>
       <use xlink:href="#DejaVuSans-13" transform="translate(95.40625 0)"/>
      </g>
     </g>
    </g>
    <g id="text_10">
     <!-- jaccard -->
     <g style="fill: #262626" transform="translate(16.318125 185.096094) rotate(-90) scale(0.12 -0.12)">
      <defs>
       <path id="DejaVuSans-4d" d="M 603 3500 
L 1178 3500 
L 1178 -63 
Q 1178 -731 923 -1031 
Q 669 -1331 103 -1331 
L -116 -1331 
L -116 -844 
L 38 -844 
Q 366 -844 484 -692 
Q 603 -541 603 -63 
L 603 3500 
z
M 603 4863 
L 1178 4863 
L 1178 4134 
L 603 4134 
L 603 4863 
z
" transform="scale(0.015625)"/>
      </defs>
      <use xlink:href="#DejaVuSans-4d"/>
      <use xlink:href="#DejaVuSans-44" transform="translate(27.78125 0)"/>
      <use xlink:href="#DejaVuSans-46" transform="translate(89.0625 0)"/>
      <use xlink:href="#DejaVuSans-46" transform="translate(144.046875 0)"/>
      <use xlink:href="#DejaVuSans-44" transform="translate(199.03125 0)"/>
      <use xlink:href="#DejaVuSans-55" transform="translate(260.3125 0)"/>
      <use xlink:href="#DejaVuSans-47" transform="translate(299.671875 0)"/>
     </g>
    </g>
   </g>
   <g id="FillBetweenPolyCollection_1">
    <defs>
     <path id="m51a1933b10" d="M 160.090513 -56.518942 
L 157.46683 -56.518942 
L 157.40816 -59.108264 
L 157.504058 -61.697586 
L 157.701079 -64.286908 
L 157.92355 -66.876231 
L 158.113673 -69.465553 
L 158.2487 -72.054875 
L 158.333422 -74.644197 
L 158.383471 -77.233519 
L 158.413187 -79.822842 
L 158.431569 -82.412164 
L 158.443235 -85.001486 
L 158.450632 -87.590808 
L 158.455557 -90.18013 
L 158.459621 -92.769453 
L 158.46405 -95.358775 
L 158.46939 -97.948097 
L 158.475547 -100.537419 
L 158.482167 -103.126741 
L 158.489069 -105.716064 
L 158.496365 -108.305386 
L 158.504243 -110.894708 
L 158.512651 -113.48403 
L 158.521176 -116.073352 
L 158.529231 -118.662675 
L 158.536404 -121.251997 
L 158.542742 -123.841319 
L 158.548777 -126.430641 
L 158.555244 -129.019963 
L 158.562633 -131.609286 
L 158.57088 -134.198608 
L 158.579436 -136.78793 
L 158.587653 -139.377252 
L 158.595231 -141.966574 
L 158.602375 -144.555897 
L 158.609593 -147.145219 
L 158.617298 -149.734541 
L 158.625472 -152.323863 
L 158.633598 -154.913185 
L 158.640879 -157.502508 
L 158.646632 -160.09183 
L 158.65064 -162.681152 
L 158.653281 -165.270474 
L 158.655356 -167.859796 
L 158.657726 -170.449119 
L 158.660966 -173.038441 
L 158.665193 -175.627763 
L 158.670125 -178.217085 
L 158.675273 -180.806407 
L 158.680167 -183.39573 
L 158.684516 -185.985052 
L 158.688276 -188.574374 
L 158.691617 -191.163696 
L 158.69485 -193.753018 
L 158.698313 -196.342341 
L 158.702253 -198.931663 
L 158.706725 -201.520985 
L 158.711546 -204.110307 
L 158.71635 -206.699629 
L 158.720743 -209.288952 
L 158.724469 -211.878274 
L 158.727501 -214.467596 
L 158.729981 -217.056918 
L 158.732084 -219.64624 
L 158.733919 -222.235563 
L 158.735529 -224.824885 
L 158.736962 -227.414207 
L 158.73833 -230.003529 
L 158.739794 -232.592851 
L 158.741496 -235.182174 
L 158.743489 -237.771496 
L 158.745711 -240.360818 
L 158.747995 -242.95014 
L 158.750136 -245.539462 
L 158.751981 -248.128785 
L 158.753496 -250.718107 
L 158.754768 -253.307429 
L 158.755949 -255.896751 
L 158.757152 -258.486073 
L 158.758401 -261.075396 
L 158.759644 -263.664718 
L 158.760822 -266.25404 
L 158.761926 -268.843362 
L 158.762975 -271.432684 
L 158.763965 -274.022006 
L 158.764847 -276.611329 
L 158.76558 -279.200651 
L 158.766219 -281.789973 
L 158.766927 -284.379295 
L 158.767892 -286.968617 
L 158.769205 -289.55794 
L 158.770781 -292.147262 
L 158.7724 -294.736584 
L 158.773825 -297.325906 
L 158.774924 -299.915228 
L 158.775709 -302.504551 
L 158.776287 -305.093873 
L 158.776771 -307.683195 
L 158.777222 -310.272517 
L 158.777642 -312.861839 
L 158.779702 -312.861839 
L 158.779702 -312.861839 
L 158.780121 -310.272517 
L 158.780573 -307.683195 
L 158.781057 -305.093873 
L 158.781635 -302.504551 
L 158.78242 -299.915228 
L 158.783519 -297.325906 
L 158.784944 -294.736584 
L 158.786562 -292.147262 
L 158.788138 -289.55794 
L 158.789451 -286.968617 
L 158.790417 -284.379295 
L 158.791125 -281.789973 
L 158.791764 -279.200651 
L 158.792497 -276.611329 
L 158.793378 -274.022006 
L 158.794369 -271.432684 
L 158.795418 -268.843362 
L 158.796522 -266.25404 
L 158.7977 -263.664718 
L 158.798943 -261.075396 
L 158.800192 -258.486073 
L 158.801395 -255.896751 
L 158.802575 -253.307429 
L 158.803848 -250.718107 
L 158.805363 -248.128785 
L 158.807208 -245.539462 
L 158.809349 -242.95014 
L 158.811632 -240.360818 
L 158.813854 -237.771496 
L 158.815848 -235.182174 
L 158.817549 -232.592851 
L 158.819014 -230.003529 
L 158.820382 -227.414207 
L 158.821815 -224.824885 
L 158.823425 -222.235563 
L 158.82526 -219.64624 
L 158.827363 -217.056918 
L 158.829842 -214.467596 
L 158.832875 -211.878274 
L 158.836601 -209.288952 
L 158.840993 -206.699629 
L 158.845798 -204.110307 
L 158.850619 -201.520985 
L 158.855091 -198.931663 
L 158.859031 -196.342341 
L 158.862493 -193.753018 
L 158.865727 -191.163696 
L 158.869068 -188.574374 
L 158.872827 -185.985052 
L 158.877177 -183.39573 
L 158.882071 -180.806407 
L 158.887219 -178.217085 
L 158.892151 -175.627763 
L 158.896378 -173.038441 
L 158.899617 -170.449119 
L 158.901988 -167.859796 
L 158.904063 -165.270474 
L 158.906704 -162.681152 
L 158.910712 -160.09183 
L 158.916464 -157.502508 
L 158.923746 -154.913185 
L 158.931872 -152.323863 
L 158.940046 -149.734541 
L 158.947751 -147.145219 
L 158.954969 -144.555897 
L 158.962112 -141.966574 
L 158.969691 -139.377252 
L 158.977908 -136.78793 
L 158.986463 -134.198608 
L 158.994711 -131.609286 
L 159.002099 -129.019963 
L 159.008566 -126.430641 
L 159.014602 -123.841319 
L 159.020939 -121.251997 
L 159.028113 -118.662675 
L 159.036168 -116.073352 
L 159.044693 -113.48403 
L 159.0531 -110.894708 
L 159.060978 -108.305386 
L 159.068274 -105.716064 
L 159.075176 -103.126741 
L 159.081797 -100.537419 
L 159.087954 -97.948097 
L 159.093294 -95.358775 
L 159.097722 -92.769453 
L 159.101787 -90.18013 
L 159.106712 -87.590808 
L 159.114109 -85.001486 
L 159.125775 -82.412164 
L 159.144156 -79.822842 
L 159.173873 -77.233519 
L 159.223922 -74.644197 
L 159.308644 -72.054875 
L 159.443671 -69.465553 
L 159.633794 -66.876231 
L 159.856265 -64.286908 
L 160.053286 -61.697586 
L 160.149184 -59.108264 
L 160.090513 -56.518942 
z
" style="stroke: #4c4c4c; stroke-width: 1.25"/>
    </defs>
    <g clip-path="url(#p27884f79e6)">
     <use xlink:href="#m51a1933b10" x="0" y="347.997109" style="fill: #5875a4; stroke: #4c4c4c; stroke-width: 1.25"/>
    </g>
   </g>
   <g id="FillBetweenPolyCollection_2">
    <defs>
     <path id="maf52570056" d="M 462.814703 -56.518942 
L 289.079828 -56.518942 
L 375.272825 -58.189401 
L 375.855532 -59.859861 
L 375.920946 -61.53032 
L 375.911504 -63.20078 
L 375.930472 -64.871239 
L 375.936717 -66.541698 
L 375.944977 -68.212158 
L 375.93669 -69.882617 
L 375.944805 -71.553077 
L 375.944327 -73.223536 
L 375.947266 -74.893996 
L 375.947266 -76.564455 
L 375.947266 -78.234915 
L 375.947266 -79.905374 
L 375.947266 -81.575834 
L 375.943711 -83.246293 
L 375.941952 -84.916752 
L 375.947266 -86.587212 
L 375.946683 -88.257671 
L 375.94722 -89.928131 
L 375.947265 -91.59859 
L 375.947266 -93.26905 
L 375.946284 -94.939509 
L 375.947266 -96.609969 
L 375.947266 -98.280428 
L 375.947266 -99.950888 
L 375.947266 -101.621347 
L 375.943518 -103.291806 
L 375.947266 -104.962266 
L 375.947266 -106.632725 
L 375.947266 -108.303185 
L 375.947145 -109.973644 
L 375.947266 -111.644104 
L 375.945914 -113.314563 
L 375.947266 -114.985023 
L 375.947266 -116.655482 
L 375.947266 -118.325942 
L 375.947266 -119.996401 
L 375.947266 -121.66686 
L 375.947266 -123.33732 
L 375.947266 -125.007779 
L 375.947266 -126.678239 
L 375.947266 -128.348698 
L 375.947266 -130.019158 
L 375.947266 -131.689617 
L 375.947266 -133.360077 
L 375.947266 -135.030536 
L 375.947266 -136.700996 
L 375.947266 -138.371455 
L 375.947266 -140.041914 
L 375.947266 -141.712374 
L 375.947266 -143.382833 
L 375.947266 -145.053293 
L 375.947266 -146.723752 
L 375.947266 -148.394212 
L 375.947266 -150.064671 
L 375.947266 -151.735131 
L 375.947266 -153.40559 
L 375.946881 -155.07605 
L 375.947266 -156.746509 
L 375.947266 -158.416968 
L 375.947266 -160.087428 
L 375.947266 -161.757887 
L 375.947266 -163.428347 
L 375.947266 -165.098806 
L 375.947266 -166.769266 
L 375.947266 -168.439725 
L 375.947266 -170.110185 
L 375.947266 -171.780644 
L 375.947262 -173.451104 
L 375.947262 -175.121563 
L 375.947266 -176.792022 
L 375.947266 -178.462482 
L 375.947266 -180.132941 
L 375.947266 -181.803401 
L 375.947266 -183.47386 
L 375.947266 -185.14432 
L 375.947266 -186.814779 
L 375.947266 -188.485239 
L 375.947266 -190.155698 
L 375.947266 -191.826158 
L 375.947266 -193.496617 
L 375.947266 -195.167076 
L 375.947266 -196.837536 
L 375.947266 -198.507995 
L 375.947266 -200.178455 
L 375.947266 -201.848914 
L 375.947266 -203.519374 
L 375.947266 -205.189833 
L 375.947266 -206.860293 
L 375.947266 -208.530752 
L 375.947266 -210.201212 
L 375.947266 -211.871671 
L 375.947266 -213.54213 
L 375.947266 -215.21259 
L 375.947266 -216.883049 
L 375.947266 -218.553509 
L 375.947266 -220.223968 
L 375.943445 -221.894428 
L 375.951087 -221.894428 
L 375.951087 -221.894428 
L 375.947266 -220.223968 
L 375.947266 -218.553509 
L 375.947266 -216.883049 
L 375.947266 -215.21259 
L 375.947266 -213.54213 
L 375.947266 -211.871671 
L 375.947266 -210.201212 
L 375.947266 -208.530752 
L 375.947266 -206.860293 
L 375.947266 -205.189833 
L 375.947266 -203.519374 
L 375.947266 -201.848914 
L 375.947266 -200.178455 
L 375.947266 -198.507995 
L 375.947266 -196.837536 
L 375.947266 -195.167076 
L 375.947266 -193.496617 
L 375.947266 -191.826158 
L 375.947266 -190.155698 
L 375.947266 -188.485239 
L 375.947266 -186.814779 
L 375.947266 -185.14432 
L 375.947266 -183.47386 
L 375.947266 -181.803401 
L 375.947266 -180.132941 
L 375.947266 -178.462482 
L 375.947266 -176.792022 
L 375.947269 -175.121563 
L 375.94727 -173.451104 
L 375.947266 -171.780644 
L 375.947266 -170.110185 
L 375.947266 -168.439725 
L 375.947266 -166.769266 
L 375.947266 -165.098806 
L 375.947266 -163.428347 
L 375.947266 -161.757887 
L 375.947266 -160.087428 
L 375.947266 -158.416968 
L 375.947266 -156.746509 
L 375.94765 -155.07605 
L 375.947266 -153.40559 
L 375.947266 -151.735131 
L 375.947266 -150.064671 
L 375.947266 -148.394212 
L 375.947266 -146.723752 
L 375.947266 -145.053293 
L 375.947266 -143.382833 
L 375.947266 -141.712374 
L 375.947266 -140.041914 
L 375.947266 -138.371455 
L 375.947266 -136.700996 
L 375.947266 -135.030536 
L 375.947266 -133.360077 
L 375.947266 -131.689617 
L 375.947266 -130.019158 
L 375.947266 -128.348698 
L 375.947266 -126.678239 
L 375.947266 -125.007779 
L 375.947266 -123.33732 
L 375.947266 -121.66686 
L 375.947266 -119.996401 
L 375.947266 -118.325942 
L 375.947266 -116.655482 
L 375.947266 -114.985023 
L 375.948617 -113.314563 
L 375.947266 -111.644104 
L 375.947386 -109.973644 
L 375.947266 -108.303185 
L 375.947266 -106.632725 
L 375.947266 -104.962266 
L 375.951013 -103.291806 
L 375.947266 -101.621347 
L 375.947266 -99.950888 
L 375.947266 -98.280428 
L 375.947266 -96.609969 
L 375.948247 -94.939509 
L 375.947266 -93.26905 
L 375.947266 -91.59859 
L 375.947311 -89.928131 
L 375.947848 -88.257671 
L 375.947266 -86.587212 
L 375.952579 -84.916752 
L 375.95082 -83.246293 
L 375.947266 -81.575834 
L 375.947266 -79.905374 
L 375.947266 -78.234915 
L 375.947266 -76.564455 
L 375.947266 -74.893996 
L 375.950204 -73.223536 
L 375.949727 -71.553077 
L 375.957841 -69.882617 
L 375.949554 -68.212158 
L 375.957815 -66.541698 
L 375.96406 -64.871239 
L 375.983028 -63.20078 
L 375.973585 -61.53032 
L 376.038999 -59.859861 
L 376.621706 -58.189401 
L 462.814703 -56.518942 
z
" style="stroke: #4c4c4c; stroke-width: 1.25"/>
    </defs>
    <g clip-path="url(#p27884f79e6)">
     <use xlink:href="#maf52570056" x="0" y="347.997109" style="fill: #5875a4; stroke: #4c4c4c; stroke-width: 1.25"/>
    </g>
   </g>
   <g id="line2d_7">
    <path d="M 157.430759 289.886193 
L 160.126585 289.886193 
" clip-path="url(#p27884f79e6)" style="fill: none; stroke-dasharray: 1.5625,0.9375; stroke-dashoffset: 0; stroke: #4c4c4c; stroke-width: 1.25"/>
   </g>
   <g id="line2d_8">
    <path d="M 158.381677 270.856415 
L 159.175667 270.856415 
" clip-path="url(#p27884f79e6)" style="fill: none; stroke-dasharray: 3.125,1.25; stroke-dashoffset: 0; stroke: #4c4c4c; stroke-width: 1.25"/>
   </g>
   <g id="line2d_9">
    <path d="M 158.54245 224.275063 
L 159.014894 224.275063 
" clip-path="url(#p27884f79e6)" style="fill: none; stroke-dasharray: 1.5625,0.9375; stroke-dashoffset: 0; stroke: #4c4c4c; stroke-width: 1.25"/>
   </g>
   <g id="line2d_10">
    <path d="M 289.079828 291.478168 
L 462.814703 291.478168 
" clip-path="url(#p27884f79e6)" style="fill: none; stroke-dasharray: 1.5625,0.9375; stroke-dashoffset: 0; stroke: #4c4c4c; stroke-width: 1.25"/>
   </g>
   <g id="line2d_11">
    <path d="M 289.079828 291.478168 
L 462.814703 291.478168 
" clip-path="url(#p27884f79e6)" style="fill: none; stroke-dasharray: 3.125,1.25; stroke-dashoffset: 0; stroke: #4c4c4c; stroke-width: 1.25"/>
   </g>
   <g id="line2d_12">
    <path d="M 289.079828 291.478168 
L 462.814703 291.478168 
" clip-path="url(#p27884f79e6)" style="fill: none; stroke-dasharray: 1.5625,0.9375; stroke-dashoffset: 0; stroke: #4c4c4c; stroke-width: 1.25"/>
   </g>
   <g id="patch_3">
    <path d="M 50.194375 304.295312 
L 50.194375 22.318125 
" style="fill: none; stroke: #cccccc; stroke-width: 1.25; stroke-linejoin: miter; stroke-linecap: square"/>
   </g>
   <g id="patch_4">
    <path d="M 484.531563 304.295312 
L 484.531563 22.318125 
" style="fill: none; stroke: #cccccc; stroke-width: 1.25; stroke-linejoin: miter; stroke-linecap: square"/>
   </g>
   <g id="patch_5">
    <path d="M 50.194375 304.295312 
L 484.531563 304.295312 
" style="fill: none; stroke: #cccccc; stroke-width: 1.25; stroke-linejoin: miter; stroke-linecap: square"/>
   </g>
   <g id="patch_6">
    <path d="M 50.194375 22.318125 
L 484.531563 22.318125 
" style="fill: none; stroke: #cccccc; stroke-width: 1.25; stroke-linejoin: miter; stroke-linecap: square"/>
   </g>
   <g id="text_11">
    <!-- Matched vs random activation overlap -->
    <g style="fill: #262626" transform="translate(151.729844 16.318125) scale(0.12 -0.12)">
     <defs>
      <path id="DejaVuSans-30" d="M 628 4666 
L 1569 4666 
L 2759 1491 
L 3956 4666 
L 4897 4666 
L 4897 0 
L 4281 0 
L 4281 4097 
L 3078 897 
L 2444 897 
L 1241 4097 
L 1241 0 
L 628 0 
L 628 4666 
z
" transform="scale(0.015625)"/>
      <path id="DejaVuSans-3" transform="scale(0.015625)"/>
      <path id="DejaVuSans-59" d="M 191 3500 
L 800 3500 
L 1894 563 
L 2988 3500 
L 3597 3500 
L 2284 0 
L 1503 0 
L 191 3500 
z
" transform="scale(0.015625)"/>
      <path id="DejaVuSans-56" d="M 2834 3397 
L 2834 2853 
Q 2591 2978 2328 3040 
Q 2066 3103 1784 3103 
Q 1356 3103 1142 2972 
Q 928 2841 928 2578 
Q 928 2378 1081 2264 
Q 1234 2150 1697 2047 
L 1894 2003 
Q 2506 1872 2764 1633 
Q 3022 1394 3022 966 
Q 3022 478 2636 193 
Q 2250 -91 1575 -91 
Q 1294 -91 989 -36 
Q 684 19 347 128 
L 347 722 
Q 666 556 975 473 
Q 1284 391 1588 391 
Q 1994 391 2212 530 
Q 2431 669 2431 922 
Q 2431 1156 2273 1281 
Q 2116 1406 1581 1522 
L 1381 1569 
Q 847 1681 609 1914 
Q 372 2147 372 2553 
Q 372 3047 722 3315 
Q 1072 3584 1716 3584 
Q 2034 3584 2315 3537 
Q 2597 3491 2834 3397 
z
" transform="scale(0.015625)"/>
      <path id="DejaVuSans-4f" d="M 603 4863 
L 1178 4863 
L 1178 0 
L 603 0 
L 603 4863 
z
" transform="scale(0.015625)"/>
     </defs>
     <use xlink:href="#DejaVuSans-30"/>
     <use xlink:href="#DejaVuSans-44" transform="translate(86.28125 0)"/>
     <use xlink:href="#DejaVuSans-57" transform="translate(147.5625 0)"/>
     <use xlink:href="#DejaVuSans-46" transform="translate(186.765625 0)"/>
     <use xlink:href="#DejaVuSans-4b" transform="translate(241.75 0)"/>
     <use xlink:href="#DejaVuSans-48" transform="translate(305.125 0)"/>
     <use xlink:href="#DejaVuSans-47" transform="translate(366.65625 0)"/>
     <use xlink:href="#DejaVuSans-3" transform="translate(430.140625 0)"/>
     <use xlink:href="#DejaVuSans-59" transform="translate(461.921875 0)"/>
     <use xlink:href="#DejaVuSans-56" transform="translate(521.109375 0)"/>
     <use xlink:href="#DejaVuSans-3" transform="translate(573.203125 0)"/>
     <use xlink:href="#DejaVuSans-55" transform="translate(604.984375 0)"/>
     <use xlink:href="#DejaVuSans-44" transform="translate(646.09375 0)"/>
     <use xlink:href="#DejaVuSans-51" transform="translate(707.375 0)"/>
     <use xlink:href="#DejaVuSans-47" transform="translate(770.75 0)"/>
     <use xlink:href="#DejaVuSans-52" transform="translate(834.234375 0)"/>
     <use xlink:href="#DejaVuSans-50" transform="translate(895.421875 0)"/>
     <use xlink:href="#DejaVuSans-3" transform="translate(992.828125 0)"/>
     <use xlink:href="#DejaVuSans-44" transform="translate(1024.609375 0)"/>
     <use xlink:href="#DejaVuSans-46" transform="translate(1085.890625 0)"/>
     <use xlink:href="#DejaVuSans-57" transform="translate(1140.875 0)"/>
     <use xlink:href="#DejaVuSans-4c" transform="translate(1180.078125 0)"/>
     <use xlink:href="#DejaVuSans-59" transform="translate(1207.859375 0)"/>
     <use xlink:href="#DejaVuSans-44" transform="translate(1267.046875 0)"/>
     <use xlink:href="#DejaVuSans-57" transform="translate(1328.328125 0)"/>
     <use xlink:href="#DejaVuSans-4c" transform="translate(1367.53125 0)"/>
     <use xlink:href="#DejaVuSans-52" transform="translate(1395.3125 0)"/>
     <use xlink:href="#DejaVuSans-51" transform="translate(1456.5 0)"/>
     <use xlink:href="#DejaVuSans-3" transform="translate(1519.875 0)"/>
     <use xlink:href="#DejaVuSans-52" transform="translate(1551.65625 0)"/>
     <use xlink:href="#DejaVuSans-59" transform="translate(1612.84375 0)"/>
     <use xlink:href="#DejaVuSans-48" transform="translate(1672.03125 0)"/>
     <use xlink:href="#DejaVuSans-55" transform="translate(1733.5625 0)"/>
     <use xlink:href="#DejaVuSans-4f" transform="translate(1774.671875 0)"/>
     <use xlink:href="#DejaVuSans-44" transform="translate(1802.453125 0)"/>
     <use xlink:href="#DejaVuSans-53" transform="translate(1863.734375 0)"/>
    </g>
   </g>
  </g>
 </g>
 <defs>
  <clipPath id="p27884f79e6">
   <rect x="50.194375" y="22.318125" width="434.337188" height="281.977188"/>
  </clipPath>
 </defs>
</svg>
