<?xml version="1.0" encoding="utf-8" standalone="no"?>
<!DOCTYPE svg PUBLIC "-//W3C//DTD SVG 1.1//EN"
  "http://www.w3.org/Graphics/SVG/1.1/DTD/svg11.dtd">
<svg xmlns:xlink="http://www.w3.org/1999/xlink" width="492.47pt" height="348.262969pt" viewBox="0 0 492.47 348.262969" xmlns="http://www.w3.org/2000/svg" version="1.1">
 <metadata>
  <rdf:RDF xmlns:dc="http://purl.org/dc/elements/1.1/" xmlns:cc="http://creativecommons.org/ns#" xmlns:rdf="http://www.w3.org/1999/02/22-rdf-syntax-ns#">
   <cc:Work>
    <dc:type rdf:resource="http://purl.org/dc/dcmitype/StillImage"/>
    <dc:date>2026-07-21T00:49:01.207593</dc:date>
    <dc:format>image/svg+xml</dc:format>
    <dc:creator>
     <cc:Agent>
      <dc:title>Matplotlib v3.9.2, https://matplotlib.org/</dc:title>
     </cc:Agent>
    </dc:creator>
   </cc:Work>
  </rdf:RDF>
 </metadata>
 <defs>
  <style type="text/css">*{stroke-linejoin: round; stroke-linecap: butt}</style>
 </defs>
 <g id="figure_1">
  <g id="patch_1">
   <path d="M 0 348.262969 
L 492.47 348.262969 
L 492.47 0 
L 0 0 
z
" style="fill: #ffffff"/>
  </g>
  <g id="axes_1">
   <g id="patch_2">
    <path d="M 47.105 306.388125 
L 485.27 306.388125 
L 485.27 21.789375 
L 47.105 21.789375 
z
" style="fill: #ffffff"/>
   </g>
   <g id="matplotlib.axis_1">
    <g id="xtick_1">
     <g id="text_1">
      <!-- matched -->
      <g style="fill: #262626" transform="translate(135.552891 323.761719) scale(0.11 -0.11)">
       <defs>
        <path id="ArialMT-6d" d="M 422 0 
L 422 3319 
L 925 3319 
L 925 2853 
Q 1081 3097 1340 3245 
Q 1600 3394 1931 3394 
Q 2300 3394 2536 3241 
Q 2772 3088 2869 2813 
Q 3263 3394 3894 3394 
Q 4388 3394 4653 3120 
Q 4919 2847 4919 2278 
L 4919 0 
L 4359 0 
L 4359 2091 
Q 4359 2428 4304 2576 
Q 4250 2725 4106 2815 
Q 3963 2906 3769 2906 
Q 3419 2906 3187 2673 
Q 2956 2441 2956 1928 
L 2956 0 
L 2394 0 
L 2394 2156 
Q 2394 2531 2256 2718 
Q 2119 2906 1806 2906 
Q 1569 2906 1367 2781 
Q 1166 2656 1075 2415 
Q 984 2175 984 1722 
L 984 0 
L 422 0 
z
" transform="scale(0.015625)"/>
        <path id="ArialMT-61" d="M 2588 409 
Q 2275 144 1986 34 
Q 1697 -75 1366 -75 
Q 819 -75 525 192 
Q 231 459 231 875 
Q 231 1119 342 1320 
Q 453 1522 633 1644 
Q 813 1766 1038 1828 
Q 1203 1872 1538 1913 
Q 2219 1994 2541 2106 
Q 2544 2222 2544 2253 
Q 2544 2597 2384 2738 
Q 2169 2928 1744 2928 
Q 1347 2928 1158 2789 
Q 969 2650 878 2297 
L 328 2372 
Q 403 2725 575 2942 
Q 747 3159 1072 3276 
Q 1397 3394 1825 3394 
Q 2250 3394 2515 3294 
Q 2781 3194 2906 3042 
Q 3031 2891 3081 2659 
Q 3109 2516 3109 2141 
L 3109 1391 
Q 3109 606 3145 398 
Q 3181 191 3288 0 
L 2700 0 
Q 2613 175 2588 409 
z
M 2541 1666 
Q 2234 1541 1622 1453 
Q 1275 1403 1131 1340 
Q 988 1278 909 1158 
Q 831 1038 831 891 
Q 831 666 1001 516 
Q 1172 366 1500 366 
Q 1825 366 2078 508 
Q 2331 650 2450 897 
Q 2541 1088 2541 1459 
L 2541 1666 
z
" transform="scale(0.015625)"/>
        <path id="ArialMT-74" d="M 1650 503 
L 1731 6 
Q 1494 -44 1306 -44 
Q 1000 -44 831 53 
Q 663 150 594 308 
Q 525 466 525 972 
L 525 2881 
L 113 2881 
L 113 3319 
L 525 3319 
L 525 4141 
L 1084 4478 
L 1084 3319 
L 1650 3319 
L 1650 2881 
L 1084 2881 
L 1084 941 
Q 1084 700 1114 631 
Q 1144 563 1211 522 
Q 1278 481 1403 481 
Q 1497 481 1650 503 
z
" transform="scale(0.015625)"/>
        <path id="ArialMT-63" d="M 2588 1216 
L 3141 1144 
Q 3050 572 2676 248 
Q 2303 -75 1759 -75 
Q 1078 -75 664 370 
Q 250 816 250 1647 
Q 250 2184 428 2587 
Q 606 2991 970 3192 
Q 1334 3394 1763 3394 
Q 2303 3394 2647 3120 
Q 2991 2847 3088 2344 
L 2541 2259 
Q 2463 2594 2264 2762 
Q 2066 2931 1784 2931 
Q 1359 2931 1093 2626 
Q 828 2322 828 1663 
Q 828 994 1084 691 
Q 1341 388 1753 388 
Q 2084 388 2306 591 
Q 2528 794 2588 1216 
z
" transform="scale(0.015625)"/>
        <path id="ArialMT-68" d="M 422 0 
L 422 4581 
L 984 4581 
L 984 2938 
Q 1378 3394 1978 3394 
Q 2347 3394 2619 3248 
Q 2891 3103 3008 2847 
Q 3125 2591 3125 2103 
L 3125 0 
L 2563 0 
L 2563 2103 
Q 2563 2525 2380 2717 
Q 2197 2909 1863 2909 
Q 1613 2909 1392 2779 
Q 1172 2650 1078 2428 
Q 984 2206 984 1816 
L 984 0 
L 422 0 
z
" transform="scale(0.015625)"/>
        <path id="ArialMT-65" d="M 2694 1069 
L 3275 997 
Q 3138 488 2766 206 
Q 2394 -75 1816 -75 
Q 1088 -75 661 373 
Q 234 822 234 1631 
Q 234 2469 665 2931 
Q 1097 3394 1784 3394 
Q 2450 3394 2872 2941 
Q 3294 2488 3294 1666 
Q 3294 1616 3291 1516 
L 816 1516 
Q 847 969 1125 678 
Q 1403 388 1819 388 
Q 2128 388 2347 550 
Q 2566 713 2694 1069 
z
M 847 1978 
L 2700 1978 
Q 2663 2397 2488 2606 
Q 2219 2931 1791 2931 
Q 1403 2931 1139 2672 
Q 875 2413 847 1978 
z
" transform="scale(0.015625)"/>
        <path id="ArialMT-64" d="M 2575 0 
L 2575 419 
Q 2259 -75 1647 -75 
Q 1250 -75 917 144 
Q 584 363 401 755 
Q 219 1147 219 1656 
Q 219 2153 384 2558 
Q 550 2963 881 3178 
Q 1213 3394 1622 3394 
Q 1922 3394 2156 3267 
Q 2391 3141 2538 2938 
L 2538 4581 
L 3097 4581 
L 3097 0 
L 2575 0 
z
M 797 1656 
Q 797 1019 1065 703 
Q 1334 388 1700 388 
Q 2069 388 2326 689 
Q 2584 991 2584 1609 
Q 2584 2291 2321 2609 
Q 2059 2928 1675 2928 
Q 1300 2928 1048 2622 
Q 797 2316 797 1656 
z
" transform="scale(0.015625)"/>
       </defs>
       <use xlink:href="#ArialMT-6d"/>
       <use xlink:href="#ArialMT-61" x="83.300781"/>
       <use xlink:href="#ArialMT-74" x="138.916016"/>
       <use xlink:href="#ArialMT-63" x="166.699219"/>
       <use xlink:href="#ArialMT-68" x="216.699219"/>
       <use xlink:href="#ArialMT-65" x="272.314453"/>
       <use xlink:href="#ArialMT-64" x="327.929688"/>
      </g>
     </g>
    </g>
    <g id="xtick_2">
     <g id="text_2">
      <!-- random -->
      <g style="fill: #262626" transform="translate(357.082031 323.761719) scale(0.11 -0.11)">
       <defs>
        <path id="ArialMT-72" d="M 416 0 
L 416 3319 
L 922 3319 
L 922 2816 
Q 1116 3169 1280 3281 
Q 1444 3394 1641 3394 
Q 1925 3394 2219 3213 
L 2025 2691 
Q 1819 2813 1613 2813 
Q 1428 2813 1281 2702 
Q 1134 2591 1072 2394 
Q 978 2094 978 1738 
L 978 0 
L 416 0 
z
" transform="scale(0.015625)"/>
        <path id="ArialMT-6e" d="M 422 0 
L 422 3319 
L 928 3319 
L 928 2847 
Q 1294 3394 1984 3394 
Q 2284 3394 2536 3286 
Q 2788 3178 2913 3003 
Q 3038 2828 3088 2588 
Q 3119 2431 3119 2041 
L 3119 0 
L 2556 0 
L 2556 2019 
Q 2556 2363 2490 2533 
Q 2425 2703 2258 2804 
Q 2091 2906 1866 2906 
Q 1506 2906 1245 2678 
Q 984 2450 984 1813 
L 984 0 
L 422 0 
z
" transform="scale(0.015625)"/>
        <path id="ArialMT-6f" d="M 213 1659 
Q 213 2581 725 3025 
Q 1153 3394 1769 3394 
Q 2453 3394 2887 2945 
Q 3322 2497 3322 1706 
Q 3322 1066 3130 698 
Q 2938 331 2570 128 
Q 2203 -75 1769 -75 
Q 1072 -75 642 372 
Q 213 819 213 1659 
z
M 791 1659 
Q 791 1022 1069 705 
Q 1347 388 1769 388 
Q 2188 388 2466 706 
Q 2744 1025 2744 1678 
Q 2744 2294 2464 2611 
Q 2184 2928 1769 2928 
Q 1347 2928 1069 2612 
Q 791 2297 791 1659 
z
" transform="scale(0.015625)"/>
       </defs>
       <use xlink:href="#ArialMT-72"/>
       <use xlink:href="#ArialMT-61" x="33.300781"/>
       <use xlink:href="#ArialMT-6e" x="88.916016"/>
       <use xlink:href="#ArialMT-64" x="144.53125"/>
       <use xlink:href="#ArialMT-6f" x="200.146484"/>
       <use xlink:href="#ArialMT-6d" x="255.761719"/>
      </g>
     </g>
    </g>
    <g id="text_3">
     <!-- pair_type -->
     <g style="fill: #262626" transform="translate(241.506875 338.537344) scale(0.12 -0.12)">
      <defs>
       <path id="ArialMT-70" d="M 422 -1272 
L 422 3319 
L 934 3319 
L 934 2888 
Q 1116 3141 1344 3267 
Q 1572 3394 1897 3394 
Q 2322 3394 2647 3175 
Q 2972 2956 3137 2557 
Q 3303 2159 3303 1684 
Q 3303 1175 3120 767 
Q 2938 359 2589 142 
Q 2241 -75 1856 -75 
Q 1575 -75 1351 44 
Q 1128 163 984 344 
L 984 -1272 
L 422 -1272 
z
M 931 1641 
Q 931 1000 1190 694 
Q 1450 388 1819 388 
Q 2194 388 2461 705 
Q 2728 1022 2728 1688 
Q 2728 2322 2467 2637 
Q 2206 2953 1844 2953 
Q 1484 2953 1207 2617 
Q 931 2281 931 1641 
z
" transform="scale(0.015625)"/>
       <path id="ArialMT-69" d="M 425 3934 
L 425 4581 
L 988 4581 
L 988 3934 
L 425 3934 
z
M 425 0 
L 425 3319 
L 988 3319 
L 988 0 
L 425 0 
z
" transform="scale(0.015625)"/>
       <path id="ArialMT-5f" d="M -97 -1272 
L -97 -866 
L 3631 -866 
L 3631 -1272 
L -97 -1272 
z
" transform="scale(0.015625)"/>
       <path id="ArialMT-79" d="M 397 -1278 
L 334 -750 
Q 519 -800 656 -800 
Q 844 -800 956 -737 
Q 1069 -675 1141 -563 
Q 1194 -478 1313 -144 
Q 1328 -97 1363 -6 
L 103 3319 
L 709 3319 
L 1400 1397 
Q 1534 1031 1641 628 
Q 1738 1016 1872 1384 
L 2581 3319 
L 3144 3319 
L 1881 -56 
Q 1678 -603 1566 -809 
Q 1416 -1088 1222 -1217 
Q 1028 -1347 759 -1347 
Q 597 -1347 397 -1278 
z
" transform="scale(0.015625)"/>
      </defs>
      <use xlink:href="#ArialMT-70"/>
      <use xlink:href="#ArialMT-61" x="55.615234"/>
      <use xlink:href="#ArialMT-69" x="111.230469"/>
      <use xlink:href="#ArialMT-72" x="133.447266"/>
      <use xlink:href="#ArialMT-5f" x="166.748047"/>
      <use xlink:href="#ArialMT-74" x="222.363281"/>
      <use xlink:href="#ArialMT-79" x="250.146484"/>
      <use xlink:href="#ArialMT-70" x="300.146484"/>
      <use xlink:href="#ArialMT-65" x="355.761719"/>
     </g>
    </g>
   </g>
   <g id="matplotlib.axis_2">
    <g id="ytick_1">
     <g id="text_4">
      <!-- 0.0 -->
      <g style="fill: #262626" transform="translate(22.315 297.388615) scale(0.11 -0.11)">
       <defs>
        <path id="ArialMT-30" d="M 266 2259 
Q 266 3072 433 3567 
Q 600 4063 929 4331 
Q 1259 4600 1759 4600 
Q 2128 4600 2406 4451 
Q 2684 4303 2865 4023 
Q 3047 3744 3150 3342 
Q 3253 2941 3253 2259 
Q 3253 1453 3087 958 
Q 2922 463 2592 192 
Q 2263 -78 1759 -78 
Q 1097 -78 719 397 
Q 266 969 266 2259 
z
M 844 2259 
Q 844 1131 1108 757 
Q 1372 384 1759 384 
Q 2147 384 2411 759 
Q 2675 1134 2675 2259 
Q 2675 3391 2411 3762 
Q 2147 4134 1753 4134 
Q 1366 4134 1134 3806 
Q 844 3388 844 2259 
z
" transform="scale(0.015625)"/>
        <path id="ArialMT-2e" d="M 581 0 
L 581 641 
L 1222 641 
L 1222 0 
L 581 0 
z
" transform="scale(0.015625)"/>
       </defs>
       <use xlink:href="#ArialMT-30"/>
       <use xlink:href="#ArialMT-2e" x="55.615234"/>
       <use xlink:href="#ArialMT-30" x="83.398438"/>
      </g>
     </g>
    </g>
    <g id="ytick_2">
     <g id="text_5">
      <!-- 0.2 -->
      <g style="fill: #262626" transform="translate(22.315 245.58619) scale(0.11 -0.11)">
       <defs>
        <path id="ArialMT-32" d="M 3222 541 
L 3222 0 
L 194 0 
Q 188 203 259 391 
Q 375 700 629 1000 
Q 884 1300 1366 1694 
Q 2113 2306 2375 2664 
Q 2638 3022 2638 3341 
Q 2638 3675 2398 3904 
Q 2159 4134 1775 4134 
Q 1369 4134 1125 3890 
Q 881 3647 878 3216 
L 300 3275 
Q 359 3922 746 4261 
Q 1134 4600 1788 4600 
Q 2447 4600 2831 4234 
Q 3216 3869 3216 3328 
Q 3216 3053 3103 2787 
Q 2991 2522 2730 2228 
Q 2469 1934 1863 1422 
Q 1356 997 1212 845 
Q 1069 694 975 541 
L 3222 541 
z
" transform="scale(0.015625)"/>
       </defs>
       <use xlink:href="#ArialMT-30"/>
       <use xlink:href="#ArialMT-2e" x="55.615234"/>
       <use xlink:href="#ArialMT-32" x="83.398438"/>
      </g>
     </g>
    </g>
    <g id="ytick_3">
     <g id="text_6">
      <!-- 0.4 -->
      <g style="fill: #262626" transform="translate(22.315 193.783764) scale(0.11 -0.11)">
       <defs>
        <path id="ArialMT-34" d="M 2069 0 
L 2069 1097 
L 81 1097 
L 81 1613 
L 2172 4581 
L 2631 4581 
L 2631 1613 
L 3250 1613 
L 3250 1097 
L 2631 1097 
L 2631 0 
L 2069 0 
z
M 2069 1613 
L 2069 3678 
L 634 1613 
L 2069 1613 
z
" transform="scale(0.015625)"/>
       </defs>
       <use xlink:href="#ArialMT-30"/>
       <use xlink:href="#ArialMT-2e" x="55.615234"/>
       <use xlink:href="#ArialMT-34" x="83.398438"/>
      </g>
     </g>
    </g>
    <g id="ytick_4">
     <g id="text_7">
      <!-- 0.6 -->
      <g style="fill: #262626" transform="translate(22.315 141.981339) scale(0.11 -0.11)">
       <defs>
        <path id="ArialMT-36" d="M 3184 3459 
L 2625 3416 
Q 2550 3747 2413 3897 
Q 2184 4138 1850 4138 
Q 1581 4138 1378 3988 
Q 1113 3794 959 3422 
Q 806 3050 800 2363 
Q 1003 2672 1297 2822 
Q 1591 2972 1913 2972 
Q 2475 2972 2870 2558 
Q 3266 2144 3266 1488 
Q 3266 1056 3080 686 
Q 2894 316 2569 119 
Q 2244 -78 1831 -78 
Q 1128 -78 684 439 
Q 241 956 241 2144 
Q 241 3472 731 4075 
Q 1159 4600 1884 4600 
Q 2425 4600 2770 4297 
Q 3116 3994 3184 3459 
z
M 888 1484 
Q 888 1194 1011 928 
Q 1134 663 1356 523 
Q 1578 384 1822 384 
Q 2178 384 2434 671 
Q 2691 959 2691 1453 
Q 2691 1928 2437 2201 
Q 2184 2475 1800 2475 
Q 1419 2475 1153 2201 
Q 888 1928 888 1484 
z
" transform="scale(0.015625)"/>
       </defs>
       <use xlink:href="#ArialMT-30"/>
       <use xlink:href="#ArialMT-2e" x="55.615234"/>
       <use xlink:href="#ArialMT-36" x="83.398438"/>
      </g>
     </g>
    </g>
    <g id="ytick_5">
     <g id="text_8">
      <!-- 0.8 -->
      <g style="fill: #262626" transform="translate(22.315 90.178914) scale(0.11 -0.11)">
       <defs>
        <path id="ArialMT-38" d="M 1131 2484 
Q 781 2613 612 2850 
Q 444 3088 444 3419 
Q 444 3919 803 4259 
Q 1163 4600 1759 4600 
Q 2359 4600 2725 4251 
Q 3091 3903 3091 3403 
Q 3091 3084 2923 2848 
Q 2756 2613 2416 2484 
Q 2838 2347 3058 2040 
Q 3278 1734 3278 1309 
Q 3278 722 2862 322 
Q 2447 -78 1769 -78 
Q 1091 -78 675 323 
Q 259 725 259 1325 
Q 259 1772 486 2073 
Q 713 2375 1131 2484 
z
M 1019 3438 
Q 1019 3113 1228 2906 
Q 1438 2700 1772 2700 
Q 2097 2700 2305 2904 
Q 2513 3109 2513 3406 
Q 2513 3716 2298 3927 
Q 2084 4138 1766 4138 
Q 1444 4138 1231 3931 
Q 1019 3725 1019 3438 
z
M 838 1322 
Q 838 1081 952 856 
Q 1066 631 1291 507 
Q 1516 384 1775 384 
Q 2178 384 2440 643 
Q 2703 903 2703 1303 
Q 2703 1709 2433 1975 
Q 2163 2241 1756 2241 
Q 1359 2241 1098 1978 
Q 838 1716 838 1322 
z
" transform="scale(0.015625)"/>
       </defs>
       <use xlink:href="#ArialMT-30"/>
       <use xlink:href="#ArialMT-2e" x="55.615234"/>
       <use xlink:href="#ArialMT-38" x="83.398438"/>
      </g>
     </g>
    </g>
    <g id="ytick_6">
     <g id="text_9">
      <!-- 1.0 -->
      <g style="fill: #262626" transform="translate(22.315 38.376488) scale(0.11 -0.11)">
       <defs>
        <path id="ArialMT-31" d="M 2384 0 
L 1822 0 
L 1822 3584 
Q 1619 3391 1289 3197 
Q 959 3003 697 2906 
L 697 3450 
Q 1169 3672 1522 3987 
Q 1875 4303 2022 4600 
L 2384 4600 
L 2384 0 
z
" transform="scale(0.015625)"/>
       </defs>
       <use xlink:href="#ArialMT-31"/>
       <use xlink:href="#ArialMT-2e" x="55.615234"/>
       <use xlink:href="#ArialMT-30" x="83.398438"/>
      </g>
     </g>
    </g>
    <g id="text_10">
     <!-- jaccard -->
     <g style="fill: #262626" transform="translate(15.789375 183.429375) rotate(-90) scale(0.12 -0.12)">
      <defs>
       <path id="ArialMT-6a" d="M 419 3928 
L 419 4581 
L 981 4581 
L 981 3928 
L 419 3928 
z
M -294 -1288 
L -188 -809 
Q -19 -853 78 -853 
Q 250 -853 334 -739 
Q 419 -625 419 -169 
L 419 3319 
L 981 3319 
L 981 -181 
Q 981 -794 822 -1034 
Q 619 -1347 147 -1347 
Q -81 -1347 -294 -1288 
z
" transform="scale(0.015625)"/>
      </defs>
      <use xlink:href="#ArialMT-6a"/>
      <use xlink:href="#ArialMT-61" x="22.216797"/>
      <use xlink:href="#ArialMT-63" x="77.832031"/>
      <use xlink:href="#ArialMT-63" x="127.832031"/>
      <use xlink:href="#ArialMT-61" x="177.832031"/>
      <use xlink:href="#ArialMT-72" x="233.447266"/>
      <use xlink:href="#ArialMT-64" x="266.748047"/>
     </g>
    </g>
   </g>
   <g id="PolyCollection_1">
    <defs>
     <path id="m299ad9c0b8" d="M 157.969653 -54.811151 
L 155.322847 -54.811151 
L 155.26366 -57.424546 
L 155.360403 -60.037941 
L 155.55916 -62.651337 
L 155.783592 -65.264732 
L 155.97539 -67.878127 
L 156.111607 -70.491522 
L 156.197076 -73.104918 
L 156.247566 -75.718313 
L 156.277544 -78.331708 
L 156.296088 -80.945104 
L 156.307857 -83.558499 
L 156.315319 -86.171894 
L 156.320287 -88.78529 
L 156.324388 -91.398685 
L 156.328855 -94.01208 
L 156.334243 -96.625476 
L 156.340453 -99.238871 
L 156.347132 -101.852266 
L 156.354095 -104.465662 
L 156.361456 -107.079057 
L 156.369403 -109.692452 
L 156.377884 -112.305848 
L 156.386484 -114.919243 
L 156.394611 -117.532638 
L 156.401847 -120.146033 
L 156.408241 -122.759429 
L 156.41433 -125.372824 
L 156.420853 -127.986219 
L 156.428307 -130.599615 
L 156.436627 -133.21301 
L 156.445258 -135.826405 
L 156.453548 -138.439801 
L 156.461193 -141.053196 
L 156.468399 -143.666591 
L 156.475681 -146.279987 
L 156.483454 -148.893382 
L 156.4917 -151.506777 
L 156.499897 -154.120173 
L 156.507243 -156.733568 
L 156.513047 -159.346963 
L 156.51709 -161.960359 
L 156.519754 -164.573754 
L 156.521847 -167.187149 
L 156.524239 -169.800545 
L 156.527507 -172.41394 
L 156.531771 -175.027335 
L 156.536746 -177.64073 
L 156.54194 -180.254126 
L 156.546877 -182.867521 
L 156.551265 -185.480916 
L 156.555057 -188.094312 
L 156.558428 -190.707707 
L 156.56169 -193.321102 
L 156.565183 -195.934498 
L 156.569157 -198.547893 
L 156.573669 -201.161288 
L 156.578532 -203.774684 
L 156.583379 -206.388079 
L 156.58781 -209.001474 
L 156.59157 -211.61487 
L 156.594629 -214.228265 
L 156.59713 -216.84166 
L 156.599252 -219.455056 
L 156.601103 -222.068451 
L 156.602727 -224.681846 
L 156.604172 -227.295241 
L 156.605553 -229.908637 
L 156.60703 -232.522032 
L 156.608746 -235.135427 
L 156.610757 -237.748823 
L 156.612999 -240.362218 
L 156.615303 -242.975613 
L 156.617463 -245.589009 
L 156.619324 -248.202404 
L 156.620852 -250.815799 
L 156.622136 -253.429195 
L 156.623326 -256.04259 
L 156.62454 -258.655985 
L 156.625801 -261.269381 
L 156.627054 -263.882776 
L 156.628243 -266.496171 
L 156.629356 -269.109567 
L 156.630415 -271.722962 
L 156.631414 -274.336357 
L 156.632303 -276.949752 
L 156.633043 -279.563148 
L 156.633687 -282.176543 
L 156.634401 -284.789938 
L 156.635376 -287.403334 
L 156.6367 -290.016729 
L 156.63829 -292.630124 
L 156.639923 -295.24352 
L 156.64136 -297.856915 
L 156.642469 -300.47031 
L 156.643261 -303.083706 
L 156.643844 -305.697101 
L 156.644332 -308.310496 
L 156.644788 -310.923892 
L 156.645211 -313.537287 
L 156.647289 -313.537287 
L 156.647289 -313.537287 
L 156.647712 -310.923892 
L 156.648168 -308.310496 
L 156.648656 -305.697101 
L 156.649239 -303.083706 
L 156.650031 -300.47031 
L 156.65114 -297.856915 
L 156.652577 -295.24352 
L 156.65421 -292.630124 
L 156.6558 -290.016729 
L 156.657124 -287.403334 
L 156.658099 -284.789938 
L 156.658813 -282.176543 
L 156.659457 -279.563148 
L 156.660197 -276.949752 
L 156.661086 -274.336357 
L 156.662085 -271.722962 
L 156.663144 -269.109567 
L 156.664257 -266.496171 
L 156.665446 -263.882776 
L 156.666699 -261.269381 
L 156.66796 -258.655985 
L 156.669174 -256.04259 
L 156.670364 -253.429195 
L 156.671648 -250.815799 
L 156.673176 -248.202404 
L 156.675037 -245.589009 
L 156.677197 -242.975613 
L 156.679501 -240.362218 
L 156.681743 -237.748823 
L 156.683754 -235.135427 
L 156.68547 -232.522032 
L 156.686947 -229.908637 
L 156.688328 -227.295241 
L 156.689773 -224.681846 
L 156.691397 -222.068451 
L 156.693248 -219.455056 
L 156.69537 -216.84166 
L 156.697871 -214.228265 
L 156.70093 -211.61487 
L 156.70469 -209.001474 
L 156.709121 -206.388079 
L 156.713968 -203.774684 
L 156.718831 -201.161288 
L 156.723343 -198.547893 
L 156.727317 -195.934498 
L 156.73081 -193.321102 
L 156.734072 -190.707707 
L 156.737443 -188.094312 
L 156.741235 -185.480916 
L 156.745623 -182.867521 
L 156.75056 -180.254126 
L 156.755754 -177.64073 
L 156.760729 -175.027335 
L 156.764993 -172.41394 
L 156.768261 -169.800545 
L 156.770653 -167.187149 
L 156.772746 -164.573754 
L 156.77541 -161.960359 
L 156.779453 -159.346963 
L 156.785257 -156.733568 
L 156.792603 -154.120173 
L 156.8008 -151.506777 
L 156.809046 -148.893382 
L 156.816819 -146.279987 
L 156.824101 -143.666591 
L 156.831307 -141.053196 
L 156.838952 -138.439801 
L 156.847242 -135.826405 
L 156.855873 -133.21301 
L 156.864193 -130.599615 
L 156.871647 -127.986219 
L 156.87817 -125.372824 
L 156.884259 -122.759429 
L 156.890653 -120.146033 
L 156.897889 -117.532638 
L 156.906016 -114.919243 
L 156.914616 -112.305848 
L 156.923097 -109.692452 
L 156.931044 -107.079057 
L 156.938405 -104.465662 
L 156.945368 -101.852266 
L 156.952047 -99.238871 
L 156.958257 -96.625476 
L 156.963645 -94.01208 
L 156.968112 -91.398685 
L 156.972213 -88.78529 
L 156.977181 -86.171894 
L 156.984643 -83.558499 
L 156.996412 -80.945104 
L 157.014956 -78.331708 
L 157.044934 -75.718313 
L 157.095424 -73.104918 
L 157.180893 -70.491522 
L 157.31711 -67.878127 
L 157.508908 -65.264732 
L 157.73334 -62.651337 
L 157.932097 -60.037941 
L 158.02884 -57.424546 
L 157.969653 -54.811151 
z
" style="stroke: #4c4c4c; stroke-width: 1.25"/>
    </defs>
    <g clip-path="url(#pa1cd64a1ad)">
     <use xlink:href="#m299ad9c0b8" x="0" y="348.262969" style="fill: #5875a4; stroke: #4c4c4c; stroke-width: 1.25"/>
    </g>
   </g>
   <g id="PolyCollection_2">
    <defs>
     <path id="m964ab4fd06" d="M 463.36175 -54.811151 
L 288.09575 -54.811151 
L 375.048366 -56.49714 
L 375.636208 -58.18313 
L 375.702198 -59.86912 
L 375.692673 -61.55511 
L 375.711808 -63.2411 
L 375.718108 -64.92709 
L 375.726441 -66.613079 
L 375.718082 -68.299069 
L 375.726267 -69.985059 
L 375.725785 -71.671049 
L 375.72875 -73.357039 
L 375.72875 -75.043029 
L 375.72875 -76.729018 
L 375.72875 -78.415008 
L 375.72875 -80.100998 
L 375.725164 -81.786988 
L 375.72339 -83.472978 
L 375.72875 -85.158968 
L 375.728163 -86.844957 
L 375.728704 -88.530947 
L 375.72875 -90.216937 
L 375.72875 -91.902927 
L 375.72776 -93.588917 
L 375.72875 -95.274907 
L 375.72875 -96.960897 
L 375.72875 -98.646886 
L 375.72875 -100.332876 
L 375.72497 -102.018866 
L 375.72875 -103.704856 
L 375.72875 -105.390846 
L 375.72875 -107.076836 
L 375.728628 -108.762825 
L 375.72875 -110.448815 
L 375.727387 -112.134805 
L 375.72875 -113.820795 
L 375.72875 -115.506785 
L 375.72875 -117.192775 
L 375.72875 -118.878764 
L 375.72875 -120.564754 
L 375.72875 -122.250744 
L 375.72875 -123.936734 
L 375.72875 -125.622724 
L 375.72875 -127.308714 
L 375.72875 -128.994703 
L 375.72875 -130.680693 
L 375.72875 -132.366683 
L 375.72875 -134.052673 
L 375.72875 -135.738663 
L 375.72875 -137.424653 
L 375.72875 -139.110642 
L 375.72875 -140.796632 
L 375.72875 -142.482622 
L 375.72875 -144.168612 
L 375.72875 -145.854602 
L 375.72875 -147.540592 
L 375.72875 -149.226581 
L 375.72875 -150.912571 
L 375.72875 -152.598561 
L 375.728362 -154.284551 
L 375.72875 -155.970541 
L 375.72875 -157.656531 
L 375.72875 -159.342521 
L 375.72875 -161.02851 
L 375.72875 -162.7145 
L 375.72875 -164.40049 
L 375.72875 -166.08648 
L 375.72875 -167.77247 
L 375.72875 -169.45846 
L 375.72875 -171.144449 
L 375.728746 -172.830439 
L 375.728747 -174.516429 
L 375.72875 -176.202419 
L 375.72875 -177.888409 
L 375.72875 -179.574399 
L 375.72875 -181.260388 
L 375.72875 -182.946378 
L 375.72875 -184.632368 
L 375.72875 -186.318358 
L 375.72875 -188.004348 
L 375.72875 -189.690338 
L 375.72875 -191.376327 
L 375.72875 -193.062317 
L 375.72875 -194.748307 
L 375.72875 -196.434297 
L 375.72875 -198.120287 
L 375.72875 -199.806277 
L 375.72875 -201.492266 
L 375.72875 -203.178256 
L 375.72875 -204.864246 
L 375.72875 -206.550236 
L 375.72875 -208.236226 
L 375.72875 -209.922216 
L 375.72875 -211.608205 
L 375.72875 -213.294195 
L 375.72875 -214.980185 
L 375.72875 -216.666175 
L 375.72875 -218.352165 
L 375.72875 -220.038155 
L 375.724895 -221.724145 
L 375.732605 -221.724145 
L 375.732605 -221.724145 
L 375.72875 -220.038155 
L 375.72875 -218.352165 
L 375.72875 -216.666175 
L 375.72875 -214.980185 
L 375.72875 -213.294195 
L 375.72875 -211.608205 
L 375.72875 -209.922216 
L 375.72875 -208.236226 
L 375.72875 -206.550236 
L 375.72875 -204.864246 
L 375.72875 -203.178256 
L 375.72875 -201.492266 
L 375.72875 -199.806277 
L 375.72875 -198.120287 
L 375.72875 -196.434297 
L 375.72875 -194.748307 
L 375.72875 -193.062317 
L 375.72875 -191.376327 
L 375.72875 -189.690338 
L 375.72875 -188.004348 
L 375.72875 -186.318358 
L 375.72875 -184.632368 
L 375.72875 -182.946378 
L 375.72875 -181.260388 
L 375.72875 -179.574399 
L 375.72875 -177.888409 
L 375.72875 -176.202419 
L 375.728753 -174.516429 
L 375.728754 -172.830439 
L 375.72875 -171.144449 
L 375.72875 -169.45846 
L 375.72875 -167.77247 
L 375.72875 -166.08648 
L 375.72875 -164.40049 
L 375.72875 -162.7145 
L 375.72875 -161.02851 
L 375.72875 -159.342521 
L 375.72875 -157.656531 
L 375.72875 -155.970541 
L 375.729138 -154.284551 
L 375.72875 -152.598561 
L 375.72875 -150.912571 
L 375.72875 -149.226581 
L 375.72875 -147.540592 
L 375.72875 -145.854602 
L 375.72875 -144.168612 
L 375.72875 -142.482622 
L 375.72875 -140.796632 
L 375.72875 -139.110642 
L 375.72875 -137.424653 
L 375.72875 -135.738663 
L 375.72875 -134.052673 
L 375.72875 -132.366683 
L 375.72875 -130.680693 
L 375.72875 -128.994703 
L 375.72875 -127.308714 
L 375.72875 -125.622724 
L 375.72875 -123.936734 
L 375.72875 -122.250744 
L 375.72875 -120.564754 
L 375.72875 -118.878764 
L 375.72875 -117.192775 
L 375.72875 -115.506785 
L 375.72875 -113.820795 
L 375.730113 -112.134805 
L 375.72875 -110.448815 
L 375.728872 -108.762825 
L 375.72875 -107.076836 
L 375.72875 -105.390846 
L 375.72875 -103.704856 
L 375.73253 -102.018866 
L 375.72875 -100.332876 
L 375.72875 -98.646886 
L 375.72875 -96.960897 
L 375.72875 -95.274907 
L 375.72974 -93.588917 
L 375.72875 -91.902927 
L 375.72875 -90.216937 
L 375.728796 -88.530947 
L 375.729337 -86.844957 
L 375.72875 -85.158968 
L 375.73411 -83.472978 
L 375.732336 -81.786988 
L 375.72875 -80.100998 
L 375.72875 -78.415008 
L 375.72875 -76.729018 
L 375.72875 -75.043029 
L 375.72875 -73.357039 
L 375.731715 -71.671049 
L 375.731233 -69.985059 
L 375.739418 -68.299069 
L 375.731059 -66.613079 
L 375.739392 -64.92709 
L 375.745692 -63.2411 
L 375.764827 -61.55511 
L 375.755302 -59.86912 
L 375.821292 -58.18313 
L 376.409134 -56.49714 
L 463.36175 -54.811151 
z
" style="stroke: #4c4c4c; stroke-width: 1.25"/>
    </defs>
    <g clip-path="url(#pa1cd64a1ad)">
     <use xlink:href="#m964ab4fd06" x="0" y="348.262969" style="fill: #5875a4; stroke: #4c4c4c; stroke-width: 1.25"/>
    </g>
   </g>
   <g id="line2d_1">
    <path d="M 155.286458 291.845043 
L 158.006042 291.845043 
" clip-path="url(#pa1cd64a1ad)" style="fill: none; stroke-dasharray: 1.5625,0.9375; stroke-dashoffset: 0; stroke: #4c4c4c; stroke-width: 1.25"/>
   </g>
   <g id="line2d_2">
    <path d="M 156.245756 272.638344 
L 157.046744 272.638344 
" clip-path="url(#pa1cd64a1ad)" style="fill: none; stroke-dasharray: 3.125,1.25; stroke-dashoffset: 0; stroke: #4c4c4c; stroke-width: 1.25"/>
   </g>
   <g id="line2d_3">
    <path d="M 156.407946 225.623922 
L 156.884554 225.623922 
" clip-path="url(#pa1cd64a1ad)" style="fill: none; stroke-dasharray: 1.5625,0.9375; stroke-dashoffset: 0; stroke: #4c4c4c; stroke-width: 1.25"/>
   </g>
   <g id="line2d_4">
    <path d="M 288.09575 293.451818 
L 463.36175 293.451818 
" clip-path="url(#pa1cd64a1ad)" style="fill: none; stroke-dasharray: 1.5625,0.9375; stroke-dashoffset: 0; stroke: #4c4c4c; stroke-width: 1.25"/>
   </g>
   <g id="line2d_5">
    <path d="M 288.09575 293.451818 
L 463.36175 293.451818 
" clip-path="url(#pa1cd64a1ad)" style="fill: none; stroke-dasharray: 3.125,1.25; stroke-dashoffset: 0; stroke: #4c4c4c; stroke-width: 1.25"/>
   </g>
   <g id="line2d_6">
    <path d="M 288.09575 293.451818 
L 463.36175 293.451818 
" clip-path="url(#pa1cd64a1ad)" style="fill: none; stroke-dasharray: 1.5625,0.9375; stroke-dashoffset: 0; stroke: #4c4c4c; stroke-width: 1.25"/>
   </g>
   <g id="patch_3">
    <path d="M 47.105 306.388125 
L 47.105 21.789375 
" style="fill: none; stroke: #262626; stroke-width: 1.25; stroke-linejoin: miter; stroke-linecap: square"/>
   </g>
   <g id="patch_4">
    <path d="M 485.27 306.388125 
L 485.27 21.789375 
" style="fill: none; stroke: #262626; stroke-width: 1.25; stroke-linejoin: miter; stroke-linecap: square"/>
   </g>
   <g id="patch_5">
    <path d="M 47.105 306.388125 
L 485.27 306.388125 
" style="fill: none; stroke: #262626; stroke-width: 1.25; stroke-linejoin: miter; stroke-linecap: square"/>
   </g>
   <g id="patch_6">
    <path d="M 47.105 21.789375 
L 485.27 21.789375 
" style="fill: none; stroke: #262626; stroke-width: 1.25; stroke-linejoin: miter; stroke-linecap: square"/>
   </g>
   <g id="text_11">
    <!-- Matched vs random activation overlap -->
    <g style="fill: #262626" transform="translate(165.14375 15.789375) scale(0.12 -0.12)">
     <defs>
      <path id="ArialMT-4d" d="M 475 0 
L 475 4581 
L 1388 4581 
L 2472 1338 
Q 2622 884 2691 659 
Q 2769 909 2934 1394 
L 4031 4581 
L 4847 4581 
L 4847 0 
L 4263 0 
L 4263 3834 
L 2931 0 
L 2384 0 
L 1059 3900 
L 1059 0 
L 475 0 
z
" transform="scale(0.015625)"/>
      <path id="ArialMT-20" transform="scale(0.015625)"/>
      <path id="ArialMT-76" d="M 1344 0 
L 81 3319 
L 675 3319 
L 1388 1331 
Q 1503 1009 1600 663 
Q 1675 925 1809 1294 
L 2547 3319 
L 3125 3319 
L 1869 0 
L 1344 0 
z
" transform="scale(0.015625)"/>
      <path id="ArialMT-73" d="M 197 991 
L 753 1078 
Q 800 744 1014 566 
Q 1228 388 1613 388 
Q 2000 388 2187 545 
Q 2375 703 2375 916 
Q 2375 1106 2209 1216 
Q 2094 1291 1634 1406 
Q 1016 1563 777 1677 
Q 538 1791 414 1992 
Q 291 2194 291 2438 
Q 291 2659 392 2848 
Q 494 3038 669 3163 
Q 800 3259 1026 3326 
Q 1253 3394 1513 3394 
Q 1903 3394 2198 3281 
Q 2494 3169 2634 2976 
Q 2775 2784 2828 2463 
L 2278 2388 
Q 2241 2644 2061 2787 
Q 1881 2931 1553 2931 
Q 1166 2931 1000 2803 
Q 834 2675 834 2503 
Q 834 2394 903 2306 
Q 972 2216 1119 2156 
Q 1203 2125 1616 2013 
Q 2213 1853 2448 1751 
Q 2684 1650 2818 1456 
Q 2953 1263 2953 975 
Q 2953 694 2789 445 
Q 2625 197 2315 61 
Q 2006 -75 1616 -75 
Q 969 -75 630 194 
Q 291 463 197 991 
z
" transform="scale(0.015625)"/>
      <path id="ArialMT-6c" d="M 409 0 
L 409 4581 
L 972 4581 
L 972 0 
L 409 0 
z
" transform="scale(0.015625)"/>
     </defs>
     <use xlink:href="#ArialMT-4d"/>
     <use xlink:href="#ArialMT-61" x="83.300781"/>
     <use xlink:href="#ArialMT-74" x="138.916016"/>
     <use xlink:href="#ArialMT-63" x="166.699219"/>
     <use xlink:href="#ArialMT-68" x="216.699219"/>
     <use xlink:href="#ArialMT-65" x="272.314453"/>
     <use xlink:href="#ArialMT-64" x="327.929688"/>
     <use xlink:href="#ArialMT-20" x="383.544922"/>
     <use xlink:href="#ArialMT-76" x="411.328125"/>
     <use xlink:href="#ArialMT-73" x="461.328125"/>
     <use xlink:href="#ArialMT-20" x="511.328125"/>
     <use xlink:href="#ArialMT-72" x="539.111328"/>
     <use xlink:href="#ArialMT-61" x="572.412109"/>
     <use xlink:href="#ArialMT-6e" x="628.027344"/>
     <use xlink:href="#ArialMT-64" x="683.642578"/>
     <use xlink:href="#ArialMT-6f" x="739.257812"/>
     <use xlink:href="#ArialMT-6d" x="794.873047"/>
     <use xlink:href="#ArialMT-20" x="878.173828"/>
     <use xlink:href="#ArialMT-61" x="905.957031"/>
     <use xlink:href="#ArialMT-63" x="961.572266"/>
     <use xlink:href="#ArialMT-74" x="1011.572266"/>
     <use xlink:href="#ArialMT-69" x="1039.355469"/>
     <use xlink:href="#ArialMT-76" x="1061.572266"/>
     <use xlink:href="#ArialMT-61" x="1111.572266"/>
     <use xlink:href="#ArialMT-74" x="1167.1875"/>
     <use xlink:href="#ArialMT-69" x="1194.970703"/>
     <use xlink:href="#ArialMT-6f" x="1217.1875"/>
     <use xlink:href="#ArialMT-6e" x="1272.802734"/>
     <use xlink:href="#ArialMT-20" x="1328.417969"/>
     <use xlink:href="#ArialMT-6f" x="1356.201172"/>
     <use xlink:href="#ArialMT-76" x="1411.816406"/>
     <use xlink:href="#ArialMT-65" x="1461.816406"/>
     <use xlink:href="#ArialMT-72" x="1517.431641"/>
     <use xlink:href="#ArialMT-6c" x="1550.732422"/>
     <use xlink:href="#ArialMT-61" x="1572.949219"/>
     <use xlink:href="#ArialMT-70" x="1628.564453"/>
    </g>
   </g>
  </g>
 </g>
 <defs>
  <clipPath id="pa1cd64a1ad">
   <rect x="47.105" y="21.789375" width="438.165" height="284.59875"/>
  </clipPath>
 </defs>
</svg>
