<?xml version="1.0" encoding="utf-8" standalone="no"?>
<!DOCTYPE svg PUBLIC "-//W3C//DTD SVG 1.1//EN"
  "http://www.w3.org/Graphics/SVG/1.1/DTD/svg11.dtd">
<svg xmlns:xlink="http://www.w3.org/1999/xlink" width="851.563725pt" height="339.922219pt" viewBox="0 0 851.563725 339.922219" xmlns="http://www.w3.org/2000/svg" version="1.1">
 <metadata>
  <rdf:RDF xmlns:dc="http://purl.org/dc/elements/1.1/" xmlns:cc="http://creativecommons.org/ns#" xmlns:rdf="http://www.w3.org/1999/02/22-rdf-syntax-ns#">
   <cc:Work>
    <dc:type rdf:resource="http://purl.org/dc/dcmitype/StillImage"/>
    <dc:date>2026-07-21T00:49:06.532888</dc:date>
    <dc:format>image/svg+xml</dc:format>
    <dc:creator>
     <cc:Agent>
      <dc:title>Matplotlib v3.9.2, https://matplotlib.org/</dc:title>
     </cc:Agent>
    </dc:creator>
   </cc:Work>
  </rdf:RDF>
 </metadata>
 <defs>
  <style type="text/css">*{stroke-linejoin: round; stroke-linecap: butt}</style>
 </defs>
 <g id="figure_1">
  <g id="patch_1">
   <path d="M 0 339.922219 
L 851.563725 339.922219 
L 851.563725 0 
L 0 0 
z
" style="fill: #ffffff"/>
  </g>
  <g id="axes_1">
   <g id="patch_2">
    <path d="M 37.932031 298.188 
L 426.64897 298.188 
L 426.64897 39.229875 
L 37.932031 39.229875 
z
" style="fill: #ffffff"/>
   </g>
   <g id="matplotlib.axis_1">
    <g id="xtick_1">
     <g id="text_1">
      <!-- 0.0 -->
      <g style="fill: #262626" transform="translate(30.287031 315.561594) scale(0.11 -0.11)">
       <defs>
        <path id="ArialMT-30" d="M 266 2259 
Q 266 3072 433 3567 
Q 600 4063 929 4331 
Q 1259 4600 1759 4600 
Q 2128 4600 2406 4451 
Q 2684 4303 2865 4023 
Q 3047 3744 3150 3342 
Q 3253 2941 3253 2259 
Q 3253 1453 3087 958 
Q 2922 463 2592 192 
Q 2263 -78 1759 -78 
Q 1097 -78 719 397 
Q 266 969 266 2259 
z
M 844 2259 
Q 844 1131 1108 757 
Q 1372 384 1759 384 
Q 2147 384 2411 759 
Q 2675 1134 2675 2259 
Q 2675 3391 2411 3762 
Q 2147 4134 1753 4134 
Q 1366 4134 1134 3806 
Q 844 3388 844 2259 
z
" transform="scale(0.015625)"/>
        <path id="ArialMT-2e" d="M 581 0 
L 581 641 
L 1222 641 
L 1222 0 
L 581 0 
z
" transform="scale(0.015625)"/>
       </defs>
       <use xlink:href="#ArialMT-30"/>
       <use xlink:href="#ArialMT-2e" x="55.615234"/>
       <use xlink:href="#ArialMT-30" x="83.398438"/>
      </g>
     </g>
    </g>
    <g id="xtick_2">
     <g id="text_2">
      <!-- 0.2 -->
      <g style="fill: #262626" transform="translate(107.260683 315.561594) scale(0.11 -0.11)">
       <defs>
        <path id="ArialMT-32" d="M 3222 541 
L 3222 0 
L 194 0 
Q 188 203 259 391 
Q 375 700 629 1000 
Q 884 1300 1366 1694 
Q 2113 2306 2375 2664 
Q 2638 3022 2638 3341 
Q 2638 3675 2398 3904 
Q 2159 4134 1775 4134 
Q 1369 4134 1125 3890 
Q 881 3647 878 3216 
L 300 3275 
Q 359 3922 746 4261 
Q 1134 4600 1788 4600 
Q 2447 4600 2831 4234 
Q 3216 3869 3216 3328 
Q 3216 3053 3103 2787 
Q 2991 2522 2730 2228 
Q 2469 1934 1863 1422 
Q 1356 997 1212 845 
Q 1069 694 975 541 
L 3222 541 
z
" transform="scale(0.015625)"/>
       </defs>
       <use xlink:href="#ArialMT-30"/>
       <use xlink:href="#ArialMT-2e" x="55.615234"/>
       <use xlink:href="#ArialMT-32" x="83.398438"/>
      </g>
     </g>
    </g>
    <g id="xtick_3">
     <g id="text_3">
      <!-- 0.4 -->
      <g style="fill: #262626" transform="translate(184.234334 315.561594) scale(0.11 -0.11)">
       <defs>
        <path id="ArialMT-34" d="M 2069 0 
L 2069 1097 
L 81 1097 
L 81 1613 
L 2172 4581 
L 2631 4581 
L 2631 1613 
L 3250 1613 
L 3250 1097 
L 2631 1097 
L 2631 0 
L 2069 0 
z
M 2069 1613 
L 2069 3678 
L 634 1613 
L 2069 1613 
z
" transform="scale(0.015625)"/>
       </defs>
       <use xlink:href="#ArialMT-30"/>
       <use xlink:href="#ArialMT-2e" x="55.615234"/>
       <use xlink:href="#ArialMT-34" x="83.398438"/>
      </g>
     </g>
    </g>
    <g id="xtick_4">
     <g id="text_4">
      <!-- 0.6 -->
      <g style="fill: #262626" transform="translate(261.207985 315.561594) scale(0.11 -0.11)">
       <defs>
        <path id="ArialMT-36" d="M 3184 3459 
L 2625 3416 
Q 2550 3747 2413 3897 
Q 2184 4138 1850 4138 
Q 1581 4138 1378 3988 
Q 1113 3794 959 3422 
Q 806 3050 800 2363 
Q 1003 2672 1297 2822 
Q 1591 2972 1913 2972 
Q 2475 2972 2870 2558 
Q 3266 2144 3266 1488 
Q 3266 1056 3080 686 
Q 2894 316 2569 119 
Q 2244 -78 1831 -78 
Q 1128 -78 684 439 
Q 241 956 241 2144 
Q 241 3472 731 4075 
Q 1159 4600 1884 4600 
Q 2425 4600 2770 4297 
Q 3116 3994 3184 3459 
z
M 888 1484 
Q 888 1194 1011 928 
Q 1134 663 1356 523 
Q 1578 384 1822 384 
Q 2178 384 2434 671 
Q 2691 959 2691 1453 
Q 2691 1928 2437 2201 
Q 2184 2475 1800 2475 
Q 1419 2475 1153 2201 
Q 888 1928 888 1484 
z
" transform="scale(0.015625)"/>
       </defs>
       <use xlink:href="#ArialMT-30"/>
       <use xlink:href="#ArialMT-2e" x="55.615234"/>
       <use xlink:href="#ArialMT-36" x="83.398438"/>
      </g>
     </g>
    </g>
    <g id="xtick_5">
     <g id="text_5">
      <!-- 0.8 -->
      <g style="fill: #262626" transform="translate(338.181636 315.561594) scale(0.11 -0.11)">
       <defs>
        <path id="ArialMT-38" d="M 1131 2484 
Q 781 2613 612 2850 
Q 444 3088 444 3419 
Q 444 3919 803 4259 
Q 1163 4600 1759 4600 
Q 2359 4600 2725 4251 
Q 3091 3903 3091 3403 
Q 3091 3084 2923 2848 
Q 2756 2613 2416 2484 
Q 2838 2347 3058 2040 
Q 3278 1734 3278 1309 
Q 3278 722 2862 322 
Q 2447 -78 1769 -78 
Q 1091 -78 675 323 
Q 259 725 259 1325 
Q 259 1772 486 2073 
Q 713 2375 1131 2484 
z
M 1019 3438 
Q 1019 3113 1228 2906 
Q 1438 2700 1772 2700 
Q 2097 2700 2305 2904 
Q 2513 3109 2513 3406 
Q 2513 3716 2298 3927 
Q 2084 4138 1766 4138 
Q 1444 4138 1231 3931 
Q 1019 3725 1019 3438 
z
M 838 1322 
Q 838 1081 952 856 
Q 1066 631 1291 507 
Q 1516 384 1775 384 
Q 2178 384 2440 643 
Q 2703 903 2703 1303 
Q 2703 1709 2433 1975 
Q 2163 2241 1756 2241 
Q 1359 2241 1098 1978 
Q 838 1716 838 1322 
z
" transform="scale(0.015625)"/>
       </defs>
       <use xlink:href="#ArialMT-30"/>
       <use xlink:href="#ArialMT-2e" x="55.615234"/>
       <use xlink:href="#ArialMT-38" x="83.398438"/>
      </g>
     </g>
    </g>
    <g id="xtick_6">
     <g id="text_6">
      <!-- 1.0 -->
      <g style="fill: #262626" transform="translate(415.155288 315.561594) scale(0.11 -0.11)">
       <defs>
        <path id="ArialMT-31" d="M 2384 0 
L 1822 0 
L 1822 3584 
Q 1619 3391 1289 3197 
Q 959 3003 697 2906 
L 697 3450 
Q 1169 3672 1522 3987 
Q 1875 4303 2022 4600 
L 2384 4600 
L 2384 0 
z
" transform="scale(0.015625)"/>
       </defs>
       <use xlink:href="#ArialMT-31"/>
       <use xlink:href="#ArialMT-2e" x="55.615234"/>
       <use xlink:href="#ArialMT-30" x="83.398438"/>
      </g>
     </g>
    </g>
    <g id="text_7">
     <!-- Decoder matched cosine -->
     <g style="fill: #262626" transform="translate(165.925813 330.337219) scale(0.12 -0.12)">
      <defs>
       <path id="ArialMT-44" d="M 494 0 
L 494 4581 
L 2072 4581 
Q 2606 4581 2888 4516 
Q 3281 4425 3559 4188 
Q 3922 3881 4101 3404 
Q 4281 2928 4281 2316 
Q 4281 1794 4159 1391 
Q 4038 988 3847 723 
Q 3656 459 3429 307 
Q 3203 156 2883 78 
Q 2563 0 2147 0 
L 494 0 
z
M 1100 541 
L 2078 541 
Q 2531 541 2789 625 
Q 3047 709 3200 863 
Q 3416 1078 3536 1442 
Q 3656 1806 3656 2325 
Q 3656 3044 3420 3430 
Q 3184 3816 2847 3947 
Q 2603 4041 2063 4041 
L 1100 4041 
L 1100 541 
z
" transform="scale(0.015625)"/>
       <path id="ArialMT-65" d="M 2694 1069 
L 3275 997 
Q 3138 488 2766 206 
Q 2394 -75 1816 -75 
Q 1088 -75 661 373 
Q 234 822 234 1631 
Q 234 2469 665 2931 
Q 1097 3394 1784 3394 
Q 2450 3394 2872 2941 
Q 3294 2488 3294 1666 
Q 3294 1616 3291 1516 
L 816 1516 
Q 847 969 1125 678 
Q 1403 388 1819 388 
Q 2128 388 2347 550 
Q 2566 713 2694 1069 
z
M 847 1978 
L 2700 1978 
Q 2663 2397 2488 2606 
Q 2219 2931 1791 2931 
Q 1403 2931 1139 2672 
Q 875 2413 847 1978 
z
" transform="scale(0.015625)"/>
       <path id="ArialMT-63" d="M 2588 1216 
L 3141 1144 
Q 3050 572 2676 248 
Q 2303 -75 1759 -75 
Q 1078 -75 664 370 
Q 250 816 250 1647 
Q 250 2184 428 2587 
Q 606 2991 970 3192 
Q 1334 3394 1763 3394 
Q 2303 3394 2647 3120 
Q 2991 2847 3088 2344 
L 2541 2259 
Q 2463 2594 2264 2762 
Q 2066 2931 1784 2931 
Q 1359 2931 1093 2626 
Q 828 2322 828 1663 
Q 828 994 1084 691 
Q 1341 388 1753 388 
Q 2084 388 2306 591 
Q 2528 794 2588 1216 
z
" transform="scale(0.015625)"/>
       <path id="ArialMT-6f" d="M 213 1659 
Q 213 2581 725 3025 
Q 1153 3394 1769 3394 
Q 2453 3394 2887 2945 
Q 3322 2497 3322 1706 
Q 3322 1066 3130 698 
Q 2938 331 2570 128 
Q 2203 -75 1769 -75 
Q 1072 -75 642 372 
Q 213 819 213 1659 
z
M 791 1659 
Q 791 1022 1069 705 
Q 1347 388 1769 388 
Q 2188 388 2466 706 
Q 2744 1025 2744 1678 
Q 2744 2294 2464 2611 
Q 2184 2928 1769 2928 
Q 1347 2928 1069 2612 
Q 791 2297 791 1659 
z
" transform="scale(0.015625)"/>
       <path id="ArialMT-64" d="M 2575 0 
L 2575 419 
Q 2259 -75 1647 -75 
Q 1250 -75 917 144 
Q 584 363 401 755 
Q 219 1147 219 1656 
Q 219 2153 384 2558 
Q 550 2963 881 3178 
Q 1213 3394 1622 3394 
Q 1922 3394 2156 3267 
Q 2391 3141 2538 2938 
L 2538 4581 
L 3097 4581 
L 3097 0 
L 2575 0 
z
M 797 1656 
Q 797 1019 1065 703 
Q 1334 388 1700 388 
Q 2069 388 2326 689 
Q 2584 991 2584 1609 
Q 2584 2291 2321 2609 
Q 2059 2928 1675 2928 
Q 1300 2928 1048 2622 
Q 797 2316 797 1656 
z
" transform="scale(0.015625)"/>
       <path id="ArialMT-72" d="M 416 0 
L 416 3319 
L 922 3319 
L 922 2816 
Q 1116 3169 1280 3281 
Q 1444 3394 1641 3394 
Q 1925 3394 2219 3213 
L 2025 2691 
Q 1819 2813 1613 2813 
Q 1428 2813 1281 2702 
Q 1134 2591 1072 2394 
Q 978 2094 978 1738 
L 978 0 
L 416 0 
z
" transform="scale(0.015625)"/>
       <path id="ArialMT-20" transform="scale(0.015625)"/>
       <path id="ArialMT-6d" d="M 422 0 
L 422 3319 
L 925 3319 
L 925 2853 
Q 1081 3097 1340 3245 
Q 1600 3394 1931 3394 
Q 2300 3394 2536 3241 
Q 2772 3088 2869 2813 
Q 3263 3394 3894 3394 
Q 4388 3394 4653 3120 
Q 4919 2847 4919 2278 
L 4919 0 
L 4359 0 
L 4359 2091 
Q 4359 2428 4304 2576 
Q 4250 2725 4106 2815 
Q 3963 2906 3769 2906 
Q 3419 2906 3187 2673 
Q 2956 2441 2956 1928 
L 2956 0 
L 2394 0 
L 2394 2156 
Q 2394 2531 2256 2718 
Q 2119 2906 1806 2906 
Q 1569 2906 1367 2781 
Q 1166 2656 1075 2415 
Q 984 2175 984 1722 
L 984 0 
L 422 0 
z
" transform="scale(0.015625)"/>
       <path id="ArialMT-61" d="M 2588 409 
Q 2275 144 1986 34 
Q 1697 -75 1366 -75 
Q 819 -75 525 192 
Q 231 459 231 875 
Q 231 1119 342 1320 
Q 453 1522 633 1644 
Q 813 1766 1038 1828 
Q 1203 1872 1538 1913 
Q 2219 1994 2541 2106 
Q 2544 2222 2544 2253 
Q 2544 2597 2384 2738 
Q 2169 2928 1744 2928 
Q 1347 2928 1158 2789 
Q 969 2650 878 2297 
L 328 2372 
Q 403 2725 575 2942 
Q 747 3159 1072 3276 
Q 1397 3394 1825 3394 
Q 2250 3394 2515 3294 
Q 2781 3194 2906 3042 
Q 3031 2891 3081 2659 
Q 3109 2516 3109 2141 
L 3109 1391 
Q 3109 606 3145 398 
Q 3181 191 3288 0 
L 2700 0 
Q 2613 175 2588 409 
z
M 2541 1666 
Q 2234 1541 1622 1453 
Q 1275 1403 1131 1340 
Q 988 1278 909 1158 
Q 831 1038 831 891 
Q 831 666 1001 516 
Q 1172 366 1500 366 
Q 1825 366 2078 508 
Q 2331 650 2450 897 
Q 2541 1088 2541 1459 
L 2541 1666 
z
" transform="scale(0.015625)"/>
       <path id="ArialMT-74" d="M 1650 503 
L 1731 6 
Q 1494 -44 1306 -44 
Q 1000 -44 831 53 
Q 663 150 594 308 
Q 525 466 525 972 
L 525 2881 
L 113 2881 
L 113 3319 
L 525 3319 
L 525 4141 
L 1084 4478 
L 1084 3319 
L 1650 3319 
L 1650 2881 
L 1084 2881 
L 1084 941 
Q 1084 700 1114 631 
Q 1144 563 1211 522 
Q 1278 481 1403 481 
Q 1497 481 1650 503 
z
" transform="scale(0.015625)"/>
       <path id="ArialMT-68" d="M 422 0 
L 422 4581 
L 984 4581 
L 984 2938 
Q 1378 3394 1978 3394 
Q 2347 3394 2619 3248 
Q 2891 3103 3008 2847 
Q 3125 2591 3125 2103 
L 3125 0 
L 2563 0 
L 2563 2103 
Q 2563 2525 2380 2717 
Q 2197 2909 1863 2909 
Q 1613 2909 1392 2779 
Q 1172 2650 1078 2428 
Q 984 2206 984 1816 
L 984 0 
L 422 0 
z
" transform="scale(0.015625)"/>
       <path id="ArialMT-73" d="M 197 991 
L 753 1078 
Q 800 744 1014 566 
Q 1228 388 1613 388 
Q 2000 388 2187 545 
Q 2375 703 2375 916 
Q 2375 1106 2209 1216 
Q 2094 1291 1634 1406 
Q 1016 1563 777 1677 
Q 538 1791 414 1992 
Q 291 2194 291 2438 
Q 291 2659 392 2848 
Q 494 3038 669 3163 
Q 800 3259 1026 3326 
Q 1253 3394 1513 3394 
Q 1903 3394 2198 3281 
Q 2494 3169 2634 2976 
Q 2775 2784 2828 2463 
L 2278 2388 
Q 2241 2644 2061 2787 
Q 1881 2931 1553 2931 
Q 1166 2931 1000 2803 
Q 834 2675 834 2503 
Q 834 2394 903 2306 
Q 972 2216 1119 2156 
Q 1203 2125 1616 2013 
Q 2213 1853 2448 1751 
Q 2684 1650 2818 1456 
Q 2953 1263 2953 975 
Q 2953 694 2789 445 
Q 2625 197 2315 61 
Q 2006 -75 1616 -75 
Q 969 -75 630 194 
Q 291 463 197 991 
z
" transform="scale(0.015625)"/>
       <path id="ArialMT-69" d="M 425 3934 
L 425 4581 
L 988 4581 
L 988 3934 
L 425 3934 
z
M 425 0 
L 425 3319 
L 988 3319 
L 988 0 
L 425 0 
z
" transform="scale(0.015625)"/>
       <path id="ArialMT-6e" d="M 422 0 
L 422 3319 
L 928 3319 
L 928 2847 
Q 1294 3394 1984 3394 
Q 2284 3394 2536 3286 
Q 2788 3178 2913 3003 
Q 3038 2828 3088 2588 
Q 3119 2431 3119 2041 
L 3119 0 
L 2556 0 
L 2556 2019 
Q 2556 2363 2490 2533 
Q 2425 2703 2258 2804 
Q 2091 2906 1866 2906 
Q 1506 2906 1245 2678 
Q 984 2450 984 1813 
L 984 0 
L 422 0 
z
" transform="scale(0.015625)"/>
      </defs>
      <use xlink:href="#ArialMT-44"/>
      <use xlink:href="#ArialMT-65" x="72.216797"/>
      <use xlink:href="#ArialMT-63" x="127.832031"/>
      <use xlink:href="#ArialMT-6f" x="177.832031"/>
      <use xlink:href="#ArialMT-64" x="233.447266"/>
      <use xlink:href="#ArialMT-65" x="289.0625"/>
      <use xlink:href="#ArialMT-72" x="344.677734"/>
      <use xlink:href="#ArialMT-20" x="377.978516"/>
      <use xlink:href="#ArialMT-6d" x="405.761719"/>
      <use xlink:href="#ArialMT-61" x="489.0625"/>
      <use xlink:href="#ArialMT-74" x="544.677734"/>
      <use xlink:href="#ArialMT-63" x="572.460938"/>
      <use xlink:href="#ArialMT-68" x="622.460938"/>
      <use xlink:href="#ArialMT-65" x="678.076172"/>
      <use xlink:href="#ArialMT-64" x="733.691406"/>
      <use xlink:href="#ArialMT-20" x="789.306641"/>
      <use xlink:href="#ArialMT-63" x="817.089844"/>
      <use xlink:href="#ArialMT-6f" x="867.089844"/>
      <use xlink:href="#ArialMT-73" x="922.705078"/>
      <use xlink:href="#ArialMT-69" x="972.705078"/>
      <use xlink:href="#ArialMT-6e" x="994.921875"/>
      <use xlink:href="#ArialMT-65" x="1050.537109"/>
     </g>
    </g>
   </g>
   <g id="matplotlib.axis_2">
    <g id="ytick_1">
     <g id="text_8">
      <!-- 0 -->
      <g style="fill: #262626" transform="translate(22.315 302.124797) scale(0.11 -0.11)">
       <use xlink:href="#ArialMT-30"/>
      </g>
     </g>
    </g>
    <g id="ytick_2">
     <g id="text_9">
      <!-- 1 -->
      <g style="fill: #262626" transform="translate(22.315 262.488592) scale(0.11 -0.11)">
       <use xlink:href="#ArialMT-31"/>
      </g>
     </g>
    </g>
    <g id="ytick_3">
     <g id="text_10">
      <!-- 2 -->
      <g style="fill: #262626" transform="translate(22.315 222.852386) scale(0.11 -0.11)">
       <use xlink:href="#ArialMT-32"/>
      </g>
     </g>
    </g>
    <g id="ytick_4">
     <g id="text_11">
      <!-- 3 -->
      <g style="fill: #262626" transform="translate(22.315 183.216181) scale(0.11 -0.11)">
       <defs>
        <path id="ArialMT-33" d="M 269 1209 
L 831 1284 
Q 928 806 1161 595 
Q 1394 384 1728 384 
Q 2125 384 2398 659 
Q 2672 934 2672 1341 
Q 2672 1728 2419 1979 
Q 2166 2231 1775 2231 
Q 1616 2231 1378 2169 
L 1441 2663 
Q 1497 2656 1531 2656 
Q 1891 2656 2178 2843 
Q 2466 3031 2466 3422 
Q 2466 3731 2256 3934 
Q 2047 4138 1716 4138 
Q 1388 4138 1169 3931 
Q 950 3725 888 3313 
L 325 3413 
Q 428 3978 793 4289 
Q 1159 4600 1703 4600 
Q 2078 4600 2393 4439 
Q 2709 4278 2876 4000 
Q 3044 3722 3044 3409 
Q 3044 3113 2884 2869 
Q 2725 2625 2413 2481 
Q 2819 2388 3044 2092 
Q 3269 1797 3269 1353 
Q 3269 753 2831 336 
Q 2394 -81 1725 -81 
Q 1122 -81 723 278 
Q 325 638 269 1209 
z
" transform="scale(0.015625)"/>
       </defs>
       <use xlink:href="#ArialMT-33"/>
      </g>
     </g>
    </g>
    <g id="ytick_5">
     <g id="text_12">
      <!-- 4 -->
      <g style="fill: #262626" transform="translate(22.315 143.579976) scale(0.11 -0.11)">
       <use xlink:href="#ArialMT-34"/>
      </g>
     </g>
    </g>
    <g id="ytick_6">
     <g id="text_13">
      <!-- 5 -->
      <g style="fill: #262626" transform="translate(22.315 103.943771) scale(0.11 -0.11)">
       <defs>
        <path id="ArialMT-35" d="M 266 1200 
L 856 1250 
Q 922 819 1161 601 
Q 1400 384 1738 384 
Q 2144 384 2425 690 
Q 2706 997 2706 1503 
Q 2706 1984 2436 2262 
Q 2166 2541 1728 2541 
Q 1456 2541 1237 2417 
Q 1019 2294 894 2097 
L 366 2166 
L 809 4519 
L 3088 4519 
L 3088 3981 
L 1259 3981 
L 1013 2750 
Q 1425 3038 1878 3038 
Q 2478 3038 2890 2622 
Q 3303 2206 3303 1553 
Q 3303 931 2941 478 
Q 2500 -78 1738 -78 
Q 1113 -78 717 272 
Q 322 622 266 1200 
z
" transform="scale(0.015625)"/>
       </defs>
       <use xlink:href="#ArialMT-35"/>
      </g>
     </g>
    </g>
    <g id="ytick_7">
     <g id="text_14">
      <!-- 6 -->
      <g style="fill: #262626" transform="translate(22.315 64.307565) scale(0.11 -0.11)">
       <use xlink:href="#ArialMT-36"/>
      </g>
     </g>
    </g>
    <g id="text_15">
     <!-- Density -->
     <g style="fill: #262626" transform="translate(15.789375 188.715187) rotate(-90) scale(0.12 -0.12)">
      <defs>
       <path id="ArialMT-79" d="M 397 -1278 
L 334 -750 
Q 519 -800 656 -800 
Q 844 -800 956 -737 
Q 1069 -675 1141 -563 
Q 1194 -478 1313 -144 
Q 1328 -97 1363 -6 
L 103 3319 
L 709 3319 
L 1400 1397 
Q 1534 1031 1641 628 
Q 1738 1016 1872 1384 
L 2581 3319 
L 3144 3319 
L 1881 -56 
Q 1678 -603 1566 -809 
Q 1416 -1088 1222 -1217 
Q 1028 -1347 759 -1347 
Q 597 -1347 397 -1278 
z
" transform="scale(0.015625)"/>
      </defs>
      <use xlink:href="#ArialMT-44"/>
      <use xlink:href="#ArialMT-65" x="72.216797"/>
      <use xlink:href="#ArialMT-6e" x="127.832031"/>
      <use xlink:href="#ArialMT-73" x="183.447266"/>
      <use xlink:href="#ArialMT-69" x="233.447266"/>
      <use xlink:href="#ArialMT-74" x="255.664062"/>
      <use xlink:href="#ArialMT-79" x="283.447266"/>
     </g>
    </g>
   </g>
   <g id="line2d_1">
    <path d="M 77.561722 296.384181 
L 84.461473 296.384181 
L 84.461473 278.42798 
L 91.361224 278.42798 
L 91.361224 225.871246 
L 98.260974 225.871246 
L 98.260974 158.801966 
L 105.160725 158.801966 
L 105.160725 102.391619 
L 112.060476 102.391619 
L 112.060476 107.06515 
L 118.960226 107.06515 
L 118.960226 159.129933 
L 125.859977 159.129933 
L 125.859977 208.488988 
L 132.759728 208.488988 
L 132.759728 226.52718 
L 139.659478 226.52718 
L 139.659478 224.887345 
L 146.559229 224.887345 
L 146.559229 214.802355 
L 153.45898 214.802355 
L 153.45898 212.752561 
L 160.35873 212.752561 
L 160.35873 205.537284 
L 167.258481 205.537284 
L 167.258481 217.672068 
L 174.158232 217.672068 
L 174.158232 220.951739 
L 181.057982 220.951739 
L 181.057982 233.41449 
L 187.957733 233.41449 
L 187.957733 246.779151 
L 194.857484 246.779151 
L 194.857484 250.222806 
L 201.757234 250.222806 
L 201.757234 256.946132 
L 208.656985 256.946132 
L 208.656985 261.619664 
L 215.556736 261.619664 
L 215.556736 263.915434 
L 222.456486 263.915434 
L 222.456486 262.193607 
L 229.356237 262.193607 
L 229.356237 265.309294 
L 236.255988 265.309294 
L 236.255988 265.473278 
L 243.155738 265.473278 
L 243.155738 263.915434 
L 250.055489 263.915434 
L 250.055489 264.817344 
L 256.95524 264.817344 
L 256.95524 263.997426 
L 263.85499 263.997426 
L 263.85499 266.94913 
L 270.754741 266.94913 
L 270.754741 261.619664 
L 277.654492 261.619664 
L 277.654492 262.931533 
L 284.554242 262.931533 
L 284.554242 259.733853 
L 291.453993 259.733853 
L 291.453993 264.981327 
L 298.353744 264.981327 
L 298.353744 265.227303 
L 305.253494 265.227303 
L 305.253494 270.556769 
L 312.153245 270.556769 
L 312.153245 278.100013 
L 319.052996 278.100013 
L 319.052996 280.969725 
L 325.952746 280.969725 
L 325.952746 281.297692 
L 332.852497 281.297692 
L 332.852497 288.594961 
L 339.752248 288.594961 
L 339.752248 290.234797 
L 346.651998 290.234797 
L 346.651998 292.776542 
L 353.551749 292.776542 
L 353.551749 295.482271 
L 360.4515 295.482271 
L 360.4515 296.79414 
L 367.35125 296.79414 
L 367.35125 297.696049 
L 374.251001 297.696049 
L 374.251001 297.614058 
L 381.150752 297.614058 
L 381.150752 298.024016 
L 388.050502 298.024016 
L 388.050502 298.024016 
L 394.950253 298.024016 
L 394.950253 298.106008 
L 401.850004 298.106008 
L 401.850004 298.106008 
L 408.749754 298.106008 
L 408.749754 298.188 
L 415.649505 298.188 
L 415.649505 298.188 
L 422.549256 298.188 
L 422.549256 298.188 
" clip-path="url(#p176b07401d)" style="fill: none; stroke: #dd8452; stroke-width: 1.5; stroke-linecap: round"/>
   </g>
   <g id="line2d_2">
    <path d="M 77.561722 298.188 
L 84.461473 298.188 
L 84.461473 298.188 
L 91.361224 298.188 
L 91.361224 298.188 
L 98.260974 298.188 
L 98.260974 298.188 
L 105.160725 298.188 
L 105.160725 298.188 
L 112.060476 298.188 
L 112.060476 298.188 
L 118.960226 298.188 
L 118.960226 298.188 
L 125.859977 298.188 
L 125.859977 298.188 
L 132.759728 298.188 
L 132.759728 298.188 
L 139.659478 298.188 
L 139.659478 298.188 
L 146.559229 298.188 
L 146.559229 298.188 
L 153.45898 298.188 
L 153.45898 298.188 
L 160.35873 298.188 
L 160.35873 298.188 
L 167.258481 298.188 
L 167.258481 298.188 
L 174.158232 298.188 
L 174.158232 298.188 
L 181.057982 298.188 
L 181.057982 298.188 
L 187.957733 298.188 
L 187.957733 298.188 
L 194.857484 298.188 
L 194.857484 298.188 
L 201.757234 298.188 
L 201.757234 298.188 
L 208.656985 298.188 
L 208.656985 298.188 
L 215.556736 298.188 
L 215.556736 298.188 
L 222.456486 298.188 
L 222.456486 298.188 
L 229.356237 298.188 
L 229.356237 298.188 
L 236.255988 298.188 
L 236.255988 298.188 
L 243.155738 298.188 
L 243.155738 298.188 
L 250.055489 298.188 
L 250.055489 298.188 
L 256.95524 298.188 
L 256.95524 298.188 
L 263.85499 298.188 
L 263.85499 298.188 
L 270.754741 298.188 
L 270.754741 298.188 
L 277.654492 298.188 
L 277.654492 298.188 
L 284.554242 298.188 
L 284.554242 298.188 
L 291.453993 298.188 
L 291.453993 298.188 
L 298.353744 298.188 
L 298.353744 298.188 
L 305.253494 298.188 
L 305.253494 261.612571 
L 312.153245 261.612571 
L 312.153245 237.99094 
L 319.052996 237.99094 
L 319.052996 229.609071 
L 325.952746 229.609071 
L 325.952746 200.272529 
L 332.852497 200.272529 
L 332.852497 193.79563 
L 339.752248 193.79563 
L 339.752248 183.127797 
L 346.651998 183.127797 
L 346.651998 173.98394 
L 353.551749 173.98394 
L 353.551749 155.696225 
L 360.4515 155.696225 
L 360.4515 147.314356 
L 367.35125 147.314356 
L 367.35125 145.409386 
L 374.251001 145.409386 
L 374.251001 129.78863 
L 381.150752 129.78863 
L 381.150752 139.694475 
L 388.050502 139.694475 
L 388.050502 132.836583 
L 394.950253 132.836583 
L 394.950253 129.026642 
L 401.850004 129.026642 
L 401.850004 130.169624 
L 408.749754 130.169624 
L 408.749754 128.645648 
L 415.649505 128.645648 
L 415.649505 139.313481 
L 422.549256 139.313481 
L 422.549256 139.313481 
" clip-path="url(#p176b07401d)" style="fill: none; stroke: #4c72b0; stroke-width: 1.5; stroke-linecap: round"/>
   </g>
   <g id="patch_3">
    <path d="M 37.932031 298.188 
L 37.932031 39.229875 
" style="fill: none; stroke: #262626; stroke-width: 1.25; stroke-linejoin: miter; stroke-linecap: square"/>
   </g>
   <g id="patch_4">
    <path d="M 426.64897 298.188 
L 426.64897 39.229875 
" style="fill: none; stroke: #262626; stroke-width: 1.25; stroke-linejoin: miter; stroke-linecap: square"/>
   </g>
   <g id="patch_5">
    <path d="M 37.932031 298.188 
L 426.64897 298.188 
" style="fill: none; stroke: #262626; stroke-width: 1.25; stroke-linejoin: miter; stroke-linecap: square"/>
   </g>
   <g id="patch_6">
    <path d="M 37.932031 39.229875 
L 426.64897 39.229875 
" style="fill: none; stroke: #262626; stroke-width: 1.25; stroke-linejoin: miter; stroke-linecap: square"/>
   </g>
   <g id="legend_1">
    <g id="patch_7">
     <path d="M 347.062251 95.764875 
L 418.94897 95.764875 
Q 421.14897 95.764875 421.14897 93.564875 
L 421.14897 46.929875 
Q 421.14897 44.729875 418.94897 44.729875 
L 347.062251 44.729875 
Q 344.862251 44.729875 344.862251 46.929875 
L 344.862251 93.564875 
Q 344.862251 95.764875 347.062251 95.764875 
z
" style="fill: #ffffff; opacity: 0.8; stroke: #cccccc; stroke-linejoin: miter"/>
    </g>
    <g id="text_16">
     <!-- Latent class -->
     <g style="fill: #262626" transform="translate(350.989048 57.71925) scale(0.12 -0.12)">
      <defs>
       <path id="ArialMT-4c" d="M 469 0 
L 469 4581 
L 1075 4581 
L 1075 541 
L 3331 541 
L 3331 0 
L 469 0 
z
" transform="scale(0.015625)"/>
       <path id="ArialMT-6c" d="M 409 0 
L 409 4581 
L 972 4581 
L 972 0 
L 409 0 
z
" transform="scale(0.015625)"/>
      </defs>
      <use xlink:href="#ArialMT-4c"/>
      <use xlink:href="#ArialMT-61" x="55.615234"/>
      <use xlink:href="#ArialMT-74" x="111.230469"/>
      <use xlink:href="#ArialMT-65" x="139.013672"/>
      <use xlink:href="#ArialMT-6e" x="194.628906"/>
      <use xlink:href="#ArialMT-74" x="250.244141"/>
      <use xlink:href="#ArialMT-20" x="278.027344"/>
      <use xlink:href="#ArialMT-63" x="305.810547"/>
      <use xlink:href="#ArialMT-6c" x="355.810547"/>
      <use xlink:href="#ArialMT-61" x="378.027344"/>
      <use xlink:href="#ArialMT-73" x="433.642578"/>
      <use xlink:href="#ArialMT-73" x="483.642578"/>
     </g>
    </g>
    <g id="line2d_3">
     <path d="M 349.262251 69.627844 
L 360.262251 69.627844 
L 371.262251 69.627844 
" style="fill: none; stroke: #4c72b0; stroke-width: 1.5; stroke-linecap: round"/>
    </g>
    <g id="text_17">
     <!-- Shared -->
     <g style="fill: #262626" transform="translate(380.062251 73.477844) scale(0.11 -0.11)">
      <defs>
       <path id="ArialMT-53" d="M 288 1472 
L 859 1522 
Q 900 1178 1048 958 
Q 1197 738 1509 602 
Q 1822 466 2213 466 
Q 2559 466 2825 569 
Q 3091 672 3220 851 
Q 3350 1031 3350 1244 
Q 3350 1459 3225 1620 
Q 3100 1781 2813 1891 
Q 2628 1963 1997 2114 
Q 1366 2266 1113 2400 
Q 784 2572 623 2826 
Q 463 3081 463 3397 
Q 463 3744 659 4045 
Q 856 4347 1234 4503 
Q 1613 4659 2075 4659 
Q 2584 4659 2973 4495 
Q 3363 4331 3572 4012 
Q 3781 3694 3797 3291 
L 3216 3247 
Q 3169 3681 2898 3903 
Q 2628 4125 2100 4125 
Q 1550 4125 1298 3923 
Q 1047 3722 1047 3438 
Q 1047 3191 1225 3031 
Q 1400 2872 2139 2705 
Q 2878 2538 3153 2413 
Q 3553 2228 3743 1945 
Q 3934 1663 3934 1294 
Q 3934 928 3725 604 
Q 3516 281 3123 101 
Q 2731 -78 2241 -78 
Q 1619 -78 1198 103 
Q 778 284 539 648 
Q 300 1013 288 1472 
z
" transform="scale(0.015625)"/>
      </defs>
      <use xlink:href="#ArialMT-53"/>
      <use xlink:href="#ArialMT-68" x="66.699219"/>
      <use xlink:href="#ArialMT-61" x="122.314453"/>
      <use xlink:href="#ArialMT-72" x="177.929688"/>
      <use xlink:href="#ArialMT-65" x="211.230469"/>
      <use xlink:href="#ArialMT-64" x="266.845703"/>
     </g>
    </g>
    <g id="line2d_4">
     <path d="M 349.262251 85.328625 
L 360.262251 85.328625 
L 371.262251 85.328625 
" style="fill: none; stroke: #dd8452; stroke-width: 1.5; stroke-linecap: round"/>
    </g>
    <g id="text_18">
     <!-- Orphan -->
     <g style="fill: #262626" transform="translate(380.062251 89.178625) scale(0.11 -0.11)">
      <defs>
       <path id="ArialMT-4f" d="M 309 2231 
Q 309 3372 921 4017 
Q 1534 4663 2503 4663 
Q 3138 4663 3647 4359 
Q 4156 4056 4423 3514 
Q 4691 2972 4691 2284 
Q 4691 1588 4409 1038 
Q 4128 488 3612 205 
Q 3097 -78 2500 -78 
Q 1853 -78 1343 234 
Q 834 547 571 1087 
Q 309 1628 309 2231 
z
M 934 2222 
Q 934 1394 1379 917 
Q 1825 441 2497 441 
Q 3181 441 3623 922 
Q 4066 1403 4066 2288 
Q 4066 2847 3877 3264 
Q 3688 3681 3323 3911 
Q 2959 4141 2506 4141 
Q 1863 4141 1398 3698 
Q 934 3256 934 2222 
z
" transform="scale(0.015625)"/>
       <path id="ArialMT-70" d="M 422 -1272 
L 422 3319 
L 934 3319 
L 934 2888 
Q 1116 3141 1344 3267 
Q 1572 3394 1897 3394 
Q 2322 3394 2647 3175 
Q 2972 2956 3137 2557 
Q 3303 2159 3303 1684 
Q 3303 1175 3120 767 
Q 2938 359 2589 142 
Q 2241 -75 1856 -75 
Q 1575 -75 1351 44 
Q 1128 163 984 344 
L 984 -1272 
L 422 -1272 
z
M 931 1641 
Q 931 1000 1190 694 
Q 1450 388 1819 388 
Q 2194 388 2461 705 
Q 2728 1022 2728 1688 
Q 2728 2322 2467 2637 
Q 2206 2953 1844 2953 
Q 1484 2953 1207 2617 
Q 931 2281 931 1641 
z
" transform="scale(0.015625)"/>
      </defs>
      <use xlink:href="#ArialMT-4f"/>
      <use xlink:href="#ArialMT-72" x="77.783203"/>
      <use xlink:href="#ArialMT-70" x="111.083984"/>
      <use xlink:href="#ArialMT-68" x="166.699219"/>
      <use xlink:href="#ArialMT-61" x="222.314453"/>
      <use xlink:href="#ArialMT-6e" x="277.929688"/>
     </g>
    </g>
   </g>
  </g>
  <g id="axes_2">
   <g id="patch_8">
    <path d="M 451.850469 298.188 
L 840.567408 298.188 
L 840.567408 39.229875 
L 451.850469 39.229875 
z
" style="fill: #ffffff"/>
   </g>
   <g id="matplotlib.axis_3">
    <g id="xtick_7">
     <g id="text_19">
      <!-- 0.0 -->
      <g style="fill: #262626" transform="translate(444.205469 315.561594) scale(0.11 -0.11)">
       <use xlink:href="#ArialMT-30"/>
       <use xlink:href="#ArialMT-2e" x="55.615234"/>
       <use xlink:href="#ArialMT-30" x="83.398438"/>
      </g>
     </g>
    </g>
    <g id="xtick_8">
     <g id="text_20">
      <!-- 0.2 -->
      <g style="fill: #262626" transform="translate(521.17912 315.561594) scale(0.11 -0.11)">
       <use xlink:href="#ArialMT-30"/>
       <use xlink:href="#ArialMT-2e" x="55.615234"/>
       <use xlink:href="#ArialMT-32" x="83.398438"/>
      </g>
     </g>
    </g>
    <g id="xtick_9">
     <g id="text_21">
      <!-- 0.4 -->
      <g style="fill: #262626" transform="translate(598.152771 315.561594) scale(0.11 -0.11)">
       <use xlink:href="#ArialMT-30"/>
       <use xlink:href="#ArialMT-2e" x="55.615234"/>
       <use xlink:href="#ArialMT-34" x="83.398438"/>
      </g>
     </g>
    </g>
    <g id="xtick_10">
     <g id="text_22">
      <!-- 0.6 -->
      <g style="fill: #262626" transform="translate(675.126423 315.561594) scale(0.11 -0.11)">
       <use xlink:href="#ArialMT-30"/>
       <use xlink:href="#ArialMT-2e" x="55.615234"/>
       <use xlink:href="#ArialMT-36" x="83.398438"/>
      </g>
     </g>
    </g>
    <g id="xtick_11">
     <g id="text_23">
      <!-- 0.8 -->
      <g style="fill: #262626" transform="translate(752.100074 315.561594) scale(0.11 -0.11)">
       <use xlink:href="#ArialMT-30"/>
       <use xlink:href="#ArialMT-2e" x="55.615234"/>
       <use xlink:href="#ArialMT-38" x="83.398438"/>
      </g>
     </g>
    </g>
    <g id="xtick_12">
     <g id="text_24">
      <!-- 1.0 -->
      <g style="fill: #262626" transform="translate(829.073725 315.561594) scale(0.11 -0.11)">
       <use xlink:href="#ArialMT-31"/>
       <use xlink:href="#ArialMT-2e" x="55.615234"/>
       <use xlink:href="#ArialMT-30" x="83.398438"/>
      </g>
     </g>
    </g>
    <g id="text_25">
     <!-- Encoder matched cosine -->
     <g style="fill: #262626" transform="translate(580.175188 330.337219) scale(0.12 -0.12)">
      <defs>
       <path id="ArialMT-45" d="M 506 0 
L 506 4581 
L 3819 4581 
L 3819 4041 
L 1113 4041 
L 1113 2638 
L 3647 2638 
L 3647 2100 
L 1113 2100 
L 1113 541 
L 3925 541 
L 3925 0 
L 506 0 
z
" transform="scale(0.015625)"/>
      </defs>
      <use xlink:href="#ArialMT-45"/>
      <use xlink:href="#ArialMT-6e" x="66.699219"/>
      <use xlink:href="#ArialMT-63" x="122.314453"/>
      <use xlink:href="#ArialMT-6f" x="172.314453"/>
      <use xlink:href="#ArialMT-64" x="227.929688"/>
      <use xlink:href="#ArialMT-65" x="283.544922"/>
      <use xlink:href="#ArialMT-72" x="339.160156"/>
      <use xlink:href="#ArialMT-20" x="372.460938"/>
      <use xlink:href="#ArialMT-6d" x="400.244141"/>
      <use xlink:href="#ArialMT-61" x="483.544922"/>
      <use xlink:href="#ArialMT-74" x="539.160156"/>
      <use xlink:href="#ArialMT-63" x="566.943359"/>
      <use xlink:href="#ArialMT-68" x="616.943359"/>
      <use xlink:href="#ArialMT-65" x="672.558594"/>
      <use xlink:href="#ArialMT-64" x="728.173828"/>
      <use xlink:href="#ArialMT-20" x="783.789062"/>
      <use xlink:href="#ArialMT-63" x="811.572266"/>
      <use xlink:href="#ArialMT-6f" x="861.572266"/>
      <use xlink:href="#ArialMT-73" x="917.1875"/>
      <use xlink:href="#ArialMT-69" x="967.1875"/>
      <use xlink:href="#ArialMT-6e" x="989.404297"/>
      <use xlink:href="#ArialMT-65" x="1045.019531"/>
     </g>
    </g>
   </g>
   <g id="matplotlib.axis_4">
    <g id="ytick_8"/>
    <g id="ytick_9"/>
    <g id="ytick_10"/>
    <g id="ytick_11"/>
    <g id="ytick_12"/>
    <g id="ytick_13"/>
    <g id="ytick_14"/>
   </g>
   <g id="line2d_5">
    <path d="M 501.7583 297.93392 
L 508.437968 297.93392 
L 508.437968 295.901282 
L 515.117636 295.901282 
L 515.117636 283.874838 
L 521.797304 283.874838 
L 521.797304 245.339403 
L 528.476972 245.339403 
L 528.476972 175.46746 
L 535.156639 175.46746 
L 535.156639 100.768001 
L 541.836307 100.768001 
L 541.836307 51.561214 
L 548.515975 51.561214 
L 548.515975 67.568241 
L 555.195643 67.568241 
L 555.195643 118.977053 
L 561.875311 118.977053 
L 561.875311 172.672582 
L 568.554978 172.672582 
L 568.554978 207.142741 
L 575.234646 207.142741 
L 575.234646 230.772162 
L 581.914314 230.772162 
L 581.914314 238.648635 
L 588.593982 238.648635 
L 588.593982 248.388361 
L 595.27365 248.388361 
L 595.27365 251.522011 
L 601.953317 251.522011 
L 601.953317 252.030171 
L 608.632985 252.030171 
L 608.632985 252.961797 
L 615.312653 252.961797 
L 615.312653 250.420999 
L 621.992321 250.420999 
L 621.992321 254.825049 
L 628.671989 254.825049 
L 628.671989 250.844465 
L 635.351656 250.844465 
L 635.351656 256.180141 
L 642.031324 256.180141 
L 642.031324 253.978116 
L 648.710992 253.978116 
L 648.710992 256.349527 
L 655.39066 256.349527 
L 655.39066 251.437318 
L 662.070328 251.437318 
L 662.070328 255.417902 
L 668.749995 255.417902 
L 668.749995 255.841368 
L 675.429663 255.841368 
L 675.429663 256.264834 
L 682.109331 256.264834 
L 682.109331 256.857687 
L 688.788999 256.857687 
L 688.788999 259.144405 
L 695.468666 259.144405 
L 695.468666 260.668884 
L 702.148334 260.668884 
L 702.148334 263.124989 
L 708.828002 263.124989 
L 708.828002 263.379068 
L 715.50767 263.379068 
L 715.50767 266.597412 
L 722.187338 266.597412 
L 722.187338 285.48401 
L 728.867005 285.48401 
L 728.867005 289.041127 
L 735.546673 289.041127 
L 735.546673 291.751312 
L 742.226341 291.751312 
L 742.226341 292.513551 
L 748.906009 292.513551 
L 748.906009 293.868644 
L 755.585677 293.868644 
L 755.585677 294.969656 
L 762.265344 294.969656 
L 762.265344 296.324748 
L 768.945012 296.324748 
L 768.945012 297.256374 
L 775.62468 297.256374 
L 775.62468 297.256374 
L 782.304348 297.256374 
L 782.304348 297.341067 
L 788.984016 297.341067 
L 788.984016 297.93392 
L 795.663683 297.93392 
L 795.663683 298.188 
L 802.343351 298.188 
L 802.343351 298.103307 
L 809.023019 298.103307 
L 809.023019 298.188 
L 815.702687 298.188 
L 815.702687 298.188 
L 822.382355 298.188 
L 822.382355 298.188 
L 829.062022 298.188 
L 829.062022 298.188 
L 835.74169 298.188 
L 835.74169 298.188 
" clip-path="url(#p0d706d44d1)" style="fill: none; stroke: #dd8452; stroke-width: 1.5; stroke-linecap: round"/>
   </g>
   <g id="line2d_6">
    <path d="M 501.7583 298.188 
L 508.437968 298.188 
L 508.437968 298.188 
L 515.117636 298.188 
L 515.117636 298.188 
L 521.797304 298.188 
L 521.797304 298.188 
L 528.476972 298.188 
L 528.476972 298.188 
L 535.156639 298.188 
L 535.156639 298.188 
L 541.836307 298.188 
L 541.836307 298.188 
L 548.515975 298.188 
L 548.515975 298.188 
L 555.195643 298.188 
L 555.195643 298.188 
L 561.875311 298.188 
L 561.875311 298.188 
L 568.554978 298.188 
L 568.554978 298.188 
L 575.234646 298.188 
L 575.234646 298.188 
L 581.914314 298.188 
L 581.914314 298.188 
L 588.593982 298.188 
L 588.593982 298.188 
L 595.27365 298.188 
L 595.27365 298.188 
L 601.953317 298.188 
L 601.953317 298.188 
L 608.632985 298.188 
L 608.632985 298.188 
L 615.312653 298.188 
L 615.312653 298.188 
L 621.992321 298.188 
L 621.992321 298.188 
L 628.671989 298.188 
L 628.671989 298.188 
L 635.351656 298.188 
L 635.351656 298.188 
L 642.031324 298.188 
L 642.031324 298.188 
L 648.710992 298.188 
L 648.710992 298.188 
L 655.39066 298.188 
L 655.39066 298.188 
L 662.070328 298.188 
L 662.070328 298.188 
L 668.749995 298.188 
L 668.749995 298.188 
L 675.429663 298.188 
L 675.429663 298.188 
L 682.109331 298.188 
L 682.109331 298.188 
L 688.788999 298.188 
L 688.788999 298.188 
L 695.468666 298.188 
L 695.468666 298.188 
L 702.148334 298.188 
L 702.148334 298.188 
L 708.828002 298.188 
L 708.828002 298.188 
L 715.50767 298.188 
L 715.50767 278.904192 
L 722.187338 278.904192 
L 722.187338 181.304509 
L 728.867005 181.304509 
L 728.867005 176.97549 
L 735.546673 176.97549 
L 735.546673 164.381983 
L 742.226341 164.381983 
L 742.226341 162.807795 
L 748.906009 162.807795 
L 748.906009 143.523986 
L 755.585677 143.523986 
L 755.585677 141.162704 
L 762.265344 141.162704 
L 762.265344 137.62078 
L 768.945012 137.62078 
L 768.945012 139.588515 
L 775.62468 139.588515 
L 775.62468 148.246552 
L 782.304348 148.246552 
L 782.304348 135.259497 
L 788.984016 135.259497 
L 788.984016 136.440138 
L 795.663683 136.440138 
L 795.663683 135.259497 
L 802.343351 135.259497 
L 802.343351 152.57557 
L 809.023019 152.57557 
L 809.023019 167.53036 
L 815.702687 167.53036 
L 815.702687 189.962545 
L 822.382355 189.962545 
L 822.382355 232.85918 
L 829.062022 232.85918 
L 829.062022 259.226836 
L 835.74169 259.226836 
L 835.74169 259.226836 
" clip-path="url(#p0d706d44d1)" style="fill: none; stroke: #4c72b0; stroke-width: 1.5; stroke-linecap: round"/>
   </g>
   <g id="patch_9">
    <path d="M 451.850469 298.188 
L 451.850469 39.229875 
" style="fill: none; stroke: #262626; stroke-width: 1.25; stroke-linejoin: miter; stroke-linecap: square"/>
   </g>
   <g id="patch_10">
    <path d="M 840.567408 298.188 
L 840.567408 39.229875 
" style="fill: none; stroke: #262626; stroke-width: 1.25; stroke-linejoin: miter; stroke-linecap: square"/>
   </g>
   <g id="patch_11">
    <path d="M 451.850469 298.188 
L 840.567408 298.188 
" style="fill: none; stroke: #262626; stroke-width: 1.25; stroke-linejoin: miter; stroke-linecap: square"/>
   </g>
   <g id="patch_12">
    <path d="M 451.850469 39.229875 
L 840.567408 39.229875 
" style="fill: none; stroke: #262626; stroke-width: 1.25; stroke-linejoin: miter; stroke-linecap: square"/>
   </g>
   <g id="legend_2">
    <g id="patch_13">
     <path d="M 760.980689 95.764875 
L 832.867408 95.764875 
Q 835.067408 95.764875 835.067408 93.564875 
L 835.067408 46.929875 
Q 835.067408 44.729875 832.867408 44.729875 
L 760.980689 44.729875 
Q 758.780689 44.729875 758.780689 46.929875 
L 758.780689 93.564875 
Q 758.780689 95.764875 760.980689 95.764875 
z
" style="fill: #ffffff; opacity: 0.8; stroke: #cccccc; stroke-linejoin: miter"/>
    </g>
    <g id="text_26">
     <!-- Latent class -->
     <g style="fill: #262626" transform="translate(764.907486 57.71925) scale(0.12 -0.12)">
      <use xlink:href="#ArialMT-4c"/>
      <use xlink:href="#ArialMT-61" x="55.615234"/>
      <use xlink:href="#ArialMT-74" x="111.230469"/>
      <use xlink:href="#ArialMT-65" x="139.013672"/>
      <use xlink:href="#ArialMT-6e" x="194.628906"/>
      <use xlink:href="#ArialMT-74" x="250.244141"/>
      <use xlink:href="#ArialMT-20" x="278.027344"/>
      <use xlink:href="#ArialMT-63" x="305.810547"/>
      <use xlink:href="#ArialMT-6c" x="355.810547"/>
      <use xlink:href="#ArialMT-61" x="378.027344"/>
      <use xlink:href="#ArialMT-73" x="433.642578"/>
      <use xlink:href="#ArialMT-73" x="483.642578"/>
     </g>
    </g>
    <g id="line2d_7">
     <path d="M 763.180689 69.627844 
L 774.180689 69.627844 
L 785.180689 69.627844 
" style="fill: none; stroke: #4c72b0; stroke-width: 1.5; stroke-linecap: round"/>
    </g>
    <g id="text_27">
     <!-- Shared -->
     <g style="fill: #262626" transform="translate(793.980689 73.477844) scale(0.11 -0.11)">
      <use xlink:href="#ArialMT-53"/>
      <use xlink:href="#ArialMT-68" x="66.699219"/>
      <use xlink:href="#ArialMT-61" x="122.314453"/>
      <use xlink:href="#ArialMT-72" x="177.929688"/>
      <use xlink:href="#ArialMT-65" x="211.230469"/>
      <use xlink:href="#ArialMT-64" x="266.845703"/>
     </g>
    </g>
    <g id="line2d_8">
     <path d="M 763.180689 85.328625 
L 774.180689 85.328625 
L 785.180689 85.328625 
" style="fill: none; stroke: #dd8452; stroke-width: 1.5; stroke-linecap: round"/>
    </g>
    <g id="text_28">
     <!-- Orphan -->
     <g style="fill: #262626" transform="translate(793.980689 89.178625) scale(0.11 -0.11)">
      <use xlink:href="#ArialMT-4f"/>
      <use xlink:href="#ArialMT-72" x="77.783203"/>
      <use xlink:href="#ArialMT-70" x="111.083984"/>
      <use xlink:href="#ArialMT-68" x="166.699219"/>
      <use xlink:href="#ArialMT-61" x="222.314453"/>
      <use xlink:href="#ArialMT-6e" x="277.929688"/>
     </g>
    </g>
   </g>
  </g>
  <g id="text_29">
   <!-- Matched-cosine distributions by paper latent class -->
   <g style="fill: #262626" transform="translate(266.869531 17.50725) scale(0.144 -0.144)">
    <defs>
     <path id="ArialMT-4d" d="M 475 0 
L 475 4581 
L 1388 4581 
L 2472 1338 
Q 2622 884 2691 659 
Q 2769 909 2934 1394 
L 4031 4581 
L 4847 4581 
L 4847 0 
L 4263 0 
L 4263 3834 
L 2931 0 
L 2384 0 
L 1059 3900 
L 1059 0 
L 475 0 
z
" transform="scale(0.015625)"/>
     <path id="ArialMT-2d" d="M 203 1375 
L 203 1941 
L 1931 1941 
L 1931 1375 
L 203 1375 
z
" transform="scale(0.015625)"/>
     <path id="ArialMT-62" d="M 941 0 
L 419 0 
L 419 4581 
L 981 4581 
L 981 2947 
Q 1338 3394 1891 3394 
Q 2197 3394 2470 3270 
Q 2744 3147 2920 2923 
Q 3097 2700 3197 2384 
Q 3297 2069 3297 1709 
Q 3297 856 2875 390 
Q 2453 -75 1863 -75 
Q 1275 -75 941 416 
L 941 0 
z
M 934 1684 
Q 934 1088 1097 822 
Q 1363 388 1816 388 
Q 2184 388 2453 708 
Q 2722 1028 2722 1663 
Q 2722 2313 2464 2622 
Q 2206 2931 1841 2931 
Q 1472 2931 1203 2611 
Q 934 2291 934 1684 
z
" transform="scale(0.015625)"/>
     <path id="ArialMT-75" d="M 2597 0 
L 2597 488 
Q 2209 -75 1544 -75 
Q 1250 -75 995 37 
Q 741 150 617 320 
Q 494 491 444 738 
Q 409 903 409 1263 
L 409 3319 
L 972 3319 
L 972 1478 
Q 972 1038 1006 884 
Q 1059 663 1231 536 
Q 1403 409 1656 409 
Q 1909 409 2131 539 
Q 2353 669 2445 892 
Q 2538 1116 2538 1541 
L 2538 3319 
L 3100 3319 
L 3100 0 
L 2597 0 
z
" transform="scale(0.015625)"/>
    </defs>
    <use xlink:href="#ArialMT-4d"/>
    <use xlink:href="#ArialMT-61" x="83.300781"/>
    <use xlink:href="#ArialMT-74" x="138.916016"/>
    <use xlink:href="#ArialMT-63" x="166.699219"/>
    <use xlink:href="#ArialMT-68" x="216.699219"/>
    <use xlink:href="#ArialMT-65" x="272.314453"/>
    <use xlink:href="#ArialMT-64" x="327.929688"/>
    <use xlink:href="#ArialMT-2d" x="383.544922"/>
    <use xlink:href="#ArialMT-63" x="416.845703"/>
    <use xlink:href="#ArialMT-6f" x="466.845703"/>
    <use xlink:href="#ArialMT-73" x="522.460938"/>
    <use xlink:href="#ArialMT-69" x="572.460938"/>
    <use xlink:href="#ArialMT-6e" x="594.677734"/>
    <use xlink:href="#ArialMT-65" x="650.292969"/>
    <use xlink:href="#ArialMT-20" x="705.908203"/>
    <use xlink:href="#ArialMT-64" x="733.691406"/>
    <use xlink:href="#ArialMT-69" x="789.306641"/>
    <use xlink:href="#ArialMT-73" x="811.523438"/>
    <use xlink:href="#ArialMT-74" x="861.523438"/>
    <use xlink:href="#ArialMT-72" x="889.306641"/>
    <use xlink:href="#ArialMT-69" x="922.607422"/>
    <use xlink:href="#ArialMT-62" x="944.824219"/>
    <use xlink:href="#ArialMT-75" x="1000.439453"/>
    <use xlink:href="#ArialMT-74" x="1056.054688"/>
    <use xlink:href="#ArialMT-69" x="1083.837891"/>
    <use xlink:href="#ArialMT-6f" x="1106.054688"/>
    <use xlink:href="#ArialMT-6e" x="1161.669922"/>
    <use xlink:href="#ArialMT-73" x="1217.285156"/>
    <use xlink:href="#ArialMT-20" x="1267.285156"/>
    <use xlink:href="#ArialMT-62" x="1295.068359"/>
    <use xlink:href="#ArialMT-79" x="1350.683594"/>
    <use xlink:href="#ArialMT-20" x="1400.683594"/>
    <use xlink:href="#ArialMT-70" x="1428.466797"/>
    <use xlink:href="#ArialMT-61" x="1484.082031"/>
    <use xlink:href="#ArialMT-70" x="1539.697266"/>
    <use xlink:href="#ArialMT-65" x="1595.3125"/>
    <use xlink:href="#ArialMT-72" x="1650.927734"/>
    <use xlink:href="#ArialMT-20" x="1684.228516"/>
    <use xlink:href="#ArialMT-6c" x="1712.011719"/>
    <use xlink:href="#ArialMT-61" x="1734.228516"/>
    <use xlink:href="#ArialMT-74" x="1789.84375"/>
    <use xlink:href="#ArialMT-65" x="1817.626953"/>
    <use xlink:href="#ArialMT-6e" x="1873.242188"/>
    <use xlink:href="#ArialMT-74" x="1928.857422"/>
    <use xlink:href="#ArialMT-20" x="1956.640625"/>
    <use xlink:href="#ArialMT-63" x="1984.423828"/>
    <use xlink:href="#ArialMT-6c" x="2034.423828"/>
    <use xlink:href="#ArialMT-61" x="2056.640625"/>
    <use xlink:href="#ArialMT-73" x="2112.255859"/>
    <use xlink:href="#ArialMT-73" x="2162.255859"/>
   </g>
  </g>
 </g>
 <defs>
  <clipPath id="p176b07401d">
   <rect x="37.932031" y="39.229875" width="388.716939" height="258.958125"/>
  </clipPath>
  <clipPath id="p0d706d44d1">
   <rect x="451.850469" y="39.229875" width="388.716939" height="258.958125"/>
  </clipPath>
 </defs>
</svg>
