<?xml version="1.0" encoding="utf-8" standalone="no"?>
<!DOCTYPE svg PUBLIC "-//W3C//DTD SVG 1.1//EN"
  "http://www.w3.org/Graphics/SVG/1.1/DTD/svg11.dtd">
<svg xmlns:xlink="http://www.w3.org/1999/xlink" width="491.478281pt" height="347.99625pt" viewBox="0 0 491.478281 347.99625" xmlns="http://www.w3.org/2000/svg" version="1.1">
 <metadata>
  <rdf:RDF xmlns:dc="http://purl.org/dc/elements/1.1/" xmlns:cc="http://creativecommons.org/ns#" xmlns:rdf="http://www.w3.org/1999/02/22-rdf-syntax-ns#">
   <cc:Work>
    <dc:type rdf:resource="http://purl.org/dc/dcmitype/StillImage"/>
    <dc:date>2026-07-19T11:27:37.600332</dc:date>
    <dc:format>image/svg+xml</dc:format>
    <dc:creator>
     <cc:Agent>
      <dc:title>Matplotlib v3.11.1, https://matplotlib.org/</dc:title>
     </cc:Agent>
    </dc:creator>
   </cc:Work>
  </rdf:RDF>
 </metadata>
 <defs>
  <style type="text/css">*{stroke-linejoin: round; stroke-linecap: butt}</style>
 </defs>
 <g id="figure_1">
  <g id="patch_1">
   <path d="M 0 347.99625 
L 491.478281 347.99625 
L 491.478281 0 
L 0 0 
z
" style="fill: #ffffff"/>
  </g>
  <g id="axes_1">
   <g id="patch_2">
    <path d="M 50.194375 304.295312 
L 475.531563 304.295312 
L 475.531563 22.318125 
L 50.194375 22.318125 
z
" style="fill: #ffffff"/>
   </g>
   <g id="matplotlib.axis_1">
    <g id="xtick_1">
     <g id="line2d_1">
      <path d="M 50.194375 304.295312 
L 50.194375 22.318125 
" clip-path="url(#pae1e7c61b7)" style="fill: none; stroke: #cccccc; stroke-linecap: round"/>
     </g>
     <g id="text_1">
      <!-- 0.0 -->
      <g style="fill: #262626" transform="translate(41.447656 322.152734) scale(0.11 -0.11)">
       <defs>
        <path id="DejaVuSans-13" d="M 2034 4250 
Q 1547 4250 1301 3770 
Q 1056 3291 1056 2328 
Q 1056 1369 1301 889 
Q 1547 409 2034 409 
Q 2525 409 2770 889 
Q 3016 1369 3016 2328 
Q 3016 3291 2770 3770 
Q 2525 4250 2034 4250 
z
M 2034 4750 
Q 2819 4750 3233 4129 
Q 3647 3509 3647 2328 
Q 3647 1150 3233 529 
Q 2819 -91 2034 -91 
Q 1250 -91 836 529 
Q 422 1150 422 2328 
Q 422 3509 836 4129 
Q 1250 4750 2034 4750 
z
" transform="scale(0.015625)"/>
        <path id="DejaVuSans-11" d="M 684 794 
L 1344 794 
L 1344 0 
L 684 0 
L 684 794 
z
" transform="scale(0.015625)"/>
       </defs>
       <use xlink:href="#DejaVuSans-13"/>
       <use xlink:href="#DejaVuSans-11" transform="translate(63.625 0)"/>
       <use xlink:href="#DejaVuSans-13" transform="translate(95.40625 0)"/>
      </g>
     </g>
    </g>
    <g id="xtick_2">
     <g id="line2d_2">
      <path d="M 135.261813 304.295312 
L 135.261813 22.318125 
" clip-path="url(#pae1e7c61b7)" style="fill: none; stroke: #cccccc; stroke-linecap: round"/>
     </g>
     <g id="text_2">
      <!-- 0.2 -->
      <g style="fill: #262626" transform="translate(126.515094 322.152734) scale(0.11 -0.11)">
       <defs>
        <path id="DejaVuSans-15" d="M 1228 531 
L 3431 531 
L 3431 0 
L 469 0 
L 469 531 
Q 828 903 1448 1529 
Q 2069 2156 2228 2338 
Q 2531 2678 2651 2914 
Q 2772 3150 2772 3378 
Q 2772 3750 2511 3984 
Q 2250 4219 1831 4219 
Q 1534 4219 1204 4116 
Q 875 4013 500 3803 
L 500 4441 
Q 881 4594 1212 4672 
Q 1544 4750 1819 4750 
Q 2544 4750 2975 4387 
Q 3406 4025 3406 3419 
Q 3406 3131 3298 2873 
Q 3191 2616 2906 2266 
Q 2828 2175 2409 1742 
Q 1991 1309 1228 531 
z
" transform="scale(0.015625)"/>
       </defs>
       <use xlink:href="#DejaVuSans-13"/>
       <use xlink:href="#DejaVuSans-11" transform="translate(63.625 0)"/>
       <use xlink:href="#DejaVuSans-15" transform="translate(95.40625 0)"/>
      </g>
     </g>
    </g>
    <g id="xtick_3">
     <g id="line2d_3">
      <path d="M 220.32925 304.295312 
L 220.32925 22.318125 
" clip-path="url(#pae1e7c61b7)" style="fill: none; stroke: #cccccc; stroke-linecap: round"/>
     </g>
     <g id="text_3">
      <!-- 0.4 -->
      <g style="fill: #262626" transform="translate(211.582531 322.152734) scale(0.11 -0.11)">
       <defs>
        <path id="DejaVuSans-17" d="M 2419 4116 
L 825 1625 
L 2419 1625 
L 2419 4116 
z
M 2253 4666 
L 3047 4666 
L 3047 1625 
L 3713 1625 
L 3713 1100 
L 3047 1100 
L 3047 0 
L 2419 0 
L 2419 1100 
L 313 1100 
L 313 1709 
L 2253 4666 
z
" transform="scale(0.015625)"/>
       </defs>
       <use xlink:href="#DejaVuSans-13"/>
       <use xlink:href="#DejaVuSans-11" transform="translate(63.625 0)"/>
       <use xlink:href="#DejaVuSans-17" transform="translate(95.40625 0)"/>
      </g>
     </g>
    </g>
    <g id="xtick_4">
     <g id="line2d_4">
      <path d="M 305.396688 304.295312 
L 305.396688 22.318125 
" clip-path="url(#pae1e7c61b7)" style="fill: none; stroke: #cccccc; stroke-linecap: round"/>
     </g>
     <g id="text_4">
      <!-- 0.6 -->
      <g style="fill: #262626" transform="translate(296.649969 322.152734) scale(0.11 -0.11)">
       <defs>
        <path id="DejaVuSans-19" d="M 2113 2584 
Q 1688 2584 1439 2293 
Q 1191 2003 1191 1497 
Q 1191 994 1439 701 
Q 1688 409 2113 409 
Q 2538 409 2786 701 
Q 3034 994 3034 1497 
Q 3034 2003 2786 2293 
Q 2538 2584 2113 2584 
z
M 3366 4563 
L 3366 3988 
Q 3128 4100 2886 4159 
Q 2644 4219 2406 4219 
Q 1781 4219 1451 3797 
Q 1122 3375 1075 2522 
Q 1259 2794 1537 2939 
Q 1816 3084 2150 3084 
Q 2853 3084 3261 2657 
Q 3669 2231 3669 1497 
Q 3669 778 3244 343 
Q 2819 -91 2113 -91 
Q 1303 -91 875 529 
Q 447 1150 447 2328 
Q 447 3434 972 4092 
Q 1497 4750 2381 4750 
Q 2619 4750 2861 4703 
Q 3103 4656 3366 4563 
z
" transform="scale(0.015625)"/>
       </defs>
       <use xlink:href="#DejaVuSans-13"/>
       <use xlink:href="#DejaVuSans-11" transform="translate(63.625 0)"/>
       <use xlink:href="#DejaVuSans-19" transform="translate(95.40625 0)"/>
      </g>
     </g>
    </g>
    <g id="xtick_5">
     <g id="line2d_5">
      <path d="M 390.464125 304.295312 
L 390.464125 22.318125 
" clip-path="url(#pae1e7c61b7)" style="fill: none; stroke: #cccccc; stroke-linecap: round"/>
     </g>
     <g id="text_5">
      <!-- 0.8 -->
      <g style="fill: #262626" transform="translate(381.717406 322.152734) scale(0.11 -0.11)">
       <defs>
        <path id="DejaVuSans-1b" d="M 2034 2216 
Q 1584 2216 1326 1975 
Q 1069 1734 1069 1313 
Q 1069 891 1326 650 
Q 1584 409 2034 409 
Q 2484 409 2743 651 
Q 3003 894 3003 1313 
Q 3003 1734 2745 1975 
Q 2488 2216 2034 2216 
z
M 1403 2484 
Q 997 2584 770 2862 
Q 544 3141 544 3541 
Q 544 4100 942 4425 
Q 1341 4750 2034 4750 
Q 2731 4750 3128 4425 
Q 3525 4100 3525 3541 
Q 3525 3141 3298 2862 
Q 3072 2584 2669 2484 
Q 3125 2378 3379 2068 
Q 3634 1759 3634 1313 
Q 3634 634 3220 271 
Q 2806 -91 2034 -91 
Q 1263 -91 848 271 
Q 434 634 434 1313 
Q 434 1759 690 2068 
Q 947 2378 1403 2484 
z
M 1172 3481 
Q 1172 3119 1398 2916 
Q 1625 2713 2034 2713 
Q 2441 2713 2670 2916 
Q 2900 3119 2900 3481 
Q 2900 3844 2670 4047 
Q 2441 4250 2034 4250 
Q 1625 4250 1398 4047 
Q 1172 3844 1172 3481 
z
" transform="scale(0.015625)"/>
       </defs>
       <use xlink:href="#DejaVuSans-13"/>
       <use xlink:href="#DejaVuSans-11" transform="translate(63.625 0)"/>
       <use xlink:href="#DejaVuSans-1b" transform="translate(95.40625 0)"/>
      </g>
     </g>
    </g>
    <g id="xtick_6">
     <g id="line2d_6">
      <path d="M 475.531563 304.295312 
L 475.531563 22.318125 
" clip-path="url(#pae1e7c61b7)" style="fill: none; stroke: #cccccc; stroke-linecap: round"/>
     </g>
     <g id="text_6">
      <!-- 1.0 -->
      <g style="fill: #262626" transform="translate(466.784844 322.152734) scale(0.11 -0.11)">
       <defs>
        <path id="DejaVuSans-14" d="M 794 531 
L 1825 531 
L 1825 4091 
L 703 3866 
L 703 4441 
L 1819 4666 
L 2450 4666 
L 2450 531 
L 3481 531 
L 3481 0 
L 794 0 
L 794 531 
z
" transform="scale(0.015625)"/>
       </defs>
       <use xlink:href="#DejaVuSans-14"/>
       <use xlink:href="#DejaVuSans-11" transform="translate(63.625 0)"/>
       <use xlink:href="#DejaVuSans-13" transform="translate(95.40625 0)"/>
      </g>
     </g>
    </g>
    <g id="text_7">
     <!-- Cosine threshold -->
     <g style="fill: #262626" transform="translate(212.552031 337.913437) scale(0.12 -0.12)">
      <defs>
       <path id="DejaVuSans-26" d="M 4122 4306 
L 4122 3641 
Q 3803 3938 3442 4084 
Q 3081 4231 2675 4231 
Q 1875 4231 1450 3742 
Q 1025 3253 1025 2328 
Q 1025 1406 1450 917 
Q 1875 428 2675 428 
Q 3081 428 3442 575 
Q 3803 722 4122 1019 
L 4122 359 
Q 3791 134 3420 21 
Q 3050 -91 2638 -91 
Q 1578 -91 968 557 
Q 359 1206 359 2328 
Q 359 3453 968 4101 
Q 1578 4750 2638 4750 
Q 3056 4750 3426 4639 
Q 3797 4528 4122 4306 
z
" transform="scale(0.015625)"/>
       <path id="DejaVuSans-52" d="M 1959 3097 
Q 1497 3097 1228 2736 
Q 959 2375 959 1747 
Q 959 1119 1226 758 
Q 1494 397 1959 397 
Q 2419 397 2687 759 
Q 2956 1122 2956 1747 
Q 2956 2369 2687 2733 
Q 2419 3097 1959 3097 
z
M 1959 3584 
Q 2709 3584 3137 3096 
Q 3566 2609 3566 1747 
Q 3566 888 3137 398 
Q 2709 -91 1959 -91 
Q 1206 -91 779 398 
Q 353 888 353 1747 
Q 353 2609 779 3096 
Q 1206 3584 1959 3584 
z
" transform="scale(0.015625)"/>
       <path id="DejaVuSans-56" d="M 2834 3397 
L 2834 2853 
Q 2591 2978 2328 3040 
Q 2066 3103 1784 3103 
Q 1356 3103 1142 2972 
Q 928 2841 928 2578 
Q 928 2378 1081 2264 
Q 1234 2150 1697 2047 
L 1894 2003 
Q 2506 1872 2764 1633 
Q 3022 1394 3022 966 
Q 3022 478 2636 193 
Q 2250 -91 1575 -91 
Q 1294 -91 989 -36 
Q 684 19 347 128 
L 347 722 
Q 666 556 975 473 
Q 1284 391 1588 391 
Q 1994 391 2212 530 
Q 2431 669 2431 922 
Q 2431 1156 2273 1281 
Q 2116 1406 1581 1522 
L 1381 1569 
Q 847 1681 609 1914 
Q 372 2147 372 2553 
Q 372 3047 722 3315 
Q 1072 3584 1716 3584 
Q 2034 3584 2315 3537 
Q 2597 3491 2834 3397 
z
" transform="scale(0.015625)"/>
       <path id="DejaVuSans-4c" d="M 603 3500 
L 1178 3500 
L 1178 0 
L 603 0 
L 603 3500 
z
M 603 4863 
L 1178 4863 
L 1178 4134 
L 603 4134 
L 603 4863 
z
" transform="scale(0.015625)"/>
       <path id="DejaVuSans-51" d="M 3513 2113 
L 3513 0 
L 2938 0 
L 2938 2094 
Q 2938 2591 2744 2837 
Q 2550 3084 2163 3084 
Q 1697 3084 1428 2787 
Q 1159 2491 1159 1978 
L 1159 0 
L 581 0 
L 581 3500 
L 1159 3500 
L 1159 2956 
Q 1366 3272 1645 3428 
Q 1925 3584 2291 3584 
Q 2894 3584 3203 3211 
Q 3513 2838 3513 2113 
z
" transform="scale(0.015625)"/>
       <path id="DejaVuSans-48" d="M 3597 1894 
L 3597 1613 
L 953 1613 
Q 991 1019 1311 708 
Q 1631 397 2203 397 
Q 2534 397 2845 478 
Q 3156 559 3463 722 
L 3463 178 
Q 3153 47 2828 -22 
Q 2503 -91 2169 -91 
Q 1331 -91 842 396 
Q 353 884 353 1716 
Q 353 2575 817 3079 
Q 1281 3584 2069 3584 
Q 2775 3584 3186 3129 
Q 3597 2675 3597 1894 
z
M 3022 2063 
Q 3016 2534 2758 2815 
Q 2500 3097 2075 3097 
Q 1594 3097 1305 2825 
Q 1016 2553 972 2059 
L 3022 2063 
z
" transform="scale(0.015625)"/>
       <path id="DejaVuSans-3" transform="scale(0.015625)"/>
       <path id="DejaVuSans-57" d="M 1172 4494 
L 1172 3500 
L 2356 3500 
L 2356 3053 
L 1172 3053 
L 1172 1153 
Q 1172 725 1289 603 
Q 1406 481 1766 481 
L 2356 481 
L 2356 0 
L 1766 0 
Q 1100 0 847 248 
Q 594 497 594 1153 
L 594 3053 
L 172 3053 
L 172 3500 
L 594 3500 
L 594 4494 
L 1172 4494 
z
" transform="scale(0.015625)"/>
       <path id="DejaVuSans-4b" d="M 3513 2113 
L 3513 0 
L 2938 0 
L 2938 2094 
Q 2938 2591 2744 2837 
Q 2550 3084 2163 3084 
Q 1697 3084 1428 2787 
Q 1159 2491 1159 1978 
L 1159 0 
L 581 0 
L 581 4863 
L 1159 4863 
L 1159 2956 
Q 1366 3272 1645 3428 
Q 1925 3584 2291 3584 
Q 2894 3584 3203 3211 
Q 3513 2838 3513 2113 
z
" transform="scale(0.015625)"/>
       <path id="DejaVuSans-55" d="M 2631 2963 
Q 2534 3019 2420 3045 
Q 2306 3072 2169 3072 
Q 1681 3072 1420 2755 
Q 1159 2438 1159 1844 
L 1159 0 
L 581 0 
L 581 3500 
L 1159 3500 
L 1159 2956 
Q 1341 3275 1631 3429 
Q 1922 3584 2338 3584 
Q 2397 3584 2469 3576 
Q 2541 3569 2628 3553 
L 2631 2963 
z
" transform="scale(0.015625)"/>
       <path id="DejaVuSans-4f" d="M 603 4863 
L 1178 4863 
L 1178 0 
L 603 0 
L 603 4863 
z
" transform="scale(0.015625)"/>
       <path id="DejaVuSans-47" d="M 2906 2969 
L 2906 4863 
L 3481 4863 
L 3481 0 
L 2906 0 
L 2906 525 
Q 2725 213 2448 61 
Q 2172 -91 1784 -91 
Q 1150 -91 751 415 
Q 353 922 353 1747 
Q 353 2572 751 3078 
Q 1150 3584 1784 3584 
Q 2172 3584 2448 3432 
Q 2725 3281 2906 2969 
z
M 947 1747 
Q 947 1113 1208 752 
Q 1469 391 1925 391 
Q 2381 391 2643 752 
Q 2906 1113 2906 1747 
Q 2906 2381 2643 2742 
Q 2381 3103 1925 3103 
Q 1469 3103 1208 2742 
Q 947 2381 947 1747 
z
" transform="scale(0.015625)"/>
      </defs>
      <use xlink:href="#DejaVuSans-26"/>
      <use xlink:href="#DejaVuSans-52" transform="translate(69.828125 0)"/>
      <use xlink:href="#DejaVuSans-56" transform="translate(131.015625 0)"/>
      <use xlink:href="#DejaVuSans-4c" transform="translate(183.109375 0)"/>
      <use xlink:href="#DejaVuSans-51" transform="translate(210.890625 0)"/>
      <use xlink:href="#DejaVuSans-48" transform="translate(274.265625 0)"/>
      <use xlink:href="#DejaVuSans-3" transform="translate(335.796875 0)"/>
      <use xlink:href="#DejaVuSans-57" transform="translate(367.578125 0)"/>
      <use xlink:href="#DejaVuSans-4b" transform="translate(406.78125 0)"/>
      <use xlink:href="#DejaVuSans-55" transform="translate(470.15625 0)"/>
      <use xlink:href="#DejaVuSans-48" transform="translate(509.0625 0)"/>
      <use xlink:href="#DejaVuSans-56" transform="translate(570.59375 0)"/>
      <use xlink:href="#DejaVuSans-4b" transform="translate(622.6875 0)"/>
      <use xlink:href="#DejaVuSans-52" transform="translate(686.0625 0)"/>
      <use xlink:href="#DejaVuSans-4f" transform="translate(747.25 0)"/>
      <use xlink:href="#DejaVuSans-47" transform="translate(775.03125 0)"/>
     </g>
    </g>
   </g>
   <g id="matplotlib.axis_2">
    <g id="ytick_1">
     <g id="line2d_7">
      <path d="M 50.194375 304.295312 
L 475.531563 304.295312 
" clip-path="url(#pae1e7c61b7)" style="fill: none; stroke: #cccccc; stroke-linecap: round"/>
     </g>
     <g id="text_8">
      <!-- 0.0 -->
      <g style="fill: #262626" transform="translate(23.200938 308.474023) scale(0.11 -0.11)">
       <use xlink:href="#DejaVuSans-13"/>
       <use xlink:href="#DejaVuSans-11" transform="translate(63.625 0)"/>
       <use xlink:href="#DejaVuSans-13" transform="translate(95.40625 0)"/>
      </g>
     </g>
    </g>
    <g id="ytick_2">
     <g id="line2d_8">
      <path d="M 50.194375 248.458246 
L 475.531563 248.458246 
" clip-path="url(#pae1e7c61b7)" style="fill: none; stroke: #cccccc; stroke-linecap: round"/>
     </g>
     <g id="text_9">
      <!-- 0.2 -->
      <g style="fill: #262626" transform="translate(23.200938 252.636957) scale(0.11 -0.11)">
       <use xlink:href="#DejaVuSans-13"/>
       <use xlink:href="#DejaVuSans-11" transform="translate(63.625 0)"/>
       <use xlink:href="#DejaVuSans-15" transform="translate(95.40625 0)"/>
      </g>
     </g>
    </g>
    <g id="ytick_3">
     <g id="line2d_9">
      <path d="M 50.194375 192.621179 
L 475.531563 192.621179 
" clip-path="url(#pae1e7c61b7)" style="fill: none; stroke: #cccccc; stroke-linecap: round"/>
     </g>
     <g id="text_10">
      <!-- 0.4 -->
      <g style="fill: #262626" transform="translate(23.200938 196.79989) scale(0.11 -0.11)">
       <use xlink:href="#DejaVuSans-13"/>
       <use xlink:href="#DejaVuSans-11" transform="translate(63.625 0)"/>
       <use xlink:href="#DejaVuSans-17" transform="translate(95.40625 0)"/>
      </g>
     </g>
    </g>
    <g id="ytick_4">
     <g id="line2d_10">
      <path d="M 50.194375 136.784112 
L 475.531563 136.784112 
" clip-path="url(#pae1e7c61b7)" style="fill: none; stroke: #cccccc; stroke-linecap: round"/>
     </g>
     <g id="text_11">
      <!-- 0.6 -->
      <g style="fill: #262626" transform="translate(23.200938 140.962823) scale(0.11 -0.11)">
       <use xlink:href="#DejaVuSans-13"/>
       <use xlink:href="#DejaVuSans-11" transform="translate(63.625 0)"/>
       <use xlink:href="#DejaVuSans-19" transform="translate(95.40625 0)"/>
      </g>
     </g>
    </g>
    <g id="ytick_5">
     <g id="line2d_11">
      <path d="M 50.194375 80.947045 
L 475.531563 80.947045 
" clip-path="url(#pae1e7c61b7)" style="fill: none; stroke: #cccccc; stroke-linecap: round"/>
     </g>
     <g id="text_12">
      <!-- 0.8 -->
      <g style="fill: #262626" transform="translate(23.200938 85.125756) scale(0.11 -0.11)">
       <use xlink:href="#DejaVuSans-13"/>
       <use xlink:href="#DejaVuSans-11" transform="translate(63.625 0)"/>
       <use xlink:href="#DejaVuSans-1b" transform="translate(95.40625 0)"/>
      </g>
     </g>
    </g>
    <g id="ytick_6">
     <g id="line2d_12">
      <path d="M 50.194375 25.109978 
L 475.531563 25.109978 
" clip-path="url(#pae1e7c61b7)" style="fill: none; stroke: #cccccc; stroke-linecap: round"/>
     </g>
     <g id="text_13">
      <!-- 1.0 -->
      <g style="fill: #262626" transform="translate(23.200938 29.288689) scale(0.11 -0.11)">
       <use xlink:href="#DejaVuSans-14"/>
       <use xlink:href="#DejaVuSans-11" transform="translate(63.625 0)"/>
       <use xlink:href="#DejaVuSans-13" transform="translate(95.40625 0)"/>
      </g>
     </g>
    </g>
    <g id="text_14">
     <!-- Fraction of SAE-A latents -->
     <g style="fill: #262626" transform="translate(16.318125 237.381406) rotate(-90) scale(0.12 -0.12)">
      <defs>
       <path id="DejaVuSans-29" d="M 628 4666 
L 3309 4666 
L 3309 4134 
L 1259 4134 
L 1259 2759 
L 3109 2759 
L 3109 2228 
L 1259 2228 
L 1259 0 
L 628 0 
L 628 4666 
z
" transform="scale(0.015625)"/>
       <path id="DejaVuSans-44" d="M 2194 1759 
Q 1497 1759 1228 1600 
Q 959 1441 959 1056 
Q 959 750 1161 570 
Q 1363 391 1709 391 
Q 2188 391 2477 730 
Q 2766 1069 2766 1631 
L 2766 1759 
L 2194 1759 
z
M 3341 1997 
L 3341 0 
L 2766 0 
L 2766 531 
Q 2569 213 2275 61 
Q 1981 -91 1556 -91 
Q 1019 -91 701 211 
Q 384 513 384 1019 
Q 384 1609 779 1909 
Q 1175 2209 1959 2209 
L 2766 2209 
L 2766 2266 
Q 2766 2663 2505 2880 
Q 2244 3097 1772 3097 
Q 1472 3097 1187 3025 
Q 903 2953 641 2809 
L 641 3341 
Q 956 3463 1253 3523 
Q 1550 3584 1831 3584 
Q 2591 3584 2966 3190 
Q 3341 2797 3341 1997 
z
" transform="scale(0.015625)"/>
       <path id="DejaVuSans-46" d="M 3122 3366 
L 3122 2828 
Q 2878 2963 2633 3030 
Q 2388 3097 2138 3097 
Q 1578 3097 1268 2742 
Q 959 2388 959 1747 
Q 959 1106 1268 751 
Q 1578 397 2138 397 
Q 2388 397 2633 464 
Q 2878 531 3122 666 
L 3122 134 
Q 2881 22 2623 -34 
Q 2366 -91 2075 -91 
Q 1284 -91 818 406 
Q 353 903 353 1747 
Q 353 2603 823 3093 
Q 1294 3584 2113 3584 
Q 2378 3584 2631 3529 
Q 2884 3475 3122 3366 
z
" transform="scale(0.015625)"/>
       <path id="DejaVuSans-49" d="M 2375 4863 
L 2375 4384 
L 1825 4384 
Q 1516 4384 1395 4259 
Q 1275 4134 1275 3809 
L 1275 3500 
L 2222 3500 
L 2222 3053 
L 1275 3053 
L 1275 0 
L 697 0 
L 697 3053 
L 147 3053 
L 147 3500 
L 697 3500 
L 697 3744 
Q 697 4328 969 4595 
Q 1241 4863 1831 4863 
L 2375 4863 
z
" transform="scale(0.015625)"/>
       <path id="DejaVuSans-36" d="M 3425 4513 
L 3425 3897 
Q 3066 4069 2747 4153 
Q 2428 4238 2131 4238 
Q 1616 4238 1336 4038 
Q 1056 3838 1056 3469 
Q 1056 3159 1242 3001 
Q 1428 2844 1947 2747 
L 2328 2669 
Q 3034 2534 3370 2195 
Q 3706 1856 3706 1288 
Q 3706 609 3251 259 
Q 2797 -91 1919 -91 
Q 1588 -91 1214 -16 
Q 841 59 441 206 
L 441 856 
Q 825 641 1194 531 
Q 1563 422 1919 422 
Q 2459 422 2753 634 
Q 3047 847 3047 1241 
Q 3047 1584 2836 1778 
Q 2625 1972 2144 2069 
L 1759 2144 
Q 1053 2284 737 2584 
Q 422 2884 422 3419 
Q 422 4038 858 4394 
Q 1294 4750 2059 4750 
Q 2388 4750 2728 4690 
Q 3069 4631 3425 4513 
z
" transform="scale(0.015625)"/>
       <path id="DejaVuSans-24" d="M 2188 4044 
L 1331 1722 
L 3047 1722 
L 2188 4044 
z
M 1831 4666 
L 2547 4666 
L 4325 0 
L 3669 0 
L 3244 1197 
L 1141 1197 
L 716 0 
L 50 0 
L 1831 4666 
z
" transform="scale(0.015625)"/>
       <path id="DejaVuSans-28" d="M 628 4666 
L 3578 4666 
L 3578 4134 
L 1259 4134 
L 1259 2753 
L 3481 2753 
L 3481 2222 
L 1259 2222 
L 1259 531 
L 3634 531 
L 3634 0 
L 628 0 
L 628 4666 
z
" transform="scale(0.015625)"/>
       <path id="DejaVuSans-10" d="M 313 2009 
L 1997 2009 
L 1997 1497 
L 313 1497 
L 313 2009 
z
" transform="scale(0.015625)"/>
      </defs>
      <use xlink:href="#DejaVuSans-29"/>
      <use xlink:href="#DejaVuSans-55" transform="translate(50.234375 0)"/>
      <use xlink:href="#DejaVuSans-44" transform="translate(91.34375 0)"/>
      <use xlink:href="#DejaVuSans-46" transform="translate(152.625 0)"/>
      <use xlink:href="#DejaVuSans-57" transform="translate(207.609375 0)"/>
      <use xlink:href="#DejaVuSans-4c" transform="translate(246.8125 0)"/>
      <use xlink:href="#DejaVuSans-52" transform="translate(274.59375 0)"/>
      <use xlink:href="#DejaVuSans-51" transform="translate(335.78125 0)"/>
      <use xlink:href="#DejaVuSans-3" transform="translate(399.15625 0)"/>
      <use xlink:href="#DejaVuSans-52" transform="translate(430.9375 0)"/>
      <use xlink:href="#DejaVuSans-49" transform="translate(492.125 0)"/>
      <use xlink:href="#DejaVuSans-3" transform="translate(527.328125 0)"/>
      <use xlink:href="#DejaVuSans-36" transform="translate(559.109375 0)"/>
      <use xlink:href="#DejaVuSans-24" transform="translate(624.453125 0)"/>
      <use xlink:href="#DejaVuSans-28" transform="translate(692.859375 0)"/>
      <use xlink:href="#DejaVuSans-10" transform="translate(756.046875 0)"/>
      <use xlink:href="#DejaVuSans-24" transform="translate(789.921875 0)"/>
      <use xlink:href="#DejaVuSans-3" transform="translate(858.328125 0)"/>
      <use xlink:href="#DejaVuSans-4f" transform="translate(890.109375 0)"/>
      <use xlink:href="#DejaVuSans-44" transform="translate(917.890625 0)"/>
      <use xlink:href="#DejaVuSans-57" transform="translate(979.171875 0)"/>
      <use xlink:href="#DejaVuSans-48" transform="translate(1018.375 0)"/>
      <use xlink:href="#DejaVuSans-51" transform="translate(1079.90625 0)"/>
      <use xlink:href="#DejaVuSans-57" transform="translate(1143.28125 0)"/>
      <use xlink:href="#DejaVuSans-56" transform="translate(1182.484375 0)"/>
     </g>
    </g>
   </g>
   <g id="line2d_13">
    <path d="M 50.194375 25.109978 
L 54.447747 25.109978 
L 58.701119 25.109978 
L 62.954491 25.109978 
L 67.207863 25.109978 
L 71.461234 25.109978 
L 75.714606 25.109978 
L 79.967978 25.109978 
L 84.22135 25.109978 
L 88.474722 25.109978 
L 92.728094 25.109978 
L 96.981466 25.118498 
L 101.234838 25.29742 
L 105.488209 25.902344 
L 109.741581 27.683037 
L 113.994953 31.252942 
L 118.248325 37.174384 
L 122.501697 45.2088 
L 126.755069 56.054837 
L 131.008441 68.894568 
L 135.261813 82.765226 
L 139.515184 95.962799 
L 143.768556 108.546928 
L 148.021928 120.15125 
L 152.2753 130.716125 
L 156.528672 140.744236 
L 160.782044 149.630659 
L 165.035416 157.460594 
L 169.288788 163.9188 
L 173.542159 169.133077 
L 177.795531 173.657229 
L 182.048903 177.363455 
L 186.302275 180.720359 
L 190.555647 183.608659 
L 194.809019 186.300998 
L 199.062391 188.857016 
L 203.315763 191.080752 
L 207.569134 193.244847 
L 211.822506 195.425983 
L 216.075878 197.360036 
L 220.32925 199.106649 
L 224.582622 201.228144 
L 228.835994 203.230358 
L 233.089366 205.087731 
L 237.342738 206.970664 
L 241.596109 208.742837 
L 245.849481 210.57465 
L 250.102853 212.440543 
L 254.356225 214.357557 
L 258.609597 215.984888 
L 262.862969 218.004142 
L 267.116341 219.938196 
L 271.369712 221.531447 
L 275.623084 223.192859 
L 279.876456 225.288794 
L 284.129828 227.180247 
L 288.3832 228.97798 
L 292.636572 230.852393 
L 296.889944 232.718286 
L 301.143316 234.558619 
L 305.396687 236.475633 
L 309.650059 238.409687 
L 313.903431 240.36078 
L 318.156803 242.141473 
L 322.410175 244.092567 
L 326.663547 245.94142 
L 330.916919 247.875474 
L 335.170291 249.528365 
L 339.423663 251.309058 
L 343.677034 252.893789 
L 347.930406 254.700042 
L 352.183778 256.744856 
L 356.43715 258.891911 
L 360.690522 260.774845 
L 364.943894 262.606658 
L 369.197266 264.566272 
L 373.450638 266.355484 
L 377.704009 268.263978 
L 381.957381 270.411033 
L 386.210753 272.208766 
L 390.464125 273.989458 
L 394.717497 275.906472 
L 398.970869 277.891646 
L 403.224241 279.740499 
L 407.477612 281.512671 
L 411.730984 283.344484 
L 415.984356 285.244458 
L 420.237728 287.050711 
L 424.4911 288.891044 
L 428.744472 290.739897 
L 432.997844 292.63987 
L 437.251216 294.292762 
L 441.504588 296.030854 
L 445.757959 297.479264 
L 450.011331 299.081036 
L 454.264703 300.537966 
L 458.518075 301.773375 
L 462.771447 302.863942 
L 467.024819 303.451827 
L 471.278191 304.056751 
L 475.531563 304.295312 
" clip-path="url(#pae1e7c61b7)" style="fill: none; stroke: #4c72b0; stroke-width: 1.5; stroke-linecap: round"/>
   </g>
   <g id="line2d_14">
    <path d="M 50.194375 165.725053 
L 54.447747 165.725053 
L 58.701119 165.725053 
L 62.954491 165.725053 
L 67.207863 165.725053 
L 71.461234 165.725053 
L 75.714606 165.725053 
L 79.967978 165.725053 
L 84.22135 165.725053 
L 88.474722 165.725053 
L 92.728094 165.725053 
L 96.981466 165.725053 
L 101.234838 165.733573 
L 105.488209 165.733573 
L 109.741581 165.742093 
L 113.994953 165.750613 
L 118.248325 165.767653 
L 122.501697 165.895454 
L 126.755069 166.168096 
L 131.008441 166.900821 
L 135.261813 167.948788 
L 139.515184 169.269398 
L 143.768556 171.05861 
L 148.021928 173.180105 
L 152.2753 175.19936 
L 156.528672 177.525336 
L 160.782044 180.030234 
L 165.035416 182.611812 
L 169.288788 185.278591 
L 173.542159 187.459726 
L 177.795531 189.768663 
L 182.048903 191.813477 
L 186.302275 193.892372 
L 190.555647 195.528223 
L 194.809019 197.351516 
L 199.062391 198.970328 
L 203.315763 200.427258 
L 207.569134 201.909749 
L 211.822506 203.375199 
L 216.075878 204.798049 
L 220.32925 206.024938 
L 224.582622 207.601149 
L 228.835994 209.109199 
L 233.089366 210.60021 
L 237.342738 212.01454 
L 241.596109 213.326629 
L 245.849481 214.749479 
L 250.102853 216.30865 
L 254.356225 217.893382 
L 258.609597 219.256591 
L 262.862969 221.003204 
L 267.116341 222.604975 
L 271.369712 224.010785 
L 275.623084 225.391035 
L 279.876456 227.231368 
L 284.129828 228.96094 
L 288.3832 230.537151 
L 292.636572 232.275243 
L 296.889944 233.953695 
L 301.143316 235.649187 
L 305.396687 237.41284 
L 309.650059 239.142412 
L 313.903431 240.982745 
L 318.156803 242.678237 
L 322.410175 244.58673 
L 326.663547 246.350383 
L 330.916919 248.199236 
L 335.170291 249.792487 
L 339.423663 251.513539 
L 343.677034 253.08975 
L 347.930406 254.853403 
L 352.183778 256.881177 
L 356.43715 258.994152 
L 360.690522 260.834485 
L 364.943894 262.649258 
L 369.197266 264.600352 
L 373.450638 266.381044 
L 377.704009 268.281018 
L 381.957381 270.419553 
L 386.210753 272.217286 
L 390.464125 273.997978 
L 394.717497 275.914992 
L 398.970869 277.900166 
L 403.224241 279.749019 
L 407.477612 281.512671 
L 411.730984 283.344484 
L 415.984356 285.244458 
L 420.237728 287.050711 
L 424.4911 288.891044 
L 428.744472 290.739897 
L 432.997844 292.63987 
L 437.251216 294.292762 
L 441.504588 296.030854 
L 445.757959 297.479264 
L 450.011331 299.081036 
L 454.264703 300.537966 
L 458.518075 301.773375 
L 462.771447 302.863942 
L 467.024819 303.451827 
L 471.278191 304.056751 
L 475.531563 304.295312 
" clip-path="url(#pae1e7c61b7)" style="fill: none; stroke: #dd8452; stroke-width: 1.5; stroke-linecap: round"/>
   </g>
   <g id="line2d_15">
    <path d="M 50.194375 25.109978 
L 54.447747 25.109978 
L 58.701119 25.109978 
L 62.954491 25.109978 
L 67.207863 25.109978 
L 71.461234 25.109978 
L 75.714606 25.109978 
L 79.967978 25.109978 
L 84.22135 25.109978 
L 88.474722 25.109978 
L 92.728094 25.109978 
L 96.981466 25.109978 
L 101.234838 25.109978 
L 105.488209 25.109978 
L 109.741581 25.109978 
L 113.994953 25.127018 
L 118.248325 25.34854 
L 122.501697 26.524308 
L 126.755069 29.719331 
L 131.008441 34.856927 
L 135.261813 43.189546 
L 139.515184 54.555307 
L 143.768556 67.446158 
L 148.021928 80.916373 
L 152.2753 93.917985 
L 156.528672 105.88867 
L 160.782044 117.603752 
L 165.035416 128.074906 
L 169.288788 136.543846 
L 173.542159 143.470655 
L 177.795531 149.664739 
L 182.048903 154.887536 
L 186.302275 159.224247 
L 190.555647 162.751552 
L 194.809019 166.125495 
L 199.062391 169.346078 
L 203.315763 172.183258 
L 207.569134 174.807437 
L 211.822506 177.584977 
L 216.075878 180.166555 
L 220.32925 182.586252 
L 224.582622 185.227471 
L 228.835994 187.706808 
L 233.089366 189.964624 
L 237.342738 192.563242 
L 241.596109 194.914779 
L 245.849481 197.411157 
L 250.102853 199.873454 
L 254.356225 202.489113 
L 258.609597 204.90029 
L 262.862969 207.464828 
L 267.116341 209.944165 
L 271.369712 212.219021 
L 275.623084 214.459797 
L 279.876456 216.922095 
L 284.129828 219.409952 
L 288.3832 221.804089 
L 292.636572 224.368627 
L 296.889944 226.830925 
L 301.143316 229.071701 
L 305.396687 231.508438 
L 309.650059 233.808854 
L 313.903431 236.288192 
L 318.156803 238.503407 
L 322.410175 240.914584 
L 326.663547 243.14684 
L 330.916919 245.379096 
L 335.170291 247.42391 
L 339.423663 249.502805 
L 343.677034 251.360178 
L 347.930406 253.302752 
L 352.183778 255.560568 
L 356.43715 257.946185 
L 360.690522 259.965439 
L 364.943894 261.967653 
L 369.197266 264.072108 
L 373.450638 265.972082 
L 377.704009 267.965776 
L 381.957381 270.146911 
L 386.210753 272.004284 
L 390.464125 273.827577 
L 394.717497 275.787191 
L 398.970869 277.857566 
L 403.224241 279.731979 
L 407.477612 281.504151 
L 411.730984 283.335964 
L 415.984356 285.235938 
L 420.237728 287.042191 
L 424.4911 288.882524 
L 428.744472 290.739897 
L 432.997844 292.63987 
L 437.251216 294.292762 
L 441.504588 296.030854 
L 445.757959 297.479264 
L 450.011331 299.081036 
L 454.264703 300.537966 
L 458.518075 301.773375 
L 462.771447 302.863942 
L 467.024819 303.451827 
L 471.278191 304.056751 
L 475.531563 304.295312 
" clip-path="url(#pae1e7c61b7)" style="fill: none; stroke-dasharray: 5.55,2.4; stroke-dashoffset: 0; stroke: #55a868; stroke-width: 1.5"/>
   </g>
   <g id="line2d_16">
    <path d="M 347.930406 304.295312 
L 347.930406 22.318125 
" clip-path="url(#pae1e7c61b7)" style="fill: none; stroke-dasharray: 1.5,2.475; stroke-dashoffset: 0; stroke: #595959; stroke-width: 1.5"/>
   </g>
   <g id="patch_3">
    <path d="M 50.194375 304.295312 
L 50.194375 22.318125 
" style="fill: none; stroke: #cccccc; stroke-width: 1.25; stroke-linejoin: miter; stroke-linecap: square"/>
   </g>
   <g id="patch_4">
    <path d="M 475.531563 304.295312 
L 475.531563 22.318125 
" style="fill: none; stroke: #cccccc; stroke-width: 1.25; stroke-linejoin: miter; stroke-linecap: square"/>
   </g>
   <g id="patch_5">
    <path d="M 50.194375 304.295312 
L 475.531563 304.295312 
" style="fill: none; stroke: #cccccc; stroke-width: 1.25; stroke-linejoin: miter; stroke-linecap: square"/>
   </g>
   <g id="patch_6">
    <path d="M 50.194375 22.318125 
L 475.531563 22.318125 
" style="fill: none; stroke: #cccccc; stroke-width: 1.25; stroke-linejoin: miter; stroke-linecap: square"/>
   </g>
   <g id="text_15">
    <!-- Shared-latent fraction across thresholds -->
    <g style="fill: #262626" transform="translate(142.649219 16.318125) scale(0.12 -0.12)">
     <use xlink:href="#DejaVuSans-36"/>
     <use xlink:href="#DejaVuSans-4b" transform="translate(63.484375 0)"/>
     <use xlink:href="#DejaVuSans-44" transform="translate(126.859375 0)"/>
     <use xlink:href="#DejaVuSans-55" transform="translate(188.140625 0)"/>
     <use xlink:href="#DejaVuSans-48" transform="translate(227.046875 0)"/>
     <use xlink:href="#DejaVuSans-47" transform="translate(288.578125 0)"/>
     <use xlink:href="#DejaVuSans-10" transform="translate(352.0625 0)"/>
     <use xlink:href="#DejaVuSans-4f" transform="translate(388.140625 0)"/>
     <use xlink:href="#DejaVuSans-44" transform="translate(415.921875 0)"/>
     <use xlink:href="#DejaVuSans-57" transform="translate(477.203125 0)"/>
     <use xlink:href="#DejaVuSans-48" transform="translate(516.40625 0)"/>
     <use xlink:href="#DejaVuSans-51" transform="translate(577.9375 0)"/>
     <use xlink:href="#DejaVuSans-57" transform="translate(641.3125 0)"/>
     <use xlink:href="#DejaVuSans-3" transform="translate(680.515625 0)"/>
     <use xlink:href="#DejaVuSans-49" transform="translate(712.296875 0)"/>
     <use xlink:href="#DejaVuSans-55" transform="translate(747.5 0)"/>
     <use xlink:href="#DejaVuSans-44" transform="translate(788.609375 0)"/>
     <use xlink:href="#DejaVuSans-46" transform="translate(849.890625 0)"/>
     <use xlink:href="#DejaVuSans-57" transform="translate(904.875 0)"/>
     <use xlink:href="#DejaVuSans-4c" transform="translate(944.078125 0)"/>
     <use xlink:href="#DejaVuSans-52" transform="translate(971.859375 0)"/>
     <use xlink:href="#DejaVuSans-51" transform="translate(1033.046875 0)"/>
     <use xlink:href="#DejaVuSans-3" transform="translate(1096.421875 0)"/>
     <use xlink:href="#DejaVuSans-44" transform="translate(1128.203125 0)"/>
     <use xlink:href="#DejaVuSans-46" transform="translate(1189.484375 0)"/>
     <use xlink:href="#DejaVuSans-55" transform="translate(1244.46875 0)"/>
     <use xlink:href="#DejaVuSans-52" transform="translate(1283.375 0)"/>
     <use xlink:href="#DejaVuSans-56" transform="translate(1344.5625 0)"/>
     <use xlink:href="#DejaVuSans-56" transform="translate(1396.65625 0)"/>
     <use xlink:href="#DejaVuSans-3" transform="translate(1448.75 0)"/>
     <use xlink:href="#DejaVuSans-57" transform="translate(1480.53125 0)"/>
     <use xlink:href="#DejaVuSans-4b" transform="translate(1519.734375 0)"/>
     <use xlink:href="#DejaVuSans-55" transform="translate(1583.109375 0)"/>
     <use xlink:href="#DejaVuSans-48" transform="translate(1622.015625 0)"/>
     <use xlink:href="#DejaVuSans-56" transform="translate(1683.546875 0)"/>
     <use xlink:href="#DejaVuSans-4b" transform="translate(1735.640625 0)"/>
     <use xlink:href="#DejaVuSans-52" transform="translate(1799.015625 0)"/>
     <use xlink:href="#DejaVuSans-4f" transform="translate(1860.203125 0)"/>
     <use xlink:href="#DejaVuSans-47" transform="translate(1887.984375 0)"/>
     <use xlink:href="#DejaVuSans-56" transform="translate(1951.46875 0)"/>
    </g>
   </g>
   <g id="legend_1">
    <g id="patch_7">
     <path d="M 57.894375 298.795312 
L 239.92375 298.795312 
Q 242.12375 298.795312 242.12375 296.595312 
L 242.12375 231.691875 
Q 242.12375 229.491875 239.92375 229.491875 
L 57.894375 229.491875 
Q 55.694375 229.491875 55.694375 231.691875 
L 55.694375 296.595312 
Q 55.694375 298.795312 57.894375 298.795312 
z
" style="fill: #ffffff; opacity: 0.8; stroke: #cccccc; stroke-linejoin: miter"/>
    </g>
    <g id="line2d_17">
     <path d="M 60.094375 238.400156 
L 71.094375 238.400156 
L 82.094375 238.400156 
" style="fill: none; stroke: #4c72b0; stroke-width: 1.5; stroke-linecap: round"/>
    </g>
    <g id="text_16">
     <!-- Both matched cosines -->
     <g style="fill: #262626" transform="translate(90.894375 242.250156) scale(0.11 -0.11)">
      <defs>
       <path id="DejaVuSans-25" d="M 1259 2228 
L 1259 519 
L 2272 519 
Q 2781 519 3026 730 
Q 3272 941 3272 1375 
Q 3272 1813 3026 2020 
Q 2781 2228 2272 2228 
L 1259 2228 
z
M 1259 4147 
L 1259 2741 
L 2194 2741 
Q 2656 2741 2882 2914 
Q 3109 3088 3109 3444 
Q 3109 3797 2882 3972 
Q 2656 4147 2194 4147 
L 1259 4147 
z
M 628 4666 
L 2241 4666 
Q 2963 4666 3353 4366 
Q 3744 4066 3744 3513 
Q 3744 3084 3544 2831 
Q 3344 2578 2956 2516 
Q 3422 2416 3680 2098 
Q 3938 1781 3938 1306 
Q 3938 681 3513 340 
Q 3088 0 2303 0 
L 628 0 
L 628 4666 
z
" transform="scale(0.015625)"/>
       <path id="DejaVuSans-50" d="M 3328 2828 
Q 3544 3216 3844 3400 
Q 4144 3584 4550 3584 
Q 5097 3584 5394 3201 
Q 5691 2819 5691 2113 
L 5691 0 
L 5113 0 
L 5113 2094 
Q 5113 2597 4934 2840 
Q 4756 3084 4391 3084 
Q 3944 3084 3684 2787 
Q 3425 2491 3425 1978 
L 3425 0 
L 2847 0 
L 2847 2094 
Q 2847 2600 2669 2842 
Q 2491 3084 2119 3084 
Q 1678 3084 1418 2786 
Q 1159 2488 1159 1978 
L 1159 0 
L 581 0 
L 581 3500 
L 1159 3500 
L 1159 2956 
Q 1356 3278 1631 3431 
Q 1906 3584 2284 3584 
Q 2666 3584 2933 3390 
Q 3200 3197 3328 2828 
z
" transform="scale(0.015625)"/>
      </defs>
      <use xlink:href="#DejaVuSans-25"/>
      <use xlink:href="#DejaVuSans-52" transform="translate(68.609375 0)"/>
      <use xlink:href="#DejaVuSans-57" transform="translate(129.796875 0)"/>
      <use xlink:href="#DejaVuSans-4b" transform="translate(169 0)"/>
      <use xlink:href="#DejaVuSans-3" transform="translate(232.375 0)"/>
      <use xlink:href="#DejaVuSans-50" transform="translate(264.15625 0)"/>
      <use xlink:href="#DejaVuSans-44" transform="translate(361.5625 0)"/>
      <use xlink:href="#DejaVuSans-57" transform="translate(422.84375 0)"/>
      <use xlink:href="#DejaVuSans-46" transform="translate(462.046875 0)"/>
      <use xlink:href="#DejaVuSans-4b" transform="translate(517.03125 0)"/>
      <use xlink:href="#DejaVuSans-48" transform="translate(580.40625 0)"/>
      <use xlink:href="#DejaVuSans-47" transform="translate(641.9375 0)"/>
      <use xlink:href="#DejaVuSans-3" transform="translate(705.421875 0)"/>
      <use xlink:href="#DejaVuSans-46" transform="translate(737.203125 0)"/>
      <use xlink:href="#DejaVuSans-52" transform="translate(792.1875 0)"/>
      <use xlink:href="#DejaVuSans-56" transform="translate(853.375 0)"/>
      <use xlink:href="#DejaVuSans-4c" transform="translate(905.46875 0)"/>
      <use xlink:href="#DejaVuSans-51" transform="translate(933.25 0)"/>
      <use xlink:href="#DejaVuSans-48" transform="translate(996.625 0)"/>
      <use xlink:href="#DejaVuSans-56" transform="translate(1058.15625 0)"/>
     </g>
    </g>
    <g id="line2d_18">
     <path d="M 60.094375 254.901016 
L 71.094375 254.901016 
L 82.094375 254.901016 
" style="fill: none; stroke: #dd8452; stroke-width: 1.5; stroke-linecap: round"/>
    </g>
    <g id="text_17">
     <!-- Agreement + both cosines -->
     <g style="fill: #262626" transform="translate(90.894375 258.751016) scale(0.11 -0.11)">
      <defs>
       <path id="DejaVuSans-4a" d="M 2906 1791 
Q 2906 2416 2648 2759 
Q 2391 3103 1925 3103 
Q 1463 3103 1205 2759 
Q 947 2416 947 1791 
Q 947 1169 1205 825 
Q 1463 481 1925 481 
Q 2391 481 2648 825 
Q 2906 1169 2906 1791 
z
M 3481 434 
Q 3481 -459 3084 -895 
Q 2688 -1331 1869 -1331 
Q 1566 -1331 1297 -1286 
Q 1028 -1241 775 -1147 
L 775 -588 
Q 1028 -725 1275 -790 
Q 1522 -856 1778 -856 
Q 2344 -856 2625 -561 
Q 2906 -266 2906 331 
L 2906 616 
Q 2728 306 2450 153 
Q 2172 0 1784 0 
Q 1141 0 747 490 
Q 353 981 353 1791 
Q 353 2603 747 3093 
Q 1141 3584 1784 3584 
Q 2172 3584 2450 3431 
Q 2728 3278 2906 2969 
L 2906 3500 
L 3481 3500 
L 3481 434 
z
" transform="scale(0.015625)"/>
       <path id="DejaVuSans-e" d="M 2944 4013 
L 2944 2272 
L 4684 2272 
L 4684 1741 
L 2944 1741 
L 2944 0 
L 2419 0 
L 2419 1741 
L 678 1741 
L 678 2272 
L 2419 2272 
L 2419 4013 
L 2944 4013 
z
" transform="scale(0.015625)"/>
       <path id="DejaVuSans-45" d="M 3116 1747 
Q 3116 2381 2855 2742 
Q 2594 3103 2138 3103 
Q 1681 3103 1420 2742 
Q 1159 2381 1159 1747 
Q 1159 1113 1420 752 
Q 1681 391 2138 391 
Q 2594 391 2855 752 
Q 3116 1113 3116 1747 
z
M 1159 2969 
Q 1341 3281 1617 3432 
Q 1894 3584 2278 3584 
Q 2916 3584 3314 3078 
Q 3713 2572 3713 1747 
Q 3713 922 3314 415 
Q 2916 -91 2278 -91 
Q 1894 -91 1617 61 
Q 1341 213 1159 525 
L 1159 0 
L 581 0 
L 581 4863 
L 1159 4863 
L 1159 2969 
z
" transform="scale(0.015625)"/>
      </defs>
      <use xlink:href="#DejaVuSans-24"/>
      <use xlink:href="#DejaVuSans-4a" transform="translate(68.40625 0)"/>
      <use xlink:href="#DejaVuSans-55" transform="translate(131.890625 0)"/>
      <use xlink:href="#DejaVuSans-48" transform="translate(170.796875 0)"/>
      <use xlink:href="#DejaVuSans-48" transform="translate(232.328125 0)"/>
      <use xlink:href="#DejaVuSans-50" transform="translate(293.859375 0)"/>
      <use xlink:href="#DejaVuSans-48" transform="translate(391.265625 0)"/>
      <use xlink:href="#DejaVuSans-51" transform="translate(452.796875 0)"/>
      <use xlink:href="#DejaVuSans-57" transform="translate(516.171875 0)"/>
      <use xlink:href="#DejaVuSans-3" transform="translate(555.375 0)"/>
      <use xlink:href="#DejaVuSans-e" transform="translate(587.15625 0)"/>
      <use xlink:href="#DejaVuSans-3" transform="translate(670.953125 0)"/>
      <use xlink:href="#DejaVuSans-45" transform="translate(702.734375 0)"/>
      <use xlink:href="#DejaVuSans-52" transform="translate(766.21875 0)"/>
      <use xlink:href="#DejaVuSans-57" transform="translate(827.40625 0)"/>
      <use xlink:href="#DejaVuSans-4b" transform="translate(866.609375 0)"/>
      <use xlink:href="#DejaVuSans-3" transform="translate(929.984375 0)"/>
      <use xlink:href="#DejaVuSans-46" transform="translate(961.765625 0)"/>
      <use xlink:href="#DejaVuSans-52" transform="translate(1016.75 0)"/>
      <use xlink:href="#DejaVuSans-56" transform="translate(1077.9375 0)"/>
      <use xlink:href="#DejaVuSans-4c" transform="translate(1130.03125 0)"/>
      <use xlink:href="#DejaVuSans-51" transform="translate(1157.8125 0)"/>
      <use xlink:href="#DejaVuSans-48" transform="translate(1221.1875 0)"/>
      <use xlink:href="#DejaVuSans-56" transform="translate(1282.71875 0)"/>
     </g>
    </g>
    <g id="line2d_19">
     <path d="M 60.094375 271.401875 
L 71.094375 271.401875 
L 82.094375 271.401875 
" style="fill: none; stroke-dasharray: 5.55,2.4; stroke-dashoffset: 0; stroke: #55a868; stroke-width: 1.5"/>
    </g>
    <g id="text_18">
     <!-- Both maximum cosines -->
     <g style="fill: #262626" transform="translate(90.894375 275.251875) scale(0.11 -0.11)">
      <defs>
       <path id="DejaVuSans-5b" d="M 3513 3500 
L 2247 1797 
L 3578 0 
L 2900 0 
L 1881 1375 
L 863 0 
L 184 0 
L 1544 1831 
L 300 3500 
L 978 3500 
L 1906 2253 
L 2834 3500 
L 3513 3500 
z
" transform="scale(0.015625)"/>
       <path id="DejaVuSans-58" d="M 544 1381 
L 544 3500 
L 1119 3500 
L 1119 1403 
Q 1119 906 1312 657 
Q 1506 409 1894 409 
Q 2359 409 2629 706 
Q 2900 1003 2900 1516 
L 2900 3500 
L 3475 3500 
L 3475 0 
L 2900 0 
L 2900 538 
Q 2691 219 2414 64 
Q 2138 -91 1772 -91 
Q 1169 -91 856 284 
Q 544 659 544 1381 
z
M 1991 3584 
L 1991 3584 
z
" transform="scale(0.015625)"/>
      </defs>
      <use xlink:href="#DejaVuSans-25"/>
      <use xlink:href="#DejaVuSans-52" transform="translate(68.609375 0)"/>
      <use xlink:href="#DejaVuSans-57" transform="translate(129.796875 0)"/>
      <use xlink:href="#DejaVuSans-4b" transform="translate(169 0)"/>
      <use xlink:href="#DejaVuSans-3" transform="translate(232.375 0)"/>
      <use xlink:href="#DejaVuSans-50" transform="translate(264.15625 0)"/>
      <use xlink:href="#DejaVuSans-44" transform="translate(361.5625 0)"/>
      <use xlink:href="#DejaVuSans-5b" transform="translate(422.84375 0)"/>
      <use xlink:href="#DejaVuSans-4c" transform="translate(482.03125 0)"/>
      <use xlink:href="#DejaVuSans-50" transform="translate(509.8125 0)"/>
      <use xlink:href="#DejaVuSans-58" transform="translate(607.21875 0)"/>
      <use xlink:href="#DejaVuSans-50" transform="translate(670.59375 0)"/>
      <use xlink:href="#DejaVuSans-3" transform="translate(768 0)"/>
      <use xlink:href="#DejaVuSans-46" transform="translate(799.78125 0)"/>
      <use xlink:href="#DejaVuSans-52" transform="translate(854.765625 0)"/>
      <use xlink:href="#DejaVuSans-56" transform="translate(915.953125 0)"/>
      <use xlink:href="#DejaVuSans-4c" transform="translate(968.046875 0)"/>
      <use xlink:href="#DejaVuSans-51" transform="translate(995.828125 0)"/>
      <use xlink:href="#DejaVuSans-48" transform="translate(1059.203125 0)"/>
      <use xlink:href="#DejaVuSans-56" transform="translate(1120.734375 0)"/>
     </g>
    </g>
    <g id="line2d_20">
     <path d="M 60.094375 287.902734 
L 71.094375 287.902734 
L 82.094375 287.902734 
" style="fill: none; stroke-dasharray: 1.5,2.475; stroke-dashoffset: 0; stroke: #595959; stroke-width: 1.5"/>
    </g>
    <g id="text_19">
     <!-- Selected threshold = 0.7 -->
     <g style="fill: #262626" transform="translate(90.894375 291.752734) scale(0.11 -0.11)">
      <defs>
       <path id="DejaVuSans-20" d="M 678 2906 
L 4684 2906 
L 4684 2381 
L 678 2381 
L 678 2906 
z
M 678 1631 
L 4684 1631 
L 4684 1100 
L 678 1100 
L 678 1631 
z
" transform="scale(0.015625)"/>
       <path id="DejaVuSans-1a" d="M 525 4666 
L 3525 4666 
L 3525 4397 
L 1831 0 
L 1172 0 
L 2766 4134 
L 525 4134 
L 525 4666 
z
" transform="scale(0.015625)"/>
      </defs>
      <use xlink:href="#DejaVuSans-36"/>
      <use xlink:href="#DejaVuSans-48" transform="translate(63.484375 0)"/>
      <use xlink:href="#DejaVuSans-4f" transform="translate(125.015625 0)"/>
      <use xlink:href="#DejaVuSans-48" transform="translate(152.796875 0)"/>
      <use xlink:href="#DejaVuSans-46" transform="translate(214.328125 0)"/>
      <use xlink:href="#DejaVuSans-57" transform="translate(269.3125 0)"/>
      <use xlink:href="#DejaVuSans-48" transform="translate(308.515625 0)"/>
      <use xlink:href="#DejaVuSans-47" transform="translate(370.046875 0)"/>
      <use xlink:href="#DejaVuSans-3" transform="translate(433.53125 0)"/>
      <use xlink:href="#DejaVuSans-57" transform="translate(465.3125 0)"/>
      <use xlink:href="#DejaVuSans-4b" transform="translate(504.515625 0)"/>
      <use xlink:href="#DejaVuSans-55" transform="translate(567.890625 0)"/>
      <use xlink:href="#DejaVuSans-48" transform="translate(606.796875 0)"/>
      <use xlink:href="#DejaVuSans-56" transform="translate(668.328125 0)"/>
      <use xlink:href="#DejaVuSans-4b" transform="translate(720.421875 0)"/>
      <use xlink:href="#DejaVuSans-52" transform="translate(783.796875 0)"/>
      <use xlink:href="#DejaVuSans-4f" transform="translate(844.984375 0)"/>
      <use xlink:href="#DejaVuSans-47" transform="translate(872.765625 0)"/>
      <use xlink:href="#DejaVuSans-3" transform="translate(936.25 0)"/>
      <use xlink:href="#DejaVuSans-20" transform="translate(968.03125 0)"/>
      <use xlink:href="#DejaVuSans-3" transform="translate(1051.828125 0)"/>
      <use xlink:href="#DejaVuSans-13" transform="translate(1083.609375 0)"/>
      <use xlink:href="#DejaVuSans-11" transform="translate(1147.234375 0)"/>
      <use xlink:href="#DejaVuSans-1a" transform="translate(1179.015625 0)"/>
     </g>
    </g>
   </g>
  </g>
 </g>
 <defs>
  <clipPath id="pae1e7c61b7">
   <rect x="50.194375" y="22.318125" width="425.337188" height="281.977188"/>
  </clipPath>
 </defs>
</svg>
