<?xml version="1.0" encoding="utf-8" standalone="no"?>
<!DOCTYPE svg PUBLIC "-//W3C//DTD SVG 1.1//EN"
  "http://www.w3.org/Graphics/SVG/1.1/DTD/svg11.dtd">
<svg xmlns:xlink="http://www.w3.org/1999/xlink" width="492.346875pt" height="348.223594pt" viewBox="0 0 492.346875 348.223594" xmlns="http://www.w3.org/2000/svg" version="1.1">
 <metadata>
  <rdf:RDF xmlns:dc="http://purl.org/dc/elements/1.1/" xmlns:cc="http://creativecommons.org/ns#" xmlns:rdf="http://www.w3.org/1999/02/22-rdf-syntax-ns#">
   <cc:Work>
    <dc:type rdf:resource="http://purl.org/dc/dcmitype/StillImage"/>
    <dc:date>2026-07-21T00:49:07.352507</dc:date>
    <dc:format>image/svg+xml</dc:format>
    <dc:creator>
     <cc:Agent>
      <dc:title>Matplotlib v3.9.2, https://matplotlib.org/</dc:title>
     </cc:Agent>
    </dc:creator>
   </cc:Work>
  </rdf:RDF>
 </metadata>
 <defs>
  <style type="text/css">*{stroke-linejoin: round; stroke-linecap: butt}</style>
 </defs>
 <g id="figure_1">
  <g id="patch_1">
   <path d="M 0 348.223594 
L 492.346875 348.223594 
L 492.346875 0 
L 0 0 
z
" style="fill: #ffffff"/>
  </g>
  <g id="axes_1">
   <g id="patch_2">
    <path d="M 46.964375 306.489375 
L 477.501875 306.489375 
L 477.501875 21.789375 
L 46.964375 21.789375 
z
" style="fill: #ffffff"/>
   </g>
   <g id="matplotlib.axis_1">
    <g id="xtick_1">
     <g id="text_1">
      <!-- 0.0 -->
      <g style="fill: #262626" transform="translate(39.319375 323.862969) scale(0.11 -0.11)">
       <defs>
        <path id="ArialMT-30" d="M 266 2259 
Q 266 3072 433 3567 
Q 600 4063 929 4331 
Q 1259 4600 1759 4600 
Q 2128 4600 2406 4451 
Q 2684 4303 2865 4023 
Q 3047 3744 3150 3342 
Q 3253 2941 3253 2259 
Q 3253 1453 3087 958 
Q 2922 463 2592 192 
Q 2263 -78 1759 -78 
Q 1097 -78 719 397 
Q 266 969 266 2259 
z
M 844 2259 
Q 844 1131 1108 757 
Q 1372 384 1759 384 
Q 2147 384 2411 759 
Q 2675 1134 2675 2259 
Q 2675 3391 2411 3762 
Q 2147 4134 1753 4134 
Q 1366 4134 1134 3806 
Q 844 3388 844 2259 
z
" transform="scale(0.015625)"/>
        <path id="ArialMT-2e" d="M 581 0 
L 581 641 
L 1222 641 
L 1222 0 
L 581 0 
z
" transform="scale(0.015625)"/>
       </defs>
       <use xlink:href="#ArialMT-30"/>
       <use xlink:href="#ArialMT-2e" x="55.615234"/>
       <use xlink:href="#ArialMT-30" x="83.398438"/>
      </g>
     </g>
    </g>
    <g id="xtick_2">
     <g id="text_2">
      <!-- 0.2 -->
      <g style="fill: #262626" transform="translate(125.426875 323.862969) scale(0.11 -0.11)">
       <defs>
        <path id="ArialMT-32" d="M 3222 541 
L 3222 0 
L 194 0 
Q 188 203 259 391 
Q 375 700 629 1000 
Q 884 1300 1366 1694 
Q 2113 2306 2375 2664 
Q 2638 3022 2638 3341 
Q 2638 3675 2398 3904 
Q 2159 4134 1775 4134 
Q 1369 4134 1125 3890 
Q 881 3647 878 3216 
L 300 3275 
Q 359 3922 746 4261 
Q 1134 4600 1788 4600 
Q 2447 4600 2831 4234 
Q 3216 3869 3216 3328 
Q 3216 3053 3103 2787 
Q 2991 2522 2730 2228 
Q 2469 1934 1863 1422 
Q 1356 997 1212 845 
Q 1069 694 975 541 
L 3222 541 
z
" transform="scale(0.015625)"/>
       </defs>
       <use xlink:href="#ArialMT-30"/>
       <use xlink:href="#ArialMT-2e" x="55.615234"/>
       <use xlink:href="#ArialMT-32" x="83.398438"/>
      </g>
     </g>
    </g>
    <g id="xtick_3">
     <g id="text_3">
      <!-- 0.4 -->
      <g style="fill: #262626" transform="translate(211.534375 323.862969) scale(0.11 -0.11)">
       <defs>
        <path id="ArialMT-34" d="M 2069 0 
L 2069 1097 
L 81 1097 
L 81 1613 
L 2172 4581 
L 2631 4581 
L 2631 1613 
L 3250 1613 
L 3250 1097 
L 2631 1097 
L 2631 0 
L 2069 0 
z
M 2069 1613 
L 2069 3678 
L 634 1613 
L 2069 1613 
z
" transform="scale(0.015625)"/>
       </defs>
       <use xlink:href="#ArialMT-30"/>
       <use xlink:href="#ArialMT-2e" x="55.615234"/>
       <use xlink:href="#ArialMT-34" x="83.398438"/>
      </g>
     </g>
    </g>
    <g id="xtick_4">
     <g id="text_4">
      <!-- 0.6 -->
      <g style="fill: #262626" transform="translate(297.641875 323.862969) scale(0.11 -0.11)">
       <defs>
        <path id="ArialMT-36" d="M 3184 3459 
L 2625 3416 
Q 2550 3747 2413 3897 
Q 2184 4138 1850 4138 
Q 1581 4138 1378 3988 
Q 1113 3794 959 3422 
Q 806 3050 800 2363 
Q 1003 2672 1297 2822 
Q 1591 2972 1913 2972 
Q 2475 2972 2870 2558 
Q 3266 2144 3266 1488 
Q 3266 1056 3080 686 
Q 2894 316 2569 119 
Q 2244 -78 1831 -78 
Q 1128 -78 684 439 
Q 241 956 241 2144 
Q 241 3472 731 4075 
Q 1159 4600 1884 4600 
Q 2425 4600 2770 4297 
Q 3116 3994 3184 3459 
z
M 888 1484 
Q 888 1194 1011 928 
Q 1134 663 1356 523 
Q 1578 384 1822 384 
Q 2178 384 2434 671 
Q 2691 959 2691 1453 
Q 2691 1928 2437 2201 
Q 2184 2475 1800 2475 
Q 1419 2475 1153 2201 
Q 888 1928 888 1484 
z
" transform="scale(0.015625)"/>
       </defs>
       <use xlink:href="#ArialMT-30"/>
       <use xlink:href="#ArialMT-2e" x="55.615234"/>
       <use xlink:href="#ArialMT-36" x="83.398438"/>
      </g>
     </g>
    </g>
    <g id="xtick_5">
     <g id="text_5">
      <!-- 0.8 -->
      <g style="fill: #262626" transform="translate(383.749375 323.862969) scale(0.11 -0.11)">
       <defs>
        <path id="ArialMT-38" d="M 1131 2484 
Q 781 2613 612 2850 
Q 444 3088 444 3419 
Q 444 3919 803 4259 
Q 1163 4600 1759 4600 
Q 2359 4600 2725 4251 
Q 3091 3903 3091 3403 
Q 3091 3084 2923 2848 
Q 2756 2613 2416 2484 
Q 2838 2347 3058 2040 
Q 3278 1734 3278 1309 
Q 3278 722 2862 322 
Q 2447 -78 1769 -78 
Q 1091 -78 675 323 
Q 259 725 259 1325 
Q 259 1772 486 2073 
Q 713 2375 1131 2484 
z
M 1019 3438 
Q 1019 3113 1228 2906 
Q 1438 2700 1772 2700 
Q 2097 2700 2305 2904 
Q 2513 3109 2513 3406 
Q 2513 3716 2298 3927 
Q 2084 4138 1766 4138 
Q 1444 4138 1231 3931 
Q 1019 3725 1019 3438 
z
M 838 1322 
Q 838 1081 952 856 
Q 1066 631 1291 507 
Q 1516 384 1775 384 
Q 2178 384 2440 643 
Q 2703 903 2703 1303 
Q 2703 1709 2433 1975 
Q 2163 2241 1756 2241 
Q 1359 2241 1098 1978 
Q 838 1716 838 1322 
z
" transform="scale(0.015625)"/>
       </defs>
       <use xlink:href="#ArialMT-30"/>
       <use xlink:href="#ArialMT-2e" x="55.615234"/>
       <use xlink:href="#ArialMT-38" x="83.398438"/>
      </g>
     </g>
    </g>
    <g id="xtick_6">
     <g id="text_6">
      <!-- 1.0 -->
      <g style="fill: #262626" transform="translate(469.856875 323.862969) scale(0.11 -0.11)">
       <defs>
        <path id="ArialMT-31" d="M 2384 0 
L 1822 0 
L 1822 3584 
Q 1619 3391 1289 3197 
Q 959 3003 697 2906 
L 697 3450 
Q 1169 3672 1522 3987 
Q 1875 4303 2022 4600 
L 2384 4600 
L 2384 0 
z
" transform="scale(0.015625)"/>
       </defs>
       <use xlink:href="#ArialMT-31"/>
       <use xlink:href="#ArialMT-2e" x="55.615234"/>
       <use xlink:href="#ArialMT-30" x="83.398438"/>
      </g>
     </g>
    </g>
    <g id="text_7">
     <!-- Cosine threshold -->
     <g style="fill: #262626" transform="translate(217.209688 338.638594) scale(0.12 -0.12)">
      <defs>
       <path id="ArialMT-43" d="M 3763 1606 
L 4369 1453 
Q 4178 706 3683 314 
Q 3188 -78 2472 -78 
Q 1731 -78 1267 223 
Q 803 525 561 1097 
Q 319 1669 319 2325 
Q 319 3041 592 3573 
Q 866 4106 1370 4382 
Q 1875 4659 2481 4659 
Q 3169 4659 3637 4309 
Q 4106 3959 4291 3325 
L 3694 3184 
Q 3534 3684 3231 3912 
Q 2928 4141 2469 4141 
Q 1941 4141 1586 3887 
Q 1231 3634 1087 3207 
Q 944 2781 944 2328 
Q 944 1744 1114 1308 
Q 1284 872 1643 656 
Q 2003 441 2422 441 
Q 2931 441 3284 734 
Q 3638 1028 3763 1606 
z
" transform="scale(0.015625)"/>
       <path id="ArialMT-6f" d="M 213 1659 
Q 213 2581 725 3025 
Q 1153 3394 1769 3394 
Q 2453 3394 2887 2945 
Q 3322 2497 3322 1706 
Q 3322 1066 3130 698 
Q 2938 331 2570 128 
Q 2203 -75 1769 -75 
Q 1072 -75 642 372 
Q 213 819 213 1659 
z
M 791 1659 
Q 791 1022 1069 705 
Q 1347 388 1769 388 
Q 2188 388 2466 706 
Q 2744 1025 2744 1678 
Q 2744 2294 2464 2611 
Q 2184 2928 1769 2928 
Q 1347 2928 1069 2612 
Q 791 2297 791 1659 
z
" transform="scale(0.015625)"/>
       <path id="ArialMT-73" d="M 197 991 
L 753 1078 
Q 800 744 1014 566 
Q 1228 388 1613 388 
Q 2000 388 2187 545 
Q 2375 703 2375 916 
Q 2375 1106 2209 1216 
Q 2094 1291 1634 1406 
Q 1016 1563 777 1677 
Q 538 1791 414 1992 
Q 291 2194 291 2438 
Q 291 2659 392 2848 
Q 494 3038 669 3163 
Q 800 3259 1026 3326 
Q 1253 3394 1513 3394 
Q 1903 3394 2198 3281 
Q 2494 3169 2634 2976 
Q 2775 2784 2828 2463 
L 2278 2388 
Q 2241 2644 2061 2787 
Q 1881 2931 1553 2931 
Q 1166 2931 1000 2803 
Q 834 2675 834 2503 
Q 834 2394 903 2306 
Q 972 2216 1119 2156 
Q 1203 2125 1616 2013 
Q 2213 1853 2448 1751 
Q 2684 1650 2818 1456 
Q 2953 1263 2953 975 
Q 2953 694 2789 445 
Q 2625 197 2315 61 
Q 2006 -75 1616 -75 
Q 969 -75 630 194 
Q 291 463 197 991 
z
" transform="scale(0.015625)"/>
       <path id="ArialMT-69" d="M 425 3934 
L 425 4581 
L 988 4581 
L 988 3934 
L 425 3934 
z
M 425 0 
L 425 3319 
L 988 3319 
L 988 0 
L 425 0 
z
" transform="scale(0.015625)"/>
       <path id="ArialMT-6e" d="M 422 0 
L 422 3319 
L 928 3319 
L 928 2847 
Q 1294 3394 1984 3394 
Q 2284 3394 2536 3286 
Q 2788 3178 2913 3003 
Q 3038 2828 3088 2588 
Q 3119 2431 3119 2041 
L 3119 0 
L 2556 0 
L 2556 2019 
Q 2556 2363 2490 2533 
Q 2425 2703 2258 2804 
Q 2091 2906 1866 2906 
Q 1506 2906 1245 2678 
Q 984 2450 984 1813 
L 984 0 
L 422 0 
z
" transform="scale(0.015625)"/>
       <path id="ArialMT-65" d="M 2694 1069 
L 3275 997 
Q 3138 488 2766 206 
Q 2394 -75 1816 -75 
Q 1088 -75 661 373 
Q 234 822 234 1631 
Q 234 2469 665 2931 
Q 1097 3394 1784 3394 
Q 2450 3394 2872 2941 
Q 3294 2488 3294 1666 
Q 3294 1616 3291 1516 
L 816 1516 
Q 847 969 1125 678 
Q 1403 388 1819 388 
Q 2128 388 2347 550 
Q 2566 713 2694 1069 
z
M 847 1978 
L 2700 1978 
Q 2663 2397 2488 2606 
Q 2219 2931 1791 2931 
Q 1403 2931 1139 2672 
Q 875 2413 847 1978 
z
" transform="scale(0.015625)"/>
       <path id="ArialMT-20" transform="scale(0.015625)"/>
       <path id="ArialMT-74" d="M 1650 503 
L 1731 6 
Q 1494 -44 1306 -44 
Q 1000 -44 831 53 
Q 663 150 594 308 
Q 525 466 525 972 
L 525 2881 
L 113 2881 
L 113 3319 
L 525 3319 
L 525 4141 
L 1084 4478 
L 1084 3319 
L 1650 3319 
L 1650 2881 
L 1084 2881 
L 1084 941 
Q 1084 700 1114 631 
Q 1144 563 1211 522 
Q 1278 481 1403 481 
Q 1497 481 1650 503 
z
" transform="scale(0.015625)"/>
       <path id="ArialMT-68" d="M 422 0 
L 422 4581 
L 984 4581 
L 984 2938 
Q 1378 3394 1978 3394 
Q 2347 3394 2619 3248 
Q 2891 3103 3008 2847 
Q 3125 2591 3125 2103 
L 3125 0 
L 2563 0 
L 2563 2103 
Q 2563 2525 2380 2717 
Q 2197 2909 1863 2909 
Q 1613 2909 1392 2779 
Q 1172 2650 1078 2428 
Q 984 2206 984 1816 
L 984 0 
L 422 0 
z
" transform="scale(0.015625)"/>
       <path id="ArialMT-72" d="M 416 0 
L 416 3319 
L 922 3319 
L 922 2816 
Q 1116 3169 1280 3281 
Q 1444 3394 1641 3394 
Q 1925 3394 2219 3213 
L 2025 2691 
Q 1819 2813 1613 2813 
Q 1428 2813 1281 2702 
Q 1134 2591 1072 2394 
Q 978 2094 978 1738 
L 978 0 
L 416 0 
z
" transform="scale(0.015625)"/>
       <path id="ArialMT-6c" d="M 409 0 
L 409 4581 
L 972 4581 
L 972 0 
L 409 0 
z
" transform="scale(0.015625)"/>
       <path id="ArialMT-64" d="M 2575 0 
L 2575 419 
Q 2259 -75 1647 -75 
Q 1250 -75 917 144 
Q 584 363 401 755 
Q 219 1147 219 1656 
Q 219 2153 384 2558 
Q 550 2963 881 3178 
Q 1213 3394 1622 3394 
Q 1922 3394 2156 3267 
Q 2391 3141 2538 2938 
L 2538 4581 
L 3097 4581 
L 3097 0 
L 2575 0 
z
M 797 1656 
Q 797 1019 1065 703 
Q 1334 388 1700 388 
Q 2069 388 2326 689 
Q 2584 991 2584 1609 
Q 2584 2291 2321 2609 
Q 2059 2928 1675 2928 
Q 1300 2928 1048 2622 
Q 797 2316 797 1656 
z
" transform="scale(0.015625)"/>
      </defs>
      <use xlink:href="#ArialMT-43"/>
      <use xlink:href="#ArialMT-6f" x="72.216797"/>
      <use xlink:href="#ArialMT-73" x="127.832031"/>
      <use xlink:href="#ArialMT-69" x="177.832031"/>
      <use xlink:href="#ArialMT-6e" x="200.048828"/>
      <use xlink:href="#ArialMT-65" x="255.664062"/>
      <use xlink:href="#ArialMT-20" x="311.279297"/>
      <use xlink:href="#ArialMT-74" x="339.0625"/>
      <use xlink:href="#ArialMT-68" x="366.845703"/>
      <use xlink:href="#ArialMT-72" x="422.460938"/>
      <use xlink:href="#ArialMT-65" x="455.761719"/>
      <use xlink:href="#ArialMT-73" x="511.376953"/>
      <use xlink:href="#ArialMT-68" x="561.376953"/>
      <use xlink:href="#ArialMT-6f" x="616.992188"/>
      <use xlink:href="#ArialMT-6c" x="672.607422"/>
      <use xlink:href="#ArialMT-64" x="694.824219"/>
     </g>
    </g>
   </g>
   <g id="matplotlib.axis_2">
    <g id="ytick_1">
     <g id="text_8">
      <!-- 0.0 -->
      <g style="fill: #262626" transform="translate(22.174375 310.426172) scale(0.11 -0.11)">
       <use xlink:href="#ArialMT-30"/>
       <use xlink:href="#ArialMT-2e" x="55.615234"/>
       <use xlink:href="#ArialMT-30" x="83.398438"/>
      </g>
     </g>
    </g>
    <g id="ytick_2">
     <g id="text_9">
      <!-- 0.2 -->
      <g style="fill: #262626" transform="translate(22.174375 254.049934) scale(0.11 -0.11)">
       <use xlink:href="#ArialMT-30"/>
       <use xlink:href="#ArialMT-2e" x="55.615234"/>
       <use xlink:href="#ArialMT-32" x="83.398438"/>
      </g>
     </g>
    </g>
    <g id="ytick_3">
     <g id="text_10">
      <!-- 0.4 -->
      <g style="fill: #262626" transform="translate(22.174375 197.673697) scale(0.11 -0.11)">
       <use xlink:href="#ArialMT-30"/>
       <use xlink:href="#ArialMT-2e" x="55.615234"/>
       <use xlink:href="#ArialMT-34" x="83.398438"/>
      </g>
     </g>
    </g>
    <g id="ytick_4">
     <g id="text_11">
      <!-- 0.6 -->
      <g style="fill: #262626" transform="translate(22.174375 141.297459) scale(0.11 -0.11)">
       <use xlink:href="#ArialMT-30"/>
       <use xlink:href="#ArialMT-2e" x="55.615234"/>
       <use xlink:href="#ArialMT-36" x="83.398438"/>
      </g>
     </g>
    </g>
    <g id="ytick_5">
     <g id="text_12">
      <!-- 0.8 -->
      <g style="fill: #262626" transform="translate(22.174375 84.921221) scale(0.11 -0.11)">
       <use xlink:href="#ArialMT-30"/>
       <use xlink:href="#ArialMT-2e" x="55.615234"/>
       <use xlink:href="#ArialMT-38" x="83.398438"/>
      </g>
     </g>
    </g>
    <g id="ytick_6">
     <g id="text_13">
      <!-- 1.0 -->
      <g style="fill: #262626" transform="translate(22.174375 28.544984) scale(0.11 -0.11)">
       <use xlink:href="#ArialMT-31"/>
       <use xlink:href="#ArialMT-2e" x="55.615234"/>
       <use xlink:href="#ArialMT-30" x="83.398438"/>
      </g>
     </g>
    </g>
    <g id="text_14">
     <!-- Fraction of SAE-A latents -->
     <g style="fill: #262626" transform="translate(15.789375 231.16875) rotate(-90) scale(0.12 -0.12)">
      <defs>
       <path id="ArialMT-46" d="M 525 0 
L 525 4581 
L 3616 4581 
L 3616 4041 
L 1131 4041 
L 1131 2622 
L 3281 2622 
L 3281 2081 
L 1131 2081 
L 1131 0 
L 525 0 
z
" transform="scale(0.015625)"/>
       <path id="ArialMT-61" d="M 2588 409 
Q 2275 144 1986 34 
Q 1697 -75 1366 -75 
Q 819 -75 525 192 
Q 231 459 231 875 
Q 231 1119 342 1320 
Q 453 1522 633 1644 
Q 813 1766 1038 1828 
Q 1203 1872 1538 1913 
Q 2219 1994 2541 2106 
Q 2544 2222 2544 2253 
Q 2544 2597 2384 2738 
Q 2169 2928 1744 2928 
Q 1347 2928 1158 2789 
Q 969 2650 878 2297 
L 328 2372 
Q 403 2725 575 2942 
Q 747 3159 1072 3276 
Q 1397 3394 1825 3394 
Q 2250 3394 2515 3294 
Q 2781 3194 2906 3042 
Q 3031 2891 3081 2659 
Q 3109 2516 3109 2141 
L 3109 1391 
Q 3109 606 3145 398 
Q 3181 191 3288 0 
L 2700 0 
Q 2613 175 2588 409 
z
M 2541 1666 
Q 2234 1541 1622 1453 
Q 1275 1403 1131 1340 
Q 988 1278 909 1158 
Q 831 1038 831 891 
Q 831 666 1001 516 
Q 1172 366 1500 366 
Q 1825 366 2078 508 
Q 2331 650 2450 897 
Q 2541 1088 2541 1459 
L 2541 1666 
z
" transform="scale(0.015625)"/>
       <path id="ArialMT-63" d="M 2588 1216 
L 3141 1144 
Q 3050 572 2676 248 
Q 2303 -75 1759 -75 
Q 1078 -75 664 370 
Q 250 816 250 1647 
Q 250 2184 428 2587 
Q 606 2991 970 3192 
Q 1334 3394 1763 3394 
Q 2303 3394 2647 3120 
Q 2991 2847 3088 2344 
L 2541 2259 
Q 2463 2594 2264 2762 
Q 2066 2931 1784 2931 
Q 1359 2931 1093 2626 
Q 828 2322 828 1663 
Q 828 994 1084 691 
Q 1341 388 1753 388 
Q 2084 388 2306 591 
Q 2528 794 2588 1216 
z
" transform="scale(0.015625)"/>
       <path id="ArialMT-66" d="M 556 0 
L 556 2881 
L 59 2881 
L 59 3319 
L 556 3319 
L 556 3672 
Q 556 4006 616 4169 
Q 697 4388 901 4523 
Q 1106 4659 1475 4659 
Q 1713 4659 2000 4603 
L 1916 4113 
Q 1741 4144 1584 4144 
Q 1328 4144 1222 4034 
Q 1116 3925 1116 3625 
L 1116 3319 
L 1763 3319 
L 1763 2881 
L 1116 2881 
L 1116 0 
L 556 0 
z
" transform="scale(0.015625)"/>
       <path id="ArialMT-53" d="M 288 1472 
L 859 1522 
Q 900 1178 1048 958 
Q 1197 738 1509 602 
Q 1822 466 2213 466 
Q 2559 466 2825 569 
Q 3091 672 3220 851 
Q 3350 1031 3350 1244 
Q 3350 1459 3225 1620 
Q 3100 1781 2813 1891 
Q 2628 1963 1997 2114 
Q 1366 2266 1113 2400 
Q 784 2572 623 2826 
Q 463 3081 463 3397 
Q 463 3744 659 4045 
Q 856 4347 1234 4503 
Q 1613 4659 2075 4659 
Q 2584 4659 2973 4495 
Q 3363 4331 3572 4012 
Q 3781 3694 3797 3291 
L 3216 3247 
Q 3169 3681 2898 3903 
Q 2628 4125 2100 4125 
Q 1550 4125 1298 3923 
Q 1047 3722 1047 3438 
Q 1047 3191 1225 3031 
Q 1400 2872 2139 2705 
Q 2878 2538 3153 2413 
Q 3553 2228 3743 1945 
Q 3934 1663 3934 1294 
Q 3934 928 3725 604 
Q 3516 281 3123 101 
Q 2731 -78 2241 -78 
Q 1619 -78 1198 103 
Q 778 284 539 648 
Q 300 1013 288 1472 
z
" transform="scale(0.015625)"/>
       <path id="ArialMT-41" d="M -9 0 
L 1750 4581 
L 2403 4581 
L 4278 0 
L 3588 0 
L 3053 1388 
L 1138 1388 
L 634 0 
L -9 0 
z
M 1313 1881 
L 2866 1881 
L 2388 3150 
Q 2169 3728 2063 4100 
Q 1975 3659 1816 3225 
L 1313 1881 
z
" transform="scale(0.015625)"/>
       <path id="ArialMT-45" d="M 506 0 
L 506 4581 
L 3819 4581 
L 3819 4041 
L 1113 4041 
L 1113 2638 
L 3647 2638 
L 3647 2100 
L 1113 2100 
L 1113 541 
L 3925 541 
L 3925 0 
L 506 0 
z
" transform="scale(0.015625)"/>
       <path id="ArialMT-2d" d="M 203 1375 
L 203 1941 
L 1931 1941 
L 1931 1375 
L 203 1375 
z
" transform="scale(0.015625)"/>
      </defs>
      <use xlink:href="#ArialMT-46"/>
      <use xlink:href="#ArialMT-72" x="61.083984"/>
      <use xlink:href="#ArialMT-61" x="94.384766"/>
      <use xlink:href="#ArialMT-63" x="150"/>
      <use xlink:href="#ArialMT-74" x="200"/>
      <use xlink:href="#ArialMT-69" x="227.783203"/>
      <use xlink:href="#ArialMT-6f" x="250"/>
      <use xlink:href="#ArialMT-6e" x="305.615234"/>
      <use xlink:href="#ArialMT-20" x="361.230469"/>
      <use xlink:href="#ArialMT-6f" x="389.013672"/>
      <use xlink:href="#ArialMT-66" x="444.628906"/>
      <use xlink:href="#ArialMT-20" x="472.412109"/>
      <use xlink:href="#ArialMT-53" x="500.195312"/>
      <use xlink:href="#ArialMT-41" x="566.894531"/>
      <use xlink:href="#ArialMT-45" x="633.59375"/>
      <use xlink:href="#ArialMT-2d" x="700.292969"/>
      <use xlink:href="#ArialMT-41" x="733.59375"/>
      <use xlink:href="#ArialMT-20" x="794.792969"/>
      <use xlink:href="#ArialMT-6c" x="822.576172"/>
      <use xlink:href="#ArialMT-61" x="844.792969"/>
      <use xlink:href="#ArialMT-74" x="900.408203"/>
      <use xlink:href="#ArialMT-65" x="928.191406"/>
      <use xlink:href="#ArialMT-6e" x="983.806641"/>
      <use xlink:href="#ArialMT-74" x="1039.421875"/>
      <use xlink:href="#ArialMT-73" x="1067.205078"/>
     </g>
    </g>
   </g>
   <g id="line2d_1">
    <path d="M 46.964375 24.608187 
L 51.26975 24.608187 
L 55.575125 24.608187 
L 59.8805 24.608187 
L 64.185875 24.608187 
L 68.49125 24.608187 
L 72.796625 24.608187 
L 77.102 24.608187 
L 81.407375 24.608187 
L 85.71275 24.608187 
L 90.018125 24.608187 
L 94.3235 24.616789 
L 98.628875 24.797438 
L 102.93425 25.408204 
L 107.239625 27.206091 
L 111.545 30.810468 
L 115.850375 36.789088 
L 120.15575 44.901086 
L 124.461125 55.851854 
L 128.7665 68.815567 
L 133.071875 82.820162 
L 137.37725 96.145173 
L 141.682625 108.850816 
L 145.988 120.567191 
L 150.293375 131.234082 
L 154.59875 141.359026 
L 158.904125 150.331257 
L 163.2095 158.236799 
L 167.514875 164.757366 
L 171.82025 170.021993 
L 176.125625 174.589831 
L 180.431 178.331845 
L 184.736375 181.721164 
L 189.04175 184.637354 
L 193.347125 187.35569 
L 197.6525 189.93639 
L 201.957875 192.181598 
L 206.26325 194.36659 
L 210.568625 196.568787 
L 214.874 198.521516 
L 219.179375 200.284994 
L 223.48475 202.426975 
L 227.790125 204.448523 
L 232.0955 206.323831 
L 236.400875 208.224946 
L 240.70625 210.014231 
L 245.011625 211.863732 
L 249.317 213.747643 
L 253.622375 215.683167 
L 257.92775 217.326212 
L 262.233125 219.364965 
L 266.5385 221.317694 
L 270.843875 222.92633 
L 275.14925 224.603784 
L 279.454625 226.719958 
L 283.76 228.629675 
L 288.065375 230.444767 
L 292.37075 232.33728 
L 296.676125 234.221191 
L 300.9815 236.079294 
L 305.286875 238.014819 
L 309.59225 239.967548 
L 313.897625 241.937482 
L 318.203 243.735369 
L 322.508375 245.705303 
L 326.81375 247.572009 
L 331.119125 249.524738 
L 335.4245 251.19359 
L 339.729875 252.991477 
L 344.03525 254.591511 
L 348.340625 256.415205 
L 352.646 258.479765 
L 356.951375 260.647552 
L 361.25675 262.548667 
L 365.562125 264.398169 
L 369.8675 266.376705 
L 374.172875 268.183194 
L 378.47825 270.110116 
L 382.783625 272.277904 
L 387.089 274.092996 
L 391.394375 275.890883 
L 395.69975 277.826408 
L 400.005125 279.830751 
L 404.3105 281.697457 
L 408.615875 283.486741 
L 412.92125 285.336243 
L 417.226625 287.254562 
L 421.532 289.078257 
L 425.837375 290.93636 
L 430.14275 292.803066 
L 434.448125 294.721386 
L 438.7535 296.390238 
L 443.058875 298.145114 
L 447.36425 299.60751 
L 451.669625 301.224748 
L 455.975 302.695747 
L 460.280375 303.943085 
L 464.58575 305.044183 
L 468.891125 305.637744 
L 473.1965 306.24851 
L 477.501875 306.489375 
" clip-path="url(#p14c7966cc6)" style="fill: none; stroke: #4c72b0; stroke-width: 1.5; stroke-linecap: round"/>
   </g>
   <g id="line2d_2">
    <path d="M 46.964375 166.581061 
L 51.26975 166.581061 
L 55.575125 166.581061 
L 59.8805 166.581061 
L 64.185875 166.581061 
L 68.49125 166.581061 
L 72.796625 166.581061 
L 77.102 166.581061 
L 81.407375 166.581061 
L 85.71275 166.581061 
L 90.018125 166.581061 
L 94.3235 166.581061 
L 98.628875 166.589663 
L 102.93425 166.589663 
L 107.239625 166.598265 
L 111.545 166.606868 
L 115.850375 166.624072 
L 120.15575 166.753107 
L 124.461125 167.028382 
L 128.7665 167.768182 
L 133.071875 168.826269 
L 137.37725 170.15963 
L 141.682625 171.96612 
L 145.988 174.1081 
L 150.293375 176.146853 
L 154.59875 178.495289 
L 158.904125 181.024375 
L 163.2095 183.630881 
L 167.514875 186.323411 
L 171.82025 188.525608 
L 176.125625 190.856839 
L 180.431 192.921399 
L 184.736375 195.020368 
L 189.04175 196.672015 
L 193.347125 198.512914 
L 197.6525 200.147357 
L 201.957875 201.618356 
L 206.26325 203.115161 
L 210.568625 204.594762 
L 214.874 206.031351 
L 219.179375 207.270087 
L 223.48475 208.861518 
L 227.790125 210.384131 
L 232.0955 211.889539 
L 236.400875 213.317526 
L 240.70625 214.642285 
L 245.011625 216.078874 
L 249.317 217.653101 
L 253.622375 219.253134 
L 257.92775 220.629507 
L 262.233125 222.392985 
L 266.5385 224.010224 
L 270.843875 225.429608 
L 275.14925 226.823186 
L 279.454625 228.681289 
L 283.76 230.427563 
L 288.065375 232.018994 
L 292.37075 233.77387 
L 296.676125 235.468529 
L 300.9815 237.180393 
L 305.286875 238.961075 
L 309.59225 240.707348 
L 313.897625 242.565452 
L 318.203 244.277316 
L 322.508375 246.204238 
L 326.81375 247.984921 
L 331.119125 249.851627 
L 335.4245 251.460262 
L 339.729875 253.197933 
L 344.03525 254.789365 
L 348.340625 256.570047 
L 352.646 258.617402 
L 356.951375 260.75078 
L 361.25675 262.608884 
L 365.562125 264.44118 
L 369.8675 266.411114 
L 374.172875 268.209001 
L 378.47825 270.127321 
L 382.783625 272.286506 
L 387.089 274.101598 
L 391.394375 275.899485 
L 395.69975 277.83501 
L 400.005125 279.839353 
L 404.3105 281.706059 
L 408.615875 283.486741 
L 412.92125 285.336243 
L 417.226625 287.254562 
L 421.532 289.078257 
L 425.837375 290.93636 
L 430.14275 292.803066 
L 434.448125 294.721386 
L 438.7535 296.390238 
L 443.058875 298.145114 
L 447.36425 299.60751 
L 451.669625 301.224748 
L 455.975 302.695747 
L 460.280375 303.943085 
L 464.58575 305.044183 
L 468.891125 305.637744 
L 473.1965 306.24851 
L 477.501875 306.489375 
" clip-path="url(#p14c7966cc6)" style="fill: none; stroke: #dd8452; stroke-width: 1.5; stroke-linecap: round"/>
   </g>
   <g id="line2d_3">
    <path d="M 46.964375 24.608187 
L 51.26975 24.608187 
L 55.575125 24.608187 
L 59.8805 24.608187 
L 64.185875 24.608187 
L 68.49125 24.608187 
L 72.796625 24.608187 
L 77.102 24.608187 
L 81.407375 24.608187 
L 85.71275 24.608187 
L 90.018125 24.608187 
L 94.3235 24.608187 
L 98.628875 24.608187 
L 102.93425 24.608187 
L 107.239625 24.608187 
L 111.545 24.625392 
L 115.850375 24.849052 
L 120.15575 26.036174 
L 124.461125 29.262048 
L 128.7665 34.449254 
L 133.071875 42.862334 
L 137.37725 54.337843 
L 141.682625 67.353171 
L 145.988 80.953456 
L 150.293375 94.080613 
L 154.59875 106.166889 
L 158.904125 117.995094 
L 163.2095 128.567359 
L 167.514875 137.118076 
L 171.82025 144.111772 
L 176.125625 150.365666 
L 180.431 155.638895 
L 184.736375 160.017482 
L 189.04175 163.578847 
L 193.347125 166.98537 
L 197.6525 170.237051 
L 201.957875 173.101628 
L 206.26325 175.751146 
L 210.568625 178.555506 
L 214.874 181.162012 
L 219.179375 183.605074 
L 223.48475 186.271797 
L 227.790125 188.775075 
L 232.0955 191.054693 
L 236.400875 193.678404 
L 240.70625 196.052647 
L 245.011625 198.57313 
L 249.317 201.059204 
L 253.622375 203.70012 
L 257.92775 206.134579 
L 262.233125 208.723881 
L 266.5385 211.22716 
L 270.843875 213.523982 
L 275.14925 215.786395 
L 279.454625 218.272469 
L 283.76 220.784349 
L 288.065375 223.201605 
L 292.37075 225.790906 
L 296.676125 228.27698 
L 300.9815 230.539393 
L 305.286875 232.99966 
L 309.59225 235.322289 
L 313.897625 237.825568 
L 318.203 240.062174 
L 322.508375 242.496633 
L 326.81375 244.750444 
L 331.119125 247.004255 
L 335.4245 249.068814 
L 339.729875 251.167783 
L 344.03525 253.043091 
L 348.340625 255.004423 
L 352.646 257.284041 
L 356.951375 259.692693 
L 361.25675 261.731446 
L 365.562125 263.752994 
L 369.8675 265.877769 
L 374.172875 267.796089 
L 378.47825 269.809035 
L 382.783625 272.011232 
L 387.089 273.88654 
L 391.394375 275.727439 
L 395.69975 277.705975 
L 400.005125 279.796341 
L 404.3105 281.688854 
L 408.615875 283.478139 
L 412.92125 285.32764 
L 417.226625 287.24596 
L 421.532 289.069654 
L 425.837375 290.927758 
L 430.14275 292.803066 
L 434.448125 294.721386 
L 438.7535 296.390238 
L 443.058875 298.145114 
L 447.36425 299.60751 
L 451.669625 301.224748 
L 455.975 302.695747 
L 460.280375 303.943085 
L 464.58575 305.044183 
L 468.891125 305.637744 
L 473.1965 306.24851 
L 477.501875 306.489375 
" clip-path="url(#p14c7966cc6)" style="fill: none; stroke-dasharray: 5.55,2.4; stroke-dashoffset: 0; stroke: #55a868; stroke-width: 1.5"/>
   </g>
   <g id="line2d_4">
    <path d="M 348.340625 306.489375 
L 348.340625 21.789375 
" clip-path="url(#p14c7966cc6)" style="fill: none; stroke-dasharray: 1.5,2.475; stroke-dashoffset: 0; stroke: #595959; stroke-width: 1.5"/>
   </g>
   <g id="patch_3">
    <path d="M 46.964375 306.489375 
L 46.964375 21.789375 
" style="fill: none; stroke: #262626; stroke-width: 1.25; stroke-linejoin: miter; stroke-linecap: square"/>
   </g>
   <g id="patch_4">
    <path d="M 477.501875 306.489375 
L 477.501875 21.789375 
" style="fill: none; stroke: #262626; stroke-width: 1.25; stroke-linejoin: miter; stroke-linecap: square"/>
   </g>
   <g id="patch_5">
    <path d="M 46.964375 306.489375 
L 477.501875 306.489375 
" style="fill: none; stroke: #262626; stroke-width: 1.25; stroke-linejoin: miter; stroke-linecap: square"/>
   </g>
   <g id="patch_6">
    <path d="M 46.964375 21.789375 
L 477.501875 21.789375 
" style="fill: none; stroke: #262626; stroke-width: 1.25; stroke-linejoin: miter; stroke-linecap: square"/>
   </g>
   <g id="text_15">
    <!-- Shared-latent fraction across thresholds -->
    <g style="fill: #262626" transform="translate(156.185938 15.789375) scale(0.12 -0.12)">
     <use xlink:href="#ArialMT-53"/>
     <use xlink:href="#ArialMT-68" x="66.699219"/>
     <use xlink:href="#ArialMT-61" x="122.314453"/>
     <use xlink:href="#ArialMT-72" x="177.929688"/>
     <use xlink:href="#ArialMT-65" x="211.230469"/>
     <use xlink:href="#ArialMT-64" x="266.845703"/>
     <use xlink:href="#ArialMT-2d" x="322.460938"/>
     <use xlink:href="#ArialMT-6c" x="355.761719"/>
     <use xlink:href="#ArialMT-61" x="377.978516"/>
     <use xlink:href="#ArialMT-74" x="433.59375"/>
     <use xlink:href="#ArialMT-65" x="461.376953"/>
     <use xlink:href="#ArialMT-6e" x="516.992188"/>
     <use xlink:href="#ArialMT-74" x="572.607422"/>
     <use xlink:href="#ArialMT-20" x="600.390625"/>
     <use xlink:href="#ArialMT-66" x="628.173828"/>
     <use xlink:href="#ArialMT-72" x="655.957031"/>
     <use xlink:href="#ArialMT-61" x="689.257812"/>
     <use xlink:href="#ArialMT-63" x="744.873047"/>
     <use xlink:href="#ArialMT-74" x="794.873047"/>
     <use xlink:href="#ArialMT-69" x="822.65625"/>
     <use xlink:href="#ArialMT-6f" x="844.873047"/>
     <use xlink:href="#ArialMT-6e" x="900.488281"/>
     <use xlink:href="#ArialMT-20" x="956.103516"/>
     <use xlink:href="#ArialMT-61" x="983.886719"/>
     <use xlink:href="#ArialMT-63" x="1039.501953"/>
     <use xlink:href="#ArialMT-72" x="1089.501953"/>
     <use xlink:href="#ArialMT-6f" x="1122.802734"/>
     <use xlink:href="#ArialMT-73" x="1178.417969"/>
     <use xlink:href="#ArialMT-73" x="1228.417969"/>
     <use xlink:href="#ArialMT-20" x="1278.417969"/>
     <use xlink:href="#ArialMT-74" x="1306.201172"/>
     <use xlink:href="#ArialMT-68" x="1333.984375"/>
     <use xlink:href="#ArialMT-72" x="1389.599609"/>
     <use xlink:href="#ArialMT-65" x="1422.900391"/>
     <use xlink:href="#ArialMT-73" x="1478.515625"/>
     <use xlink:href="#ArialMT-68" x="1528.515625"/>
     <use xlink:href="#ArialMT-6f" x="1584.130859"/>
     <use xlink:href="#ArialMT-6c" x="1639.746094"/>
     <use xlink:href="#ArialMT-64" x="1661.962891"/>
     <use xlink:href="#ArialMT-73" x="1717.578125"/>
    </g>
   </g>
   <g id="legend_1">
    <g id="patch_7">
     <path d="M 54.664375 300.989375 
L 259.932969 300.989375 
Q 262.132969 300.989375 262.132969 298.789375 
L 262.132969 237.263281 
Q 262.132969 235.063281 259.932969 235.063281 
L 54.664375 235.063281 
Q 52.464375 235.063281 52.464375 237.263281 
L 52.464375 298.789375 
Q 52.464375 300.989375 54.664375 300.989375 
z
" style="fill: #ffffff; opacity: 0.8; stroke: #cccccc; stroke-linejoin: miter"/>
    </g>
    <g id="line2d_5">
     <path d="M 56.864375 243.486875 
L 67.864375 243.486875 
L 78.864375 243.486875 
" style="fill: none; stroke: #4c72b0; stroke-width: 1.5; stroke-linecap: round"/>
    </g>
    <g id="text_16">
     <!-- Threshold cosine similarity -->
     <g style="fill: #262626" transform="translate(87.664375 247.336875) scale(0.11 -0.11)">
      <defs>
       <path id="ArialMT-54" d="M 1659 0 
L 1659 4041 
L 150 4041 
L 150 4581 
L 3781 4581 
L 3781 4041 
L 2266 4041 
L 2266 0 
L 1659 0 
z
" transform="scale(0.015625)"/>
       <path id="ArialMT-6d" d="M 422 0 
L 422 3319 
L 925 3319 
L 925 2853 
Q 1081 3097 1340 3245 
Q 1600 3394 1931 3394 
Q 2300 3394 2536 3241 
Q 2772 3088 2869 2813 
Q 3263 3394 3894 3394 
Q 4388 3394 4653 3120 
Q 4919 2847 4919 2278 
L 4919 0 
L 4359 0 
L 4359 2091 
Q 4359 2428 4304 2576 
Q 4250 2725 4106 2815 
Q 3963 2906 3769 2906 
Q 3419 2906 3187 2673 
Q 2956 2441 2956 1928 
L 2956 0 
L 2394 0 
L 2394 2156 
Q 2394 2531 2256 2718 
Q 2119 2906 1806 2906 
Q 1569 2906 1367 2781 
Q 1166 2656 1075 2415 
Q 984 2175 984 1722 
L 984 0 
L 422 0 
z
" transform="scale(0.015625)"/>
       <path id="ArialMT-79" d="M 397 -1278 
L 334 -750 
Q 519 -800 656 -800 
Q 844 -800 956 -737 
Q 1069 -675 1141 -563 
Q 1194 -478 1313 -144 
Q 1328 -97 1363 -6 
L 103 3319 
L 709 3319 
L 1400 1397 
Q 1534 1031 1641 628 
Q 1738 1016 1872 1384 
L 2581 3319 
L 3144 3319 
L 1881 -56 
Q 1678 -603 1566 -809 
Q 1416 -1088 1222 -1217 
Q 1028 -1347 759 -1347 
Q 597 -1347 397 -1278 
z
" transform="scale(0.015625)"/>
      </defs>
      <use xlink:href="#ArialMT-54"/>
      <use xlink:href="#ArialMT-68" x="61.083984"/>
      <use xlink:href="#ArialMT-72" x="116.699219"/>
      <use xlink:href="#ArialMT-65" x="150"/>
      <use xlink:href="#ArialMT-73" x="205.615234"/>
      <use xlink:href="#ArialMT-68" x="255.615234"/>
      <use xlink:href="#ArialMT-6f" x="311.230469"/>
      <use xlink:href="#ArialMT-6c" x="366.845703"/>
      <use xlink:href="#ArialMT-64" x="389.0625"/>
      <use xlink:href="#ArialMT-20" x="444.677734"/>
      <use xlink:href="#ArialMT-63" x="472.460938"/>
      <use xlink:href="#ArialMT-6f" x="522.460938"/>
      <use xlink:href="#ArialMT-73" x="578.076172"/>
      <use xlink:href="#ArialMT-69" x="628.076172"/>
      <use xlink:href="#ArialMT-6e" x="650.292969"/>
      <use xlink:href="#ArialMT-65" x="705.908203"/>
      <use xlink:href="#ArialMT-20" x="761.523438"/>
      <use xlink:href="#ArialMT-73" x="789.306641"/>
      <use xlink:href="#ArialMT-69" x="839.306641"/>
      <use xlink:href="#ArialMT-6d" x="861.523438"/>
      <use xlink:href="#ArialMT-69" x="944.824219"/>
      <use xlink:href="#ArialMT-6c" x="967.041016"/>
      <use xlink:href="#ArialMT-61" x="989.257812"/>
      <use xlink:href="#ArialMT-72" x="1044.873047"/>
      <use xlink:href="#ArialMT-69" x="1078.173828"/>
      <use xlink:href="#ArialMT-74" x="1100.390625"/>
      <use xlink:href="#ArialMT-79" x="1128.173828"/>
     </g>
    </g>
    <g id="line2d_6">
     <path d="M 56.864375 259.175625 
L 67.864375 259.175625 
L 78.864375 259.175625 
" style="fill: none; stroke: #dd8452; stroke-width: 1.5; stroke-linecap: round"/>
    </g>
    <g id="text_17">
     <!-- Equal + Threshold cosine similarity -->
     <g style="fill: #262626" transform="translate(87.664375 263.025625) scale(0.11 -0.11)">
      <defs>
       <path id="ArialMT-71" d="M 2538 -1272 
L 2538 353 
Q 2406 169 2170 47 
Q 1934 -75 1669 -75 
Q 1078 -75 651 397 
Q 225 869 225 1691 
Q 225 2191 398 2587 
Q 572 2984 901 3189 
Q 1231 3394 1625 3394 
Q 2241 3394 2594 2875 
L 2594 3319 
L 3100 3319 
L 3100 -1272 
L 2538 -1272 
z
M 803 1669 
Q 803 1028 1072 708 
Q 1341 388 1716 388 
Q 2075 388 2334 692 
Q 2594 997 2594 1619 
Q 2594 2281 2320 2615 
Q 2047 2950 1678 2950 
Q 1313 2950 1058 2639 
Q 803 2328 803 1669 
z
" transform="scale(0.015625)"/>
       <path id="ArialMT-75" d="M 2597 0 
L 2597 488 
Q 2209 -75 1544 -75 
Q 1250 -75 995 37 
Q 741 150 617 320 
Q 494 491 444 738 
Q 409 903 409 1263 
L 409 3319 
L 972 3319 
L 972 1478 
Q 972 1038 1006 884 
Q 1059 663 1231 536 
Q 1403 409 1656 409 
Q 1909 409 2131 539 
Q 2353 669 2445 892 
Q 2538 1116 2538 1541 
L 2538 3319 
L 3100 3319 
L 3100 0 
L 2597 0 
z
" transform="scale(0.015625)"/>
       <path id="ArialMT-2b" d="M 1603 741 
L 1603 1997 
L 356 1997 
L 356 2522 
L 1603 2522 
L 1603 3769 
L 2134 3769 
L 2134 2522 
L 3381 2522 
L 3381 1997 
L 2134 1997 
L 2134 741 
L 1603 741 
z
" transform="scale(0.015625)"/>
      </defs>
      <use xlink:href="#ArialMT-45"/>
      <use xlink:href="#ArialMT-71" x="66.699219"/>
      <use xlink:href="#ArialMT-75" x="122.314453"/>
      <use xlink:href="#ArialMT-61" x="177.929688"/>
      <use xlink:href="#ArialMT-6c" x="233.544922"/>
      <use xlink:href="#ArialMT-20" x="255.761719"/>
      <use xlink:href="#ArialMT-2b" x="283.544922"/>
      <use xlink:href="#ArialMT-20" x="341.943359"/>
      <use xlink:href="#ArialMT-54" x="367.976562"/>
      <use xlink:href="#ArialMT-68" x="429.060547"/>
      <use xlink:href="#ArialMT-72" x="484.675781"/>
      <use xlink:href="#ArialMT-65" x="517.976562"/>
      <use xlink:href="#ArialMT-73" x="573.591797"/>
      <use xlink:href="#ArialMT-68" x="623.591797"/>
      <use xlink:href="#ArialMT-6f" x="679.207031"/>
      <use xlink:href="#ArialMT-6c" x="734.822266"/>
      <use xlink:href="#ArialMT-64" x="757.039062"/>
      <use xlink:href="#ArialMT-20" x="812.654297"/>
      <use xlink:href="#ArialMT-63" x="840.4375"/>
      <use xlink:href="#ArialMT-6f" x="890.4375"/>
      <use xlink:href="#ArialMT-73" x="946.052734"/>
      <use xlink:href="#ArialMT-69" x="996.052734"/>
      <use xlink:href="#ArialMT-6e" x="1018.269531"/>
      <use xlink:href="#ArialMT-65" x="1073.884766"/>
      <use xlink:href="#ArialMT-20" x="1129.5"/>
      <use xlink:href="#ArialMT-73" x="1157.283203"/>
      <use xlink:href="#ArialMT-69" x="1207.283203"/>
      <use xlink:href="#ArialMT-6d" x="1229.5"/>
      <use xlink:href="#ArialMT-69" x="1312.800781"/>
      <use xlink:href="#ArialMT-6c" x="1335.017578"/>
      <use xlink:href="#ArialMT-61" x="1357.234375"/>
      <use xlink:href="#ArialMT-72" x="1412.849609"/>
      <use xlink:href="#ArialMT-69" x="1446.150391"/>
      <use xlink:href="#ArialMT-74" x="1468.367188"/>
      <use xlink:href="#ArialMT-79" x="1496.150391"/>
     </g>
    </g>
    <g id="line2d_7">
     <path d="M 56.864375 274.864375 
L 67.864375 274.864375 
L 78.864375 274.864375 
" style="fill: none; stroke-dasharray: 5.55,2.4; stroke-dashoffset: 0; stroke: #55a868; stroke-width: 1.5"/>
    </g>
    <g id="text_18">
     <!-- Max cosine similarity -->
     <g style="fill: #262626" transform="translate(87.664375 278.714375) scale(0.11 -0.11)">
      <defs>
       <path id="ArialMT-4d" d="M 475 0 
L 475 4581 
L 1388 4581 
L 2472 1338 
Q 2622 884 2691 659 
Q 2769 909 2934 1394 
L 4031 4581 
L 4847 4581 
L 4847 0 
L 4263 0 
L 4263 3834 
L 2931 0 
L 2384 0 
L 1059 3900 
L 1059 0 
L 475 0 
z
" transform="scale(0.015625)"/>
       <path id="ArialMT-78" d="M 47 0 
L 1259 1725 
L 138 3319 
L 841 3319 
L 1350 2541 
Q 1494 2319 1581 2169 
Q 1719 2375 1834 2534 
L 2394 3319 
L 3066 3319 
L 1919 1756 
L 3153 0 
L 2463 0 
L 1781 1031 
L 1600 1309 
L 728 0 
L 47 0 
z
" transform="scale(0.015625)"/>
      </defs>
      <use xlink:href="#ArialMT-4d"/>
      <use xlink:href="#ArialMT-61" x="83.300781"/>
      <use xlink:href="#ArialMT-78" x="138.916016"/>
      <use xlink:href="#ArialMT-20" x="188.916016"/>
      <use xlink:href="#ArialMT-63" x="216.699219"/>
      <use xlink:href="#ArialMT-6f" x="266.699219"/>
      <use xlink:href="#ArialMT-73" x="322.314453"/>
      <use xlink:href="#ArialMT-69" x="372.314453"/>
      <use xlink:href="#ArialMT-6e" x="394.53125"/>
      <use xlink:href="#ArialMT-65" x="450.146484"/>
      <use xlink:href="#ArialMT-20" x="505.761719"/>
      <use xlink:href="#ArialMT-73" x="533.544922"/>
      <use xlink:href="#ArialMT-69" x="583.544922"/>
      <use xlink:href="#ArialMT-6d" x="605.761719"/>
      <use xlink:href="#ArialMT-69" x="689.0625"/>
      <use xlink:href="#ArialMT-6c" x="711.279297"/>
      <use xlink:href="#ArialMT-61" x="733.496094"/>
      <use xlink:href="#ArialMT-72" x="789.111328"/>
      <use xlink:href="#ArialMT-69" x="822.412109"/>
      <use xlink:href="#ArialMT-74" x="844.628906"/>
      <use xlink:href="#ArialMT-79" x="872.412109"/>
     </g>
    </g>
    <g id="line2d_8">
     <path d="M 56.864375 290.553125 
L 67.864375 290.553125 
L 78.864375 290.553125 
" style="fill: none; stroke-dasharray: 1.5,2.475; stroke-dashoffset: 0; stroke: #595959; stroke-width: 1.5"/>
    </g>
    <g id="text_19">
     <!-- Selected threshold = 0.7 -->
     <g style="fill: #262626" transform="translate(87.664375 294.403125) scale(0.11 -0.11)">
      <defs>
       <path id="ArialMT-3d" d="M 3381 2694 
L 356 2694 
L 356 3219 
L 3381 3219 
L 3381 2694 
z
M 3381 1303 
L 356 1303 
L 356 1828 
L 3381 1828 
L 3381 1303 
z
" transform="scale(0.015625)"/>
       <path id="ArialMT-37" d="M 303 3981 
L 303 4522 
L 3269 4522 
L 3269 4084 
Q 2831 3619 2401 2847 
Q 1972 2075 1738 1259 
Q 1569 684 1522 0 
L 944 0 
Q 953 541 1156 1306 
Q 1359 2072 1739 2783 
Q 2119 3494 2547 3981 
L 303 3981 
z
" transform="scale(0.015625)"/>
      </defs>
      <use xlink:href="#ArialMT-53"/>
      <use xlink:href="#ArialMT-65" x="66.699219"/>
      <use xlink:href="#ArialMT-6c" x="122.314453"/>
      <use xlink:href="#ArialMT-65" x="144.53125"/>
      <use xlink:href="#ArialMT-63" x="200.146484"/>
      <use xlink:href="#ArialMT-74" x="250.146484"/>
      <use xlink:href="#ArialMT-65" x="277.929688"/>
      <use xlink:href="#ArialMT-64" x="333.544922"/>
      <use xlink:href="#ArialMT-20" x="389.160156"/>
      <use xlink:href="#ArialMT-74" x="416.943359"/>
      <use xlink:href="#ArialMT-68" x="444.726562"/>
      <use xlink:href="#ArialMT-72" x="500.341797"/>
      <use xlink:href="#ArialMT-65" x="533.642578"/>
      <use xlink:href="#ArialMT-73" x="589.257812"/>
      <use xlink:href="#ArialMT-68" x="639.257812"/>
      <use xlink:href="#ArialMT-6f" x="694.873047"/>
      <use xlink:href="#ArialMT-6c" x="750.488281"/>
      <use xlink:href="#ArialMT-64" x="772.705078"/>
      <use xlink:href="#ArialMT-20" x="828.320312"/>
      <use xlink:href="#ArialMT-3d" x="856.103516"/>
      <use xlink:href="#ArialMT-20" x="914.501953"/>
      <use xlink:href="#ArialMT-30" x="942.285156"/>
      <use xlink:href="#ArialMT-2e" x="997.900391"/>
      <use xlink:href="#ArialMT-37" x="1025.683594"/>
     </g>
    </g>
   </g>
  </g>
 </g>
 <defs>
  <clipPath id="p14c7966cc6">
   <rect x="46.964375" y="21.789375" width="430.5375" height="284.7"/>
  </clipPath>
 </defs>
</svg>
