<?xml version="1.0" encoding="utf-8" standalone="no"?>
<!DOCTYPE svg PUBLIC "-//W3C//DTD SVG 1.1//EN"
  "http://www.w3.org/Graphics/SVG/1.1/DTD/svg11.dtd">
<svg xmlns:xlink="http://www.w3.org/1999/xlink" width="563.731562pt" height="347.99625pt" viewBox="0 0 563.731562 347.99625" xmlns="http://www.w3.org/2000/svg" version="1.1">
 <metadata>
  <rdf:RDF xmlns:dc="http://purl.org/dc/elements/1.1/" xmlns:cc="http://creativecommons.org/ns#" xmlns:rdf="http://www.w3.org/1999/02/22-rdf-syntax-ns#">
   <cc:Work>
    <dc:type rdf:resource="http://purl.org/dc/dcmitype/StillImage"/>
    <dc:date>2026-07-19T11:27:39.208190</dc:date>
    <dc:format>image/svg+xml</dc:format>
    <dc:creator>
     <cc:Agent>
      <dc:title>Matplotlib v3.11.1, https://matplotlib.org/</dc:title>
     </cc:Agent>
    </dc:creator>
   </cc:Work>
  </rdf:RDF>
 </metadata>
 <defs>
  <style type="text/css">*{stroke-linejoin: round; stroke-linecap: butt}</style>
 </defs>
 <g id="figure_1">
  <g id="patch_1">
   <path d="M 0 347.99625 
L 563.731562 347.99625 
L 563.731562 0 
L 0 0 
z
" style="fill: #ffffff"/>
  </g>
  <g id="axes_1">
   <g id="patch_2">
    <path d="M 50.194375 304.295312 
L 556.531562 304.295312 
L 556.531562 22.318125 
L 50.194375 22.318125 
z
" style="fill: #ffffff"/>
   </g>
   <g id="matplotlib.axis_1">
    <g id="xtick_1">
     <g id="line2d_1">
      <path d="M 73.209702 304.295312 
L 73.209702 22.318125 
" clip-path="url(#p3bbb684b1a)" style="fill: none; stroke: #cccccc; stroke-linecap: round"/>
     </g>
     <g id="text_1">
      <!-- 0 -->
      <g style="fill: #262626" transform="translate(69.710327 322.152734) scale(0.11 -0.11)">
       <defs>
        <path id="DejaVuSans-13" d="M 2034 4250 
Q 1547 4250 1301 3770 
Q 1056 3291 1056 2328 
Q 1056 1369 1301 889 
Q 1547 409 2034 409 
Q 2525 409 2770 889 
Q 3016 1369 3016 2328 
Q 3016 3291 2770 3770 
Q 2525 4250 2034 4250 
z
M 2034 4750 
Q 2819 4750 3233 4129 
Q 3647 3509 3647 2328 
Q 3647 1150 3233 529 
Q 2819 -91 2034 -91 
Q 1250 -91 836 529 
Q 422 1150 422 2328 
Q 422 3509 836 4129 
Q 1250 4750 2034 4750 
z
" transform="scale(0.015625)"/>
       </defs>
       <use xlink:href="#DejaVuSans-13"/>
      </g>
     </g>
    </g>
    <g id="xtick_2">
     <g id="line2d_2">
      <path d="M 163.201204 304.295312 
L 163.201204 22.318125 
" clip-path="url(#p3bbb684b1a)" style="fill: none; stroke: #cccccc; stroke-linecap: round"/>
     </g>
     <g id="text_2">
      <!-- 200 -->
      <g style="fill: #262626" transform="translate(152.703079 322.152734) scale(0.11 -0.11)">
       <defs>
        <path id="DejaVuSans-15" d="M 1228 531 
L 3431 531 
L 3431 0 
L 469 0 
L 469 531 
Q 828 903 1448 1529 
Q 2069 2156 2228 2338 
Q 2531 2678 2651 2914 
Q 2772 3150 2772 3378 
Q 2772 3750 2511 3984 
Q 2250 4219 1831 4219 
Q 1534 4219 1204 4116 
Q 875 4013 500 3803 
L 500 4441 
Q 881 4594 1212 4672 
Q 1544 4750 1819 4750 
Q 2544 4750 2975 4387 
Q 3406 4025 3406 3419 
Q 3406 3131 3298 2873 
Q 3191 2616 2906 2266 
Q 2828 2175 2409 1742 
Q 1991 1309 1228 531 
z
" transform="scale(0.015625)"/>
       </defs>
       <use xlink:href="#DejaVuSans-15"/>
       <use xlink:href="#DejaVuSans-13" transform="translate(63.625 0)"/>
       <use xlink:href="#DejaVuSans-13" transform="translate(127.25 0)"/>
      </g>
     </g>
    </g>
    <g id="xtick_3">
     <g id="line2d_3">
      <path d="M 253.192706 304.295312 
L 253.192706 22.318125 
" clip-path="url(#p3bbb684b1a)" style="fill: none; stroke: #cccccc; stroke-linecap: round"/>
     </g>
     <g id="text_3">
      <!-- 400 -->
      <g style="fill: #262626" transform="translate(242.694581 322.152734) scale(0.11 -0.11)">
       <defs>
        <path id="DejaVuSans-17" d="M 2419 4116 
L 825 1625 
L 2419 1625 
L 2419 4116 
z
M 2253 4666 
L 3047 4666 
L 3047 1625 
L 3713 1625 
L 3713 1100 
L 3047 1100 
L 3047 0 
L 2419 0 
L 2419 1100 
L 313 1100 
L 313 1709 
L 2253 4666 
z
" transform="scale(0.015625)"/>
       </defs>
       <use xlink:href="#DejaVuSans-17"/>
       <use xlink:href="#DejaVuSans-13" transform="translate(63.625 0)"/>
       <use xlink:href="#DejaVuSans-13" transform="translate(127.25 0)"/>
      </g>
     </g>
    </g>
    <g id="xtick_4">
     <g id="line2d_4">
      <path d="M 343.184209 304.295312 
L 343.184209 22.318125 
" clip-path="url(#p3bbb684b1a)" style="fill: none; stroke: #cccccc; stroke-linecap: round"/>
     </g>
     <g id="text_4">
      <!-- 600 -->
      <g style="fill: #262626" transform="translate(332.686084 322.152734) scale(0.11 -0.11)">
       <defs>
        <path id="DejaVuSans-19" d="M 2113 2584 
Q 1688 2584 1439 2293 
Q 1191 2003 1191 1497 
Q 1191 994 1439 701 
Q 1688 409 2113 409 
Q 2538 409 2786 701 
Q 3034 994 3034 1497 
Q 3034 2003 2786 2293 
Q 2538 2584 2113 2584 
z
M 3366 4563 
L 3366 3988 
Q 3128 4100 2886 4159 
Q 2644 4219 2406 4219 
Q 1781 4219 1451 3797 
Q 1122 3375 1075 2522 
Q 1259 2794 1537 2939 
Q 1816 3084 2150 3084 
Q 2853 3084 3261 2657 
Q 3669 2231 3669 1497 
Q 3669 778 3244 343 
Q 2819 -91 2113 -91 
Q 1303 -91 875 529 
Q 447 1150 447 2328 
Q 447 3434 972 4092 
Q 1497 4750 2381 4750 
Q 2619 4750 2861 4703 
Q 3103 4656 3366 4563 
z
" transform="scale(0.015625)"/>
       </defs>
       <use xlink:href="#DejaVuSans-19"/>
       <use xlink:href="#DejaVuSans-13" transform="translate(63.625 0)"/>
       <use xlink:href="#DejaVuSans-13" transform="translate(127.25 0)"/>
      </g>
     </g>
    </g>
    <g id="xtick_5">
     <g id="line2d_5">
      <path d="M 433.175711 304.295312 
L 433.175711 22.318125 
" clip-path="url(#p3bbb684b1a)" style="fill: none; stroke: #cccccc; stroke-linecap: round"/>
     </g>
     <g id="text_5">
      <!-- 800 -->
      <g style="fill: #262626" transform="translate(422.677586 322.152734) scale(0.11 -0.11)">
       <defs>
        <path id="DejaVuSans-1b" d="M 2034 2216 
Q 1584 2216 1326 1975 
Q 1069 1734 1069 1313 
Q 1069 891 1326 650 
Q 1584 409 2034 409 
Q 2484 409 2743 651 
Q 3003 894 3003 1313 
Q 3003 1734 2745 1975 
Q 2488 2216 2034 2216 
z
M 1403 2484 
Q 997 2584 770 2862 
Q 544 3141 544 3541 
Q 544 4100 942 4425 
Q 1341 4750 2034 4750 
Q 2731 4750 3128 4425 
Q 3525 4100 3525 3541 
Q 3525 3141 3298 2862 
Q 3072 2584 2669 2484 
Q 3125 2378 3379 2068 
Q 3634 1759 3634 1313 
Q 3634 634 3220 271 
Q 2806 -91 2034 -91 
Q 1263 -91 848 271 
Q 434 634 434 1313 
Q 434 1759 690 2068 
Q 947 2378 1403 2484 
z
M 1172 3481 
Q 1172 3119 1398 2916 
Q 1625 2713 2034 2713 
Q 2441 2713 2670 2916 
Q 2900 3119 2900 3481 
Q 2900 3844 2670 4047 
Q 2441 4250 2034 4250 
Q 1625 4250 1398 4047 
Q 1172 3844 1172 3481 
z
" transform="scale(0.015625)"/>
       </defs>
       <use xlink:href="#DejaVuSans-1b"/>
       <use xlink:href="#DejaVuSans-13" transform="translate(63.625 0)"/>
       <use xlink:href="#DejaVuSans-13" transform="translate(127.25 0)"/>
      </g>
     </g>
    </g>
    <g id="xtick_6">
     <g id="line2d_6">
      <path d="M 523.167213 304.295312 
L 523.167213 22.318125 
" clip-path="url(#p3bbb684b1a)" style="fill: none; stroke: #cccccc; stroke-linecap: round"/>
     </g>
     <g id="text_6">
      <!-- 1000 -->
      <g style="fill: #262626" transform="translate(509.169713 322.152734) scale(0.11 -0.11)">
       <defs>
        <path id="DejaVuSans-14" d="M 794 531 
L 1825 531 
L 1825 4091 
L 703 3866 
L 703 4441 
L 1819 4666 
L 2450 4666 
L 2450 531 
L 3481 531 
L 3481 0 
L 794 0 
L 794 531 
z
" transform="scale(0.015625)"/>
       </defs>
       <use xlink:href="#DejaVuSans-14"/>
       <use xlink:href="#DejaVuSans-13" transform="translate(63.625 0)"/>
       <use xlink:href="#DejaVuSans-13" transform="translate(127.25 0)"/>
       <use xlink:href="#DejaVuSans-13" transform="translate(190.875 0)"/>
      </g>
     </g>
    </g>
    <g id="text_7">
     <!-- Principal component -->
     <g style="fill: #262626" transform="translate(241.944531 337.913437) scale(0.12 -0.12)">
      <defs>
       <path id="DejaVuSans-33" d="M 1259 4147 
L 1259 2394 
L 2053 2394 
Q 2494 2394 2734 2622 
Q 2975 2850 2975 3272 
Q 2975 3691 2734 3919 
Q 2494 4147 2053 4147 
L 1259 4147 
z
M 628 4666 
L 2053 4666 
Q 2838 4666 3239 4311 
Q 3641 3956 3641 3272 
Q 3641 2581 3239 2228 
Q 2838 1875 2053 1875 
L 1259 1875 
L 1259 0 
L 628 0 
L 628 4666 
z
" transform="scale(0.015625)"/>
       <path id="DejaVuSans-55" d="M 2631 2963 
Q 2534 3019 2420 3045 
Q 2306 3072 2169 3072 
Q 1681 3072 1420 2755 
Q 1159 2438 1159 1844 
L 1159 0 
L 581 0 
L 581 3500 
L 1159 3500 
L 1159 2956 
Q 1341 3275 1631 3429 
Q 1922 3584 2338 3584 
Q 2397 3584 2469 3576 
Q 2541 3569 2628 3553 
L 2631 2963 
z
" transform="scale(0.015625)"/>
       <path id="DejaVuSans-4c" d="M 603 3500 
L 1178 3500 
L 1178 0 
L 603 0 
L 603 3500 
z
M 603 4863 
L 1178 4863 
L 1178 4134 
L 603 4134 
L 603 4863 
z
" transform="scale(0.015625)"/>
       <path id="DejaVuSans-51" d="M 3513 2113 
L 3513 0 
L 2938 0 
L 2938 2094 
Q 2938 2591 2744 2837 
Q 2550 3084 2163 3084 
Q 1697 3084 1428 2787 
Q 1159 2491 1159 1978 
L 1159 0 
L 581 0 
L 581 3500 
L 1159 3500 
L 1159 2956 
Q 1366 3272 1645 3428 
Q 1925 3584 2291 3584 
Q 2894 3584 3203 3211 
Q 3513 2838 3513 2113 
z
" transform="scale(0.015625)"/>
       <path id="DejaVuSans-46" d="M 3122 3366 
L 3122 2828 
Q 2878 2963 2633 3030 
Q 2388 3097 2138 3097 
Q 1578 3097 1268 2742 
Q 959 2388 959 1747 
Q 959 1106 1268 751 
Q 1578 397 2138 397 
Q 2388 397 2633 464 
Q 2878 531 3122 666 
L 3122 134 
Q 2881 22 2623 -34 
Q 2366 -91 2075 -91 
Q 1284 -91 818 406 
Q 353 903 353 1747 
Q 353 2603 823 3093 
Q 1294 3584 2113 3584 
Q 2378 3584 2631 3529 
Q 2884 3475 3122 3366 
z
" transform="scale(0.015625)"/>
       <path id="DejaVuSans-53" d="M 1159 525 
L 1159 -1331 
L 581 -1331 
L 581 3500 
L 1159 3500 
L 1159 2969 
Q 1341 3281 1617 3432 
Q 1894 3584 2278 3584 
Q 2916 3584 3314 3078 
Q 3713 2572 3713 1747 
Q 3713 922 3314 415 
Q 2916 -91 2278 -91 
Q 1894 -91 1617 61 
Q 1341 213 1159 525 
z
M 3116 1747 
Q 3116 2381 2855 2742 
Q 2594 3103 2138 3103 
Q 1681 3103 1420 2742 
Q 1159 2381 1159 1747 
Q 1159 1113 1420 752 
Q 1681 391 2138 391 
Q 2594 391 2855 752 
Q 3116 1113 3116 1747 
z
" transform="scale(0.015625)"/>
       <path id="DejaVuSans-44" d="M 2194 1759 
Q 1497 1759 1228 1600 
Q 959 1441 959 1056 
Q 959 750 1161 570 
Q 1363 391 1709 391 
Q 2188 391 2477 730 
Q 2766 1069 2766 1631 
L 2766 1759 
L 2194 1759 
z
M 3341 1997 
L 3341 0 
L 2766 0 
L 2766 531 
Q 2569 213 2275 61 
Q 1981 -91 1556 -91 
Q 1019 -91 701 211 
Q 384 513 384 1019 
Q 384 1609 779 1909 
Q 1175 2209 1959 2209 
L 2766 2209 
L 2766 2266 
Q 2766 2663 2505 2880 
Q 2244 3097 1772 3097 
Q 1472 3097 1187 3025 
Q 903 2953 641 2809 
L 641 3341 
Q 956 3463 1253 3523 
Q 1550 3584 1831 3584 
Q 2591 3584 2966 3190 
Q 3341 2797 3341 1997 
z
" transform="scale(0.015625)"/>
       <path id="DejaVuSans-4f" d="M 603 4863 
L 1178 4863 
L 1178 0 
L 603 0 
L 603 4863 
z
" transform="scale(0.015625)"/>
       <path id="DejaVuSans-3" transform="scale(0.015625)"/>
       <path id="DejaVuSans-52" d="M 1959 3097 
Q 1497 3097 1228 2736 
Q 959 2375 959 1747 
Q 959 1119 1226 758 
Q 1494 397 1959 397 
Q 2419 397 2687 759 
Q 2956 1122 2956 1747 
Q 2956 2369 2687 2733 
Q 2419 3097 1959 3097 
z
M 1959 3584 
Q 2709 3584 3137 3096 
Q 3566 2609 3566 1747 
Q 3566 888 3137 398 
Q 2709 -91 1959 -91 
Q 1206 -91 779 398 
Q 353 888 353 1747 
Q 353 2609 779 3096 
Q 1206 3584 1959 3584 
z
" transform="scale(0.015625)"/>
       <path id="DejaVuSans-50" d="M 3328 2828 
Q 3544 3216 3844 3400 
Q 4144 3584 4550 3584 
Q 5097 3584 5394 3201 
Q 5691 2819 5691 2113 
L 5691 0 
L 5113 0 
L 5113 2094 
Q 5113 2597 4934 2840 
Q 4756 3084 4391 3084 
Q 3944 3084 3684 2787 
Q 3425 2491 3425 1978 
L 3425 0 
L 2847 0 
L 2847 2094 
Q 2847 2600 2669 2842 
Q 2491 3084 2119 3084 
Q 1678 3084 1418 2786 
Q 1159 2488 1159 1978 
L 1159 0 
L 581 0 
L 581 3500 
L 1159 3500 
L 1159 2956 
Q 1356 3278 1631 3431 
Q 1906 3584 2284 3584 
Q 2666 3584 2933 3390 
Q 3200 3197 3328 2828 
z
" transform="scale(0.015625)"/>
       <path id="DejaVuSans-48" d="M 3597 1894 
L 3597 1613 
L 953 1613 
Q 991 1019 1311 708 
Q 1631 397 2203 397 
Q 2534 397 2845 478 
Q 3156 559 3463 722 
L 3463 178 
Q 3153 47 2828 -22 
Q 2503 -91 2169 -91 
Q 1331 -91 842 396 
Q 353 884 353 1716 
Q 353 2575 817 3079 
Q 1281 3584 2069 3584 
Q 2775 3584 3186 3129 
Q 3597 2675 3597 1894 
z
M 3022 2063 
Q 3016 2534 2758 2815 
Q 2500 3097 2075 3097 
Q 1594 3097 1305 2825 
Q 1016 2553 972 2059 
L 3022 2063 
z
" transform="scale(0.015625)"/>
       <path id="DejaVuSans-57" d="M 1172 4494 
L 1172 3500 
L 2356 3500 
L 2356 3053 
L 1172 3053 
L 1172 1153 
Q 1172 725 1289 603 
Q 1406 481 1766 481 
L 2356 481 
L 2356 0 
L 1766 0 
Q 1100 0 847 248 
Q 594 497 594 1153 
L 594 3053 
L 172 3053 
L 172 3500 
L 594 3500 
L 594 4494 
L 1172 4494 
z
" transform="scale(0.015625)"/>
      </defs>
      <use xlink:href="#DejaVuSans-33"/>
      <use xlink:href="#DejaVuSans-55" transform="translate(58.546875 0)"/>
      <use xlink:href="#DejaVuSans-4c" transform="translate(99.65625 0)"/>
      <use xlink:href="#DejaVuSans-51" transform="translate(127.4375 0)"/>
      <use xlink:href="#DejaVuSans-46" transform="translate(190.8125 0)"/>
      <use xlink:href="#DejaVuSans-4c" transform="translate(245.796875 0)"/>
      <use xlink:href="#DejaVuSans-53" transform="translate(273.578125 0)"/>
      <use xlink:href="#DejaVuSans-44" transform="translate(337.0625 0)"/>
      <use xlink:href="#DejaVuSans-4f" transform="translate(398.34375 0)"/>
      <use xlink:href="#DejaVuSans-3" transform="translate(426.125 0)"/>
      <use xlink:href="#DejaVuSans-46" transform="translate(457.90625 0)"/>
      <use xlink:href="#DejaVuSans-52" transform="translate(512.890625 0)"/>
      <use xlink:href="#DejaVuSans-50" transform="translate(574.078125 0)"/>
      <use xlink:href="#DejaVuSans-53" transform="translate(671.484375 0)"/>
      <use xlink:href="#DejaVuSans-52" transform="translate(734.96875 0)"/>
      <use xlink:href="#DejaVuSans-51" transform="translate(796.15625 0)"/>
      <use xlink:href="#DejaVuSans-48" transform="translate(859.53125 0)"/>
      <use xlink:href="#DejaVuSans-51" transform="translate(921.0625 0)"/>
      <use xlink:href="#DejaVuSans-57" transform="translate(984.4375 0)"/>
     </g>
    </g>
   </g>
   <g id="matplotlib.axis_2">
    <g id="ytick_1">
     <g id="line2d_7">
      <path d="M 50.194375 304.295312 
L 556.531562 304.295312 
" clip-path="url(#p3bbb684b1a)" style="fill: none; stroke: #cccccc; stroke-linecap: round"/>
     </g>
     <g id="text_8">
      <!-- 0.0 -->
      <g style="fill: #262626" transform="translate(23.200938 308.474023) scale(0.11 -0.11)">
       <defs>
        <path id="DejaVuSans-11" d="M 684 794 
L 1344 794 
L 1344 0 
L 684 0 
L 684 794 
z
" transform="scale(0.015625)"/>
       </defs>
       <use xlink:href="#DejaVuSans-13"/>
       <use xlink:href="#DejaVuSans-11" transform="translate(63.625 0)"/>
       <use xlink:href="#DejaVuSans-13" transform="translate(95.40625 0)"/>
      </g>
     </g>
    </g>
    <g id="ytick_2">
     <g id="line2d_8">
      <path d="M 50.194375 249.005668 
L 556.531562 249.005668 
" clip-path="url(#p3bbb684b1a)" style="fill: none; stroke: #cccccc; stroke-linecap: round"/>
     </g>
     <g id="text_9">
      <!-- 0.2 -->
      <g style="fill: #262626" transform="translate(23.200938 253.184379) scale(0.11 -0.11)">
       <use xlink:href="#DejaVuSans-13"/>
       <use xlink:href="#DejaVuSans-11" transform="translate(63.625 0)"/>
       <use xlink:href="#DejaVuSans-15" transform="translate(95.40625 0)"/>
      </g>
     </g>
    </g>
    <g id="ytick_3">
     <g id="line2d_9">
      <path d="M 50.194375 193.716023 
L 556.531562 193.716023 
" clip-path="url(#p3bbb684b1a)" style="fill: none; stroke: #cccccc; stroke-linecap: round"/>
     </g>
     <g id="text_10">
      <!-- 0.4 -->
      <g style="fill: #262626" transform="translate(23.200938 197.894734) scale(0.11 -0.11)">
       <use xlink:href="#DejaVuSans-13"/>
       <use xlink:href="#DejaVuSans-11" transform="translate(63.625 0)"/>
       <use xlink:href="#DejaVuSans-17" transform="translate(95.40625 0)"/>
      </g>
     </g>
    </g>
    <g id="ytick_4">
     <g id="line2d_10">
      <path d="M 50.194375 138.426379 
L 556.531562 138.426379 
" clip-path="url(#p3bbb684b1a)" style="fill: none; stroke: #cccccc; stroke-linecap: round"/>
     </g>
     <g id="text_11">
      <!-- 0.6 -->
      <g style="fill: #262626" transform="translate(23.200938 142.60509) scale(0.11 -0.11)">
       <use xlink:href="#DejaVuSans-13"/>
       <use xlink:href="#DejaVuSans-11" transform="translate(63.625 0)"/>
       <use xlink:href="#DejaVuSans-19" transform="translate(95.40625 0)"/>
      </g>
     </g>
    </g>
    <g id="ytick_5">
     <g id="line2d_11">
      <path d="M 50.194375 83.136734 
L 556.531562 83.136734 
" clip-path="url(#p3bbb684b1a)" style="fill: none; stroke: #cccccc; stroke-linecap: round"/>
     </g>
     <g id="text_12">
      <!-- 0.8 -->
      <g style="fill: #262626" transform="translate(23.200938 87.315445) scale(0.11 -0.11)">
       <use xlink:href="#DejaVuSans-13"/>
       <use xlink:href="#DejaVuSans-11" transform="translate(63.625 0)"/>
       <use xlink:href="#DejaVuSans-1b" transform="translate(95.40625 0)"/>
      </g>
     </g>
    </g>
    <g id="ytick_6">
     <g id="line2d_12">
      <path d="M 50.194375 27.847089 
L 556.531562 27.847089 
" clip-path="url(#p3bbb684b1a)" style="fill: none; stroke: #cccccc; stroke-linecap: round"/>
     </g>
     <g id="text_13">
      <!-- 1.0 -->
      <g style="fill: #262626" transform="translate(23.200938 32.0258) scale(0.11 -0.11)">
       <use xlink:href="#DejaVuSans-14"/>
       <use xlink:href="#DejaVuSans-11" transform="translate(63.625 0)"/>
       <use xlink:href="#DejaVuSans-13" transform="translate(95.40625 0)"/>
      </g>
     </g>
    </g>
    <g id="text_14">
     <!-- Cumulative explained variance -->
     <g style="fill: #262626" transform="translate(16.318125 256.458594) rotate(-90) scale(0.12 -0.12)">
      <defs>
       <path id="DejaVuSans-26" d="M 4122 4306 
L 4122 3641 
Q 3803 3938 3442 4084 
Q 3081 4231 2675 4231 
Q 1875 4231 1450 3742 
Q 1025 3253 1025 2328 
Q 1025 1406 1450 917 
Q 1875 428 2675 428 
Q 3081 428 3442 575 
Q 3803 722 4122 1019 
L 4122 359 
Q 3791 134 3420 21 
Q 3050 -91 2638 -91 
Q 1578 -91 968 557 
Q 359 1206 359 2328 
Q 359 3453 968 4101 
Q 1578 4750 2638 4750 
Q 3056 4750 3426 4639 
Q 3797 4528 4122 4306 
z
" transform="scale(0.015625)"/>
       <path id="DejaVuSans-58" d="M 544 1381 
L 544 3500 
L 1119 3500 
L 1119 1403 
Q 1119 906 1312 657 
Q 1506 409 1894 409 
Q 2359 409 2629 706 
Q 2900 1003 2900 1516 
L 2900 3500 
L 3475 3500 
L 3475 0 
L 2900 0 
L 2900 538 
Q 2691 219 2414 64 
Q 2138 -91 1772 -91 
Q 1169 -91 856 284 
Q 544 659 544 1381 
z
M 1991 3584 
L 1991 3584 
z
" transform="scale(0.015625)"/>
       <path id="DejaVuSans-59" d="M 191 3500 
L 800 3500 
L 1894 563 
L 2988 3500 
L 3597 3500 
L 2284 0 
L 1503 0 
L 191 3500 
z
" transform="scale(0.015625)"/>
       <path id="DejaVuSans-5b" d="M 3513 3500 
L 2247 1797 
L 3578 0 
L 2900 0 
L 1881 1375 
L 863 0 
L 184 0 
L 1544 1831 
L 300 3500 
L 978 3500 
L 1906 2253 
L 2834 3500 
L 3513 3500 
z
" transform="scale(0.015625)"/>
       <path id="DejaVuSans-47" d="M 2906 2969 
L 2906 4863 
L 3481 4863 
L 3481 0 
L 2906 0 
L 2906 525 
Q 2725 213 2448 61 
Q 2172 -91 1784 -91 
Q 1150 -91 751 415 
Q 353 922 353 1747 
Q 353 2572 751 3078 
Q 1150 3584 1784 3584 
Q 2172 3584 2448 3432 
Q 2725 3281 2906 2969 
z
M 947 1747 
Q 947 1113 1208 752 
Q 1469 391 1925 391 
Q 2381 391 2643 752 
Q 2906 1113 2906 1747 
Q 2906 2381 2643 2742 
Q 2381 3103 1925 3103 
Q 1469 3103 1208 2742 
Q 947 2381 947 1747 
z
" transform="scale(0.015625)"/>
      </defs>
      <use xlink:href="#DejaVuSans-26"/>
      <use xlink:href="#DejaVuSans-58" transform="translate(69.828125 0)"/>
      <use xlink:href="#DejaVuSans-50" transform="translate(133.203125 0)"/>
      <use xlink:href="#DejaVuSans-58" transform="translate(230.609375 0)"/>
      <use xlink:href="#DejaVuSans-4f" transform="translate(293.984375 0)"/>
      <use xlink:href="#DejaVuSans-44" transform="translate(321.765625 0)"/>
      <use xlink:href="#DejaVuSans-57" transform="translate(383.046875 0)"/>
      <use xlink:href="#DejaVuSans-4c" transform="translate(422.25 0)"/>
      <use xlink:href="#DejaVuSans-59" transform="translate(450.03125 0)"/>
      <use xlink:href="#DejaVuSans-48" transform="translate(509.21875 0)"/>
      <use xlink:href="#DejaVuSans-3" transform="translate(570.75 0)"/>
      <use xlink:href="#DejaVuSans-48" transform="translate(602.53125 0)"/>
      <use xlink:href="#DejaVuSans-5b" transform="translate(662.3125 0)"/>
      <use xlink:href="#DejaVuSans-53" transform="translate(721.5 0)"/>
      <use xlink:href="#DejaVuSans-4f" transform="translate(784.984375 0)"/>
      <use xlink:href="#DejaVuSans-44" transform="translate(812.765625 0)"/>
      <use xlink:href="#DejaVuSans-4c" transform="translate(874.046875 0)"/>
      <use xlink:href="#DejaVuSans-51" transform="translate(901.828125 0)"/>
      <use xlink:href="#DejaVuSans-48" transform="translate(965.203125 0)"/>
      <use xlink:href="#DejaVuSans-47" transform="translate(1026.734375 0)"/>
      <use xlink:href="#DejaVuSans-3" transform="translate(1090.21875 0)"/>
      <use xlink:href="#DejaVuSans-59" transform="translate(1122 0)"/>
      <use xlink:href="#DejaVuSans-44" transform="translate(1181.1875 0)"/>
      <use xlink:href="#DejaVuSans-55" transform="translate(1242.46875 0)"/>
      <use xlink:href="#DejaVuSans-4c" transform="translate(1283.578125 0)"/>
      <use xlink:href="#DejaVuSans-44" transform="translate(1311.359375 0)"/>
      <use xlink:href="#DejaVuSans-51" transform="translate(1372.640625 0)"/>
      <use xlink:href="#DejaVuSans-46" transform="translate(1436.015625 0)"/>
      <use xlink:href="#DejaVuSans-48" transform="translate(1491 0)"/>
     </g>
    </g>
   </g>
   <g id="line2d_13">
    <path d="M 73.209702 225.84537 
L 73.659659 194.370769 
L 74.559574 153.903132 
L 75.459489 135.730546 
L 75.909447 128.443204 
L 76.359404 123.64013 
L 77.259319 118.348426 
L 78.159234 114.618525 
L 79.059149 112.632201 
L 79.959064 111.640543 
L 82.208852 109.62648 
L 84.008682 108.29625 
L 86.25847 106.976143 
L 89.85813 105.319029 
L 93.007832 104.05804 
L 96.607492 102.881079 
L 101.557025 101.523447 
L 107.85643 100.066891 
L 115.05575 98.629584 
L 124.0549 97.061014 
L 133.953966 95.551751 
L 145.202904 94.05735 
L 159.151586 92.41579 
L 175.350057 90.743936 
L 194.248272 89.033138 
L 217.196105 87.195358 
L 242.843683 85.368932 
L 271.640964 83.542123 
L 304.93782 81.66069 
L 343.184209 79.727099 
L 386.38013 77.768147 
L 436.775371 75.711597 
L 490.770272 73.734358 
L 533.516236 72.307686 
L 533.516236 72.307686 
" clip-path="url(#p3bbb684b1a)" style="fill: none; stroke: #4c72b0; stroke-opacity: 0.7; stroke-width: 1.5; stroke-linecap: round"/>
   </g>
   <g id="line2d_14">
    <path d="M 73.209702 241.718724 
L 73.659659 200.334276 
L 74.109617 172.787556 
L 75.009532 142.78853 
L 75.459489 134.660443 
L 76.359404 124.530386 
L 77.259319 118.925829 
L 77.709277 116.687135 
L 78.159234 115.225724 
L 79.059149 113.564197 
L 80.409022 112.15101 
L 82.658809 110.247986 
L 84.458639 109.00747 
L 86.708427 107.738208 
L 89.85813 106.28849 
L 93.45779 104.85994 
L 97.957365 103.451313 
L 102.45694 102.251569 
L 108.756345 100.812849 
L 116.405623 99.310478 
L 125.854731 97.702223 
L 136.653711 96.107826 
L 149.702479 94.445124 
L 165.001034 92.73344 
L 182.549377 91.013827 
L 202.347507 89.301813 
L 226.645213 87.427993 
L 254.992536 85.476801 
L 286.039605 83.575283 
L 320.686333 81.678874 
L 360.282594 79.736996 
L 405.278345 77.754002 
L 455.223629 75.776231 
L 511.01836 73.790961 
L 533.516236 73.04798 
L 533.516236 73.04798 
" clip-path="url(#p3bbb684b1a)" style="fill: none; stroke-dasharray: 5.55,2.4; stroke-dashoffset: 0; stroke: #dd8452; stroke-opacity: 0.7; stroke-width: 1.5"/>
   </g>
   <g id="patch_3">
    <path d="M 50.194375 304.295312 
L 50.194375 22.318125 
" style="fill: none; stroke: #cccccc; stroke-width: 1.25; stroke-linejoin: miter; stroke-linecap: square"/>
   </g>
   <g id="patch_4">
    <path d="M 556.531562 304.295312 
L 556.531562 22.318125 
" style="fill: none; stroke: #cccccc; stroke-width: 1.25; stroke-linejoin: miter; stroke-linecap: square"/>
   </g>
   <g id="patch_5">
    <path d="M 50.194375 304.295312 
L 556.531562 304.295312 
" style="fill: none; stroke: #cccccc; stroke-width: 1.25; stroke-linejoin: miter; stroke-linecap: square"/>
   </g>
   <g id="patch_6">
    <path d="M 50.194375 22.318125 
L 556.531562 22.318125 
" style="fill: none; stroke: #cccccc; stroke-width: 1.25; stroke-linejoin: miter; stroke-linecap: square"/>
   </g>
   <g id="text_15">
    <!-- PCA explained-variance curves -->
    <g style="fill: #262626" transform="translate(210.603906 16.318125) scale(0.12 -0.12)">
     <defs>
      <path id="DejaVuSans-24" d="M 2188 4044 
L 1331 1722 
L 3047 1722 
L 2188 4044 
z
M 1831 4666 
L 2547 4666 
L 4325 0 
L 3669 0 
L 3244 1197 
L 1141 1197 
L 716 0 
L 50 0 
L 1831 4666 
z
" transform="scale(0.015625)"/>
      <path id="DejaVuSans-10" d="M 313 2009 
L 1997 2009 
L 1997 1497 
L 313 1497 
L 313 2009 
z
" transform="scale(0.015625)"/>
      <path id="DejaVuSans-56" d="M 2834 3397 
L 2834 2853 
Q 2591 2978 2328 3040 
Q 2066 3103 1784 3103 
Q 1356 3103 1142 2972 
Q 928 2841 928 2578 
Q 928 2378 1081 2264 
Q 1234 2150 1697 2047 
L 1894 2003 
Q 2506 1872 2764 1633 
Q 3022 1394 3022 966 
Q 3022 478 2636 193 
Q 2250 -91 1575 -91 
Q 1294 -91 989 -36 
Q 684 19 347 128 
L 347 722 
Q 666 556 975 473 
Q 1284 391 1588 391 
Q 1994 391 2212 530 
Q 2431 669 2431 922 
Q 2431 1156 2273 1281 
Q 2116 1406 1581 1522 
L 1381 1569 
Q 847 1681 609 1914 
Q 372 2147 372 2553 
Q 372 3047 722 3315 
Q 1072 3584 1716 3584 
Q 2034 3584 2315 3537 
Q 2597 3491 2834 3397 
z
" transform="scale(0.015625)"/>
     </defs>
     <use xlink:href="#DejaVuSans-33"/>
     <use xlink:href="#DejaVuSans-26" transform="translate(60.296875 0)"/>
     <use xlink:href="#DejaVuSans-24" transform="translate(130.125 0)"/>
     <use xlink:href="#DejaVuSans-3" transform="translate(198.53125 0)"/>
     <use xlink:href="#DejaVuSans-48" transform="translate(230.3125 0)"/>
     <use xlink:href="#DejaVuSans-5b" transform="translate(290.09375 0)"/>
     <use xlink:href="#DejaVuSans-53" transform="translate(349.28125 0)"/>
     <use xlink:href="#DejaVuSans-4f" transform="translate(412.765625 0)"/>
     <use xlink:href="#DejaVuSans-44" transform="translate(440.546875 0)"/>
     <use xlink:href="#DejaVuSans-4c" transform="translate(501.828125 0)"/>
     <use xlink:href="#DejaVuSans-51" transform="translate(529.609375 0)"/>
     <use xlink:href="#DejaVuSans-48" transform="translate(592.984375 0)"/>
     <use xlink:href="#DejaVuSans-47" transform="translate(654.515625 0)"/>
     <use xlink:href="#DejaVuSans-10" transform="translate(718 0)"/>
     <use xlink:href="#DejaVuSans-59" transform="translate(751.390625 0)"/>
     <use xlink:href="#DejaVuSans-44" transform="translate(810.578125 0)"/>
     <use xlink:href="#DejaVuSans-55" transform="translate(871.859375 0)"/>
     <use xlink:href="#DejaVuSans-4c" transform="translate(912.96875 0)"/>
     <use xlink:href="#DejaVuSans-44" transform="translate(940.75 0)"/>
     <use xlink:href="#DejaVuSans-51" transform="translate(1002.03125 0)"/>
     <use xlink:href="#DejaVuSans-46" transform="translate(1065.40625 0)"/>
     <use xlink:href="#DejaVuSans-48" transform="translate(1120.390625 0)"/>
     <use xlink:href="#DejaVuSans-3" transform="translate(1181.921875 0)"/>
     <use xlink:href="#DejaVuSans-46" transform="translate(1213.703125 0)"/>
     <use xlink:href="#DejaVuSans-58" transform="translate(1268.6875 0)"/>
     <use xlink:href="#DejaVuSans-55" transform="translate(1332.0625 0)"/>
     <use xlink:href="#DejaVuSans-59" transform="translate(1373.171875 0)"/>
     <use xlink:href="#DejaVuSans-48" transform="translate(1432.359375 0)"/>
     <use xlink:href="#DejaVuSans-56" transform="translate(1493.890625 0)"/>
    </g>
   </g>
   <g id="legend_1">
    <g id="patch_7">
     <path d="M 423.723769 60.304487 
L 549.534362 60.304487 
Q 551.533562 60.304487 551.533562 58.305287 
L 551.533562 29.315325 
Q 551.533562 27.316125 549.534362 27.316125 
L 423.723769 27.316125 
Q 421.724569 27.316125 421.724569 29.315325 
L 421.724569 58.305287 
Q 421.724569 60.304487 423.723769 60.304487 
z
" style="fill: #ffffff; opacity: 0.8; stroke: #cccccc; stroke-linejoin: miter"/>
    </g>
    <g id="line2d_15">
     <path d="M 425.722969 35.411323 
L 435.718969 35.411323 
L 445.714969 35.411323 
" style="fill: none; stroke: #4c72b0; stroke-opacity: 0.7; stroke-width: 1.5; stroke-linecap: round"/>
    </g>
    <g id="text_16">
     <!-- seed_0__seed_1: A -->
     <g style="fill: #262626" transform="translate(453.711769 38.909923) scale(0.09996 -0.09996)">
      <defs>
       <path id="DejaVuSans-42" d="M 3263 -1063 
L 3263 -1509 
L -63 -1509 
L -63 -1063 
L 3263 -1063 
z
" transform="scale(0.015625)"/>
       <path id="DejaVuSans-1d" d="M 750 794 
L 1409 794 
L 1409 0 
L 750 0 
L 750 794 
z
M 750 3309 
L 1409 3309 
L 1409 2516 
L 750 2516 
L 750 3309 
z
" transform="scale(0.015625)"/>
      </defs>
      <use xlink:href="#DejaVuSans-56"/>
      <use xlink:href="#DejaVuSans-48" transform="translate(52.09375 0)"/>
      <use xlink:href="#DejaVuSans-48" transform="translate(113.625 0)"/>
      <use xlink:href="#DejaVuSans-47" transform="translate(175.15625 0)"/>
      <use xlink:href="#DejaVuSans-42" transform="translate(238.640625 0)"/>
      <use xlink:href="#DejaVuSans-13" transform="translate(288.640625 0)"/>
      <use xlink:href="#DejaVuSans-42" transform="translate(352.265625 0)"/>
      <use xlink:href="#DejaVuSans-42" transform="translate(402.265625 0)"/>
      <use xlink:href="#DejaVuSans-56" transform="translate(452.265625 0)"/>
      <use xlink:href="#DejaVuSans-48" transform="translate(504.359375 0)"/>
      <use xlink:href="#DejaVuSans-48" transform="translate(565.890625 0)"/>
      <use xlink:href="#DejaVuSans-47" transform="translate(627.421875 0)"/>
      <use xlink:href="#DejaVuSans-42" transform="translate(690.90625 0)"/>
      <use xlink:href="#DejaVuSans-14" transform="translate(740.90625 0)"/>
      <use xlink:href="#DejaVuSans-1d" transform="translate(804.53125 0)"/>
      <use xlink:href="#DejaVuSans-3" transform="translate(838.21875 0)"/>
      <use xlink:href="#DejaVuSans-24" transform="translate(870 0)"/>
     </g>
    </g>
    <g id="line2d_16">
     <path d="M 425.722969 50.406104 
L 435.718969 50.406104 
L 445.714969 50.406104 
" style="fill: none; stroke-dasharray: 5.55,2.4; stroke-dashoffset: 0; stroke: #dd8452; stroke-opacity: 0.7; stroke-width: 1.5"/>
    </g>
    <g id="text_17">
     <!-- seed_0__seed_1: B -->
     <g style="fill: #262626" transform="translate(453.711769 53.904704) scale(0.09996 -0.09996)">
      <defs>
       <path id="DejaVuSans-25" d="M 1259 2228 
L 1259 519 
L 2272 519 
Q 2781 519 3026 730 
Q 3272 941 3272 1375 
Q 3272 1813 3026 2020 
Q 2781 2228 2272 2228 
L 1259 2228 
z
M 1259 4147 
L 1259 2741 
L 2194 2741 
Q 2656 2741 2882 2914 
Q 3109 3088 3109 3444 
Q 3109 3797 2882 3972 
Q 2656 4147 2194 4147 
L 1259 4147 
z
M 628 4666 
L 2241 4666 
Q 2963 4666 3353 4366 
Q 3744 4066 3744 3513 
Q 3744 3084 3544 2831 
Q 3344 2578 2956 2516 
Q 3422 2416 3680 2098 
Q 3938 1781 3938 1306 
Q 3938 681 3513 340 
Q 3088 0 2303 0 
L 628 0 
L 628 4666 
z
" transform="scale(0.015625)"/>
      </defs>
      <use xlink:href="#DejaVuSans-56"/>
      <use xlink:href="#DejaVuSans-48" transform="translate(52.09375 0)"/>
      <use xlink:href="#DejaVuSans-48" transform="translate(113.625 0)"/>
      <use xlink:href="#DejaVuSans-47" transform="translate(175.15625 0)"/>
      <use xlink:href="#DejaVuSans-42" transform="translate(238.640625 0)"/>
      <use xlink:href="#DejaVuSans-13" transform="translate(288.640625 0)"/>
      <use xlink:href="#DejaVuSans-42" transform="translate(352.265625 0)"/>
      <use xlink:href="#DejaVuSans-42" transform="translate(402.265625 0)"/>
      <use xlink:href="#DejaVuSans-56" transform="translate(452.265625 0)"/>
      <use xlink:href="#DejaVuSans-48" transform="translate(504.359375 0)"/>
      <use xlink:href="#DejaVuSans-48" transform="translate(565.890625 0)"/>
      <use xlink:href="#DejaVuSans-47" transform="translate(627.421875 0)"/>
      <use xlink:href="#DejaVuSans-42" transform="translate(690.90625 0)"/>
      <use xlink:href="#DejaVuSans-14" transform="translate(740.90625 0)"/>
      <use xlink:href="#DejaVuSans-1d" transform="translate(804.53125 0)"/>
      <use xlink:href="#DejaVuSans-3" transform="translate(838.21875 0)"/>
      <use xlink:href="#DejaVuSans-25" transform="translate(870 0)"/>
     </g>
    </g>
   </g>
  </g>
 </g>
 <defs>
  <clipPath id="p3bbb684b1a">
   <rect x="50.194375" y="22.318125" width="506.337187" height="281.977188"/>
  </clipPath>
 </defs>
</svg>
